SplineFontDB: 3.2
FontName: RobotoLegacy-CondItalic
FullName: Roboto Legacy Cond Italic
FamilyName: Roboto Legacy Cond
Weight: Book
Copyright: Font data copyright Google 2011
Version: 1.00000; 2011
ItalicAngle: 0
UnderlinePosition: -200
UnderlineWidth: 100
Ascent: 1536
Descent: 512
InvalidEm: 0
sfntRevision: 0x00010000
LayerCount: 2
Layer: 0 1 "Back" 1
Layer: 1 1 "Fore" 0
XUID: [1021 474 -1613799265 32377]
StyleMap: 0x0001
FSType: 4
OS2Version: 3
OS2_WeightWidthSlopeOnly: 0
OS2_UseTypoMetrics: 0
CreationTime: 1221222574
ModificationTime: 1744076362
PfmFamily: 81
TTFWeight: 400
TTFWidth: 3
LineGap: 0
VLineGap: 0
Panose: 0 0 0 0 0 0 0 0 0 0
OS2TypoAscent: 1536
OS2TypoAOffset: 0
OS2TypoDescent: -512
OS2TypoDOffset: 0
OS2TypoLinegap: 102
OS2WinAscent: 1946
OS2WinAOffset: 0
OS2WinDescent: 512
OS2WinDOffset: 0
HheadAscent: 1900
HheadAOffset: 0
HheadDescent: -500
HheadDOffset: 0
OS2SubXSize: 1434
OS2SubYSize: 1331
OS2SubXOff: 0
OS2SubYOff: 287
OS2SupXSize: 1434
OS2SupYSize: 1331
OS2SupXOff: 0
OS2SupYOff: 977
OS2StrikeYSize: 102
OS2StrikeYPos: 512
OS2CapHeight: 1456
OS2XHeight: 1082
OS2Vendor: 'pyrs'
OS2CodePages: 2000019f.4f010000
OS2UnicodeRanges: e00002ef.5000205b.00000020.00000000
Lookup: 1 0 0 "'smcp' Lowercase to Small Capitals lookup 0" { "'smcp' Lowercase to Small Capitals lookup 0 subtable"  } ['smcp' ('DFLT' <'dflt' > ) ]
Lookup: 4 0 1 "'liga' Standard Ligatures lookup 1" { "'liga' Standard Ligatures lookup 1 subtable"  } ['liga' ('DFLT' <'dflt' > ) ]
Lookup: 258 0 0 "'kern' Horizontal Kerning lookup 0" { "'kern' Horizontal Kerning lookup 0 per glyph data 0"  "'kern' Horizontal Kerning lookup 0 per glyph data 1"  "'kern' Horizontal Kerning lookup 0 per glyph data 2"  "'kern' Horizontal Kerning lookup 0 kerning class 3"  } ['kern' ('DFLT' <'dflt' > ) ]
MarkAttachClasses: 1
DEI: 91125
KernClass2: 32+ 29 "'kern' Horizontal Kerning lookup 0 kerning class 3"

StartChar: exclam
Encoding: 33 33 4
Width: 477
GlyphClass: 1
Flags: W
LayerCount: 2
Fore
SplineSet
334 485 m 1,0,-1
 130 485 l 1,1,-1
 275 1456 l 1,2,-1
 479 1456 l 1,3,-1
 334 485 l 1,0,-1
262 0 m 1,4,-1
 56 0 l 1,5,-1
 87 204 l 1,6,-1
 293 204 l 1,7,-1
 262 0 l 1,4,-1
EndSplineSet
EndChar

StartChar: quotedbl
Encoding: 34 34 5
Width: 705
GlyphClass: 1
Flags: W
LayerCount: 2
Fore
SplineSet
407 1206 m 1,0,-1
 284 951 l 1,1,-1
 187 951 l 1,2,-1
 227 1197 l 1,3,-1
 263 1456 l 1,4,-1
 442 1456 l 1,5,-1
 407 1206 l 1,0,-1
686 1206 m 1,6,-1
 564 951 l 1,7,-1
 467 951 l 1,8,-1
 507 1203 l 1,9,-1
 543 1456 l 1,10,-1
 721 1456 l 1,11,-1
 686 1206 l 1,6,-1
EndSplineSet
EndChar

StartChar: numbersign
Encoding: 35 35 6
Width: 1085
GlyphClass: 1
Flags: W
LayerCount: 2
Fore
SplineSet
575 410 m 1,0,-1
 377 410 l 1,1,-1
 251 0 l 1,2,-1
 113 0 l 1,3,-1
 239 410 l 1,4,-1
 39 410 l 1,5,-1
 58 540 l 1,6,-1
 279 540 l 1,7,-1
 393 908 l 1,8,-1
 178 908 l 1,9,-1
 198 1040 l 1,10,-1
 433 1040 l 1,11,-1
 562 1456 l 1,12,-1
 701 1456 l 1,13,-1
 572 1040 l 1,14,-1
 770 1040 l 1,15,-1
 899 1456 l 1,16,-1
 1037 1456 l 1,17,-1
 909 1040 l 1,18,-1
 1093 1040 l 1,19,-1
 1073 908 l 1,20,-1
 868 908 l 1,21,-1
 755 540 l 1,22,-1
 953 540 l 1,23,-1
 934 410 l 1,24,-1
 715 410 l 1,25,-1
 589 0 l 1,26,-1
 449 0 l 1,27,-1
 575 410 l 1,0,-1
417 540 m 1,28,-1
 615 540 l 1,29,-1
 729 908 l 1,30,-1
 531 908 l 1,31,-1
 417 540 l 1,28,-1
EndSplineSet
EndChar

StartChar: dollar
Encoding: 36 36 7
Width: 1045
GlyphClass: 1
Flags: W
LayerCount: 2
Fore
SplineSet
710 370 m 0,0,1
 724 469 724 469 685 529 c 128,-1,2
 646 589 646 589 534 645 c 1,3,4
 358 713 358 713 280.5 811 c 128,-1,5
 203 909 203 909 228 1082 c 0,6,7
 252 1252 252 1252 353.5 1354 c 128,-1,8
 455 1456 455 1456 612 1474 c 1,9,-1
 642 1685 l 1,10,-1
 773 1685 l 1,11,-1
 743 1471 l 1,12,13
 886 1448 886 1448 955.5 1332.5 c 128,-1,14
 1025 1217 1025 1217 1000 1029 c 1,15,-1
 797 1029 l 1,16,17
 815 1164 815 1164 776.5 1240.5 c 128,-1,18
 738 1317 738 1317 648 1317 c 0,19,20
 559 1317 559 1317 503 1252 c 128,-1,21
 447 1187 447 1187 433 1084 c 0,22,23
 418 983 418 983 455.5 925.5 c 128,-1,24
 493 868 493 868 611 809 c 1,25,26
 786 740 786 740 862 642.5 c 128,-1,27
 938 545 938 545 914 372 c 0,28,29
 889 196 889 196 785 98 c 128,-1,30
 681 0 681 0 519 -17 c 1,31,-1
 492 -210 l 1,32,-1
 361 -210 l 1,33,-1
 388 -17 l 1,34,35
 236 1 236 1 148 109.5 c 128,-1,36
 60 218 60 218 90 428 c 1,37,-1
 293 428 l 1,38,39
 270 265 270 265 322.5 201.5 c 128,-1,40
 375 138 375 138 472 138 c 0,41,42
 566 138 566 138 630.5 202.5 c 128,-1,43
 695 267 695 267 710 370 c 0,0,1
EndSplineSet
EndChar

StartChar: percent
Encoding: 37 37 8
Width: 1370
GlyphClass: 1
Flags: W
LayerCount: 2
Fore
SplineSet
194 1176 m 2,0,1
 213 1308 213 1308 299.5 1392.5 c 128,-1,2
 386 1477 386 1477 514 1477 c 0,3,4
 636 1477 636 1477 699 1389.5 c 128,-1,5
 762 1302 762 1302 743 1176 c 2,6,-1
 732 1099 l 2,7,8
 711 966 711 966 626 883 c 128,-1,9
 541 800 541 800 414 800 c 0,10,11
 291 800 291 800 227 886.5 c 128,-1,12
 163 973 163 973 183 1099 c 2,13,-1
 194 1176 l 2,0,1
327 1099 m 2,14,15
 315 1022 315 1022 341 971 c 128,-1,16
 367 920 367 920 432 920 c 0,17,18
 491 920 491 920 533.5 972.5 c 128,-1,19
 576 1025 576 1025 588 1099 c 2,20,-1
 599 1176 l 2,21,22
 610 1253 610 1253 584.5 1305 c 128,-1,23
 559 1357 559 1357 496 1357 c 0,24,25
 435 1357 435 1357 392 1303.5 c 128,-1,26
 349 1250 349 1250 338 1176 c 2,27,-1
 327 1099 l 2,14,15
706 357 m 2,28,29
 725 489 725 489 811.5 573 c 128,-1,30
 898 657 898 657 1026 657 c 0,31,32
 1148 657 1148 657 1211 570 c 128,-1,33
 1274 483 1274 483 1256 357 c 2,34,-1
 1244 279 l 2,35,36
 1223 146 1223 146 1138 62.5 c 128,-1,37
 1053 -21 1053 -21 925 -21 c 0,38,39
 803 -21 803 -21 738.5 66 c 128,-1,40
 674 153 674 153 694 279 c 2,41,-1
 706 357 l 2,28,29
838 279 m 2,42,43
 826 202 826 202 853.5 150.5 c 128,-1,44
 881 99 881 99 943 99 c 0,45,46
 1006 99 1006 99 1047 151 c 128,-1,47
 1088 203 1088 203 1100 279 c 2,48,-1
 1112 357 l 2,49,50
 1123 436 1123 436 1097 486.5 c 128,-1,51
 1071 537 1071 537 1008 537 c 0,52,53
 947 537 947 537 904 484 c 128,-1,54
 861 431 861 431 850 357 c 2,55,-1
 838 279 l 2,42,43
376 113 m 1,56,-1
 280 176 l 1,57,-1
 1063 1314 l 1,58,-1
 1159 1251 l 1,59,-1
 376 113 l 1,56,-1
EndSplineSet
EndChar

StartChar: ampersand
Encoding: 38 38 9
Width: 1189
GlyphClass: 1
Flags: W
LayerCount: 2
Fore
SplineSet
44 383 m 0,0,1
 63 511 63 511 138 599.5 c 128,-1,2
 213 688 213 688 356 788 c 1,3,4
 303 885 303 885 281.5 964 c 128,-1,5
 260 1043 260 1043 273 1125 c 0,6,7
 299 1300 299 1300 401.5 1388.5 c 128,-1,8
 504 1477 504 1477 662 1477 c 0,9,10
 797 1477 797 1477 873 1386.5 c 128,-1,11
 949 1296 949 1296 930 1169 c 0,12,13
 915 1068 915 1068 864 999.5 c 128,-1,14
 813 931 813 931 722 864 c 2,15,-1
 597 774 l 1,16,-1
 837 380 l 1,17,18
 880 444 880 444 909.5 518 c 128,-1,19
 939 592 939 592 952 675 c 1,20,-1
 1124 675 l 1,21,22
 1102 538 1102 538 1053.5 429 c 128,-1,23
 1005 320 1005 320 925 235 c 1,24,-1
 1068 0 l 1,25,-1
 829 0 l 1,26,-1
 766 104 l 1,27,28
 680 42 680 42 591 10.5 c 128,-1,29
 502 -21 502 -21 408 -21 c 0,30,31
 221 -21 221 -21 119 91.5 c 128,-1,32
 17 204 17 204 44 383 c 0,0,1
437 133 m 0,33,34
 499 133 499 133 564.5 157.5 c 128,-1,35
 630 182 630 182 691 228 c 1,36,-1
 434 656 l 1,37,-1
 411 639 l 1,38,39
 328 567 328 567 293 504 c 128,-1,40
 258 441 258 441 251 388 c 0,41,42
 233 274 233 274 281.5 203.5 c 128,-1,43
 330 133 330 133 437 133 c 0,33,34
464 1127 m 0,44,45
 456 1074 456 1074 470.5 1020 c 128,-1,46
 485 966 485 966 520 903 c 1,47,-1
 635 983 l 2,48,49
 692 1023 692 1023 717.5 1067 c 128,-1,50
 743 1111 743 1111 751 1164 c 0,51,52
 761 1231 761 1231 730.5 1276 c 128,-1,53
 700 1321 700 1321 635 1321 c 0,54,55
 571 1321 571 1321 523.5 1264.5 c 128,-1,56
 476 1208 476 1208 464 1127 c 0,44,45
EndSplineSet
EndChar

StartChar: quotesingle
Encoding: 39 39 10
Width: 408
GlyphClass: 1
Flags: W
LayerCount: 2
Fore
SplineSet
401 1230 m 1,0,-1
 275 951 l 1,1,-1
 165 951 l 1,2,-1
 207 1217 l 1,3,-1
 241 1456 l 1,4,-1
 433 1456 l 1,5,-1
 401 1230 l 1,0,-1
EndSplineSet
EndChar

StartChar: parenleft
Encoding: 40 40 11
Width: 607
GlyphClass: 1
Flags: W
LayerCount: 2
Fore
SplineSet
125 590 m 1,0,1
 180 985 180 985 348.5 1257.5 c 128,-1,2
 517 1530 517 1530 690 1623 c 1,3,-1
 696 1622 l 1,4,-1
 718 1515 l 1,5,6
 590 1413 590 1413 473 1171 c 128,-1,7
 356 929 356 929 309 592 c 2,8,-1
 306 572 l 2,9,10
 257 221 257 221 306 -12 c 128,-1,11
 355 -245 355 -245 456 -355 c 1,12,-1
 405 -457 l 1,13,-1
 399 -457 l 1,14,15
 254 -366 254 -366 161 -88 c 128,-1,16
 68 190 68 190 122 574 c 1,17,-1
 125 590 l 1,0,1
EndSplineSet
EndChar

StartChar: parenright
Encoding: 41 41 12
Width: 612
GlyphClass: 1
Flags: W
LayerCount: 2
Fore
SplineSet
500 574 m 1,0,1
 444 178 444 178 273.5 -93 c 128,-1,2
 103 -364 103 -364 -71 -458 c 1,3,-1
 -77 -457 l 1,4,-1
 -102 -355 l 1,5,6
 25 -253 25 -253 143.5 -9.5 c 128,-1,7
 262 234 262 234 310 572 c 2,8,-1
 313 592 l 1,9,10
 361 940 361 940 309.5 1177 c 128,-1,11
 258 1414 258 1414 161 1521 c 1,12,-1
 214 1624 l 1,13,-1
 220 1623 l 1,14,15
 364 1533 364 1533 459.5 1249.5 c 128,-1,16
 555 966 555 966 503 590 c 1,17,-1
 500 574 l 1,0,1
EndSplineSet
EndChar

StartChar: asterisk
Encoding: 42 42 13
Width: 793
GlyphClass: 1
Flags: W
LayerCount: 2
Fore
SplineSet
308 690 m 1,0,-1
 103 764 l 1,1,-1
 166 901 l 1,2,-1
 374 814 l 1,3,-1
 411 1081 l 1,4,-1
 552 1081 l 1,5,-1
 511 808 l 1,6,-1
 738 897 l 1,7,-1
 761 759 l 1,8,-1
 529 681 l 1,9,-1
 631 468 l 1,10,-1
 503 382 l 1,11,-1
 403 607 l 1,12,-1
 240 388 l 1,13,-1
 136 470 l 1,14,-1
 308 690 l 1,0,-1
EndSplineSet
EndChar

StartChar: plus
Encoding: 43 43 14
Width: 1037
GlyphClass: 1
Flags: W
LayerCount: 2
Fore
SplineSet
650 774 m 1,0,-1
 1000 774 l 1,1,-1
 974 600 l 1,2,-1
 624 600 l 1,3,-1
 556 146 l 1,4,-1
 357 146 l 1,5,-1
 425 600 l 1,6,-1
 76 600 l 1,7,-1
 102 774 l 1,8,-1
 451 774 l 1,9,-1
 516 1206 l 1,10,-1
 715 1206 l 1,11,-1
 650 774 l 1,0,-1
EndSplineSet
EndChar

StartChar: comma
Encoding: 44 44 15
Width: 414
GlyphClass: 1
Flags: W
LayerCount: 2
Fore
SplineSet
242 24 m 1,0,-1
 67 -271 l 1,1,-1
 -63 -271 l 1,2,-1
 43 31 l 1,3,-1
 70 216 l 1,4,-1
 270 216 l 1,5,-1
 242 24 l 1,0,-1
EndSplineSet
EndChar

StartChar: hyphen
Encoding: 45 45 16
Width: 787
GlyphClass: 1
Flags: W
LayerCount: 2
Fore
SplineSet
645 542 m 1,0,-1
 138 542 l 1,1,-1
 162 697 l 1,2,-1
 669 697 l 1,3,-1
 645 542 l 1,0,-1
EndSplineSet
EndChar

StartChar: period
Encoding: 46 46 17
Width: 500
GlyphClass: 1
Flags: W
LayerCount: 2
Fore
SplineSet
263 0 m 1,0,-1
 58 0 l 1,1,-1
 88 203 l 1,2,-1
 293 203 l 1,3,-1
 263 0 l 1,0,-1
EndSplineSet
EndChar

StartChar: slash
Encoding: 47 47 18
Width: 730
GlyphClass: 1
Flags: W
LayerCount: 2
Fore
SplineSet
99 -125 m 1,0,-1
 -90 -125 l 1,1,-1
 637 1456 l 1,2,-1
 826 1456 l 1,3,-1
 99 -125 l 1,0,-1
EndSplineSet
EndChar

StartChar: zero
Encoding: 48 48 19
Width: 1056
GlyphClass: 1
Flags: W
LayerCount: 2
Fore
SplineSet
954 518 m 2,0,1
 914 258 914 258 778.5 118.5 c 128,-1,2
 643 -21 643 -21 446 -21 c 0,3,4
 258 -21 258 -21 159 125 c 128,-1,5
 60 271 60 271 98 518 c 2,6,-1
 161 937 l 2,7,8
 199 1195 199 1195 335.5 1336 c 128,-1,9
 472 1477 472 1477 669 1477 c 0,10,11
 856 1477 856 1477 954.5 1330 c 128,-1,12
 1053 1183 1053 1183 1017 937 c 2,13,-1
 954 518 l 2,0,1
815 966 m 2,14,15
 840 1137 840 1137 796 1229 c 128,-1,16
 752 1321 752 1321 645 1321 c 0,17,18
 543 1321 543 1321 468.5 1225 c 128,-1,19
 394 1129 394 1129 370 966 c 2,20,-1
 299 490 l 2,21,22
 272 319 272 319 317 226 c 128,-1,23
 362 133 362 133 469 133 c 0,24,25
 571 133 571 133 645 229.5 c 128,-1,26
 719 326 719 326 744 490 c 2,27,-1
 815 966 l 2,14,15
EndSplineSet
EndChar

StartChar: one
Encoding: 49 49 20
Width: 1056
GlyphClass: 1
Flags: W
LayerCount: 2
Fore
SplineSet
593 0 m 1,0,-1
 389 0 l 1,1,-1
 582 1284 l 1,2,-1
 295 1266 l 1,3,-1
 318 1417 l 1,4,-1
 815 1477 l 1,5,-1
 593 0 l 1,0,-1
EndSplineSet
EndChar

StartChar: two
Encoding: 50 50 21
Width: 1056
GlyphClass: 1
Flags: W
LayerCount: 2
Fore
SplineSet
894 0 m 1,0,-1
 53 0 l 1,1,-1
 72 135 l 1,2,-1
 559 674 l 1,3,4
 680 814 680 814 732 904 c 128,-1,5
 784 994 784 994 796 1078 c 0,6,7
 812 1193 812 1193 773 1257 c 128,-1,8
 734 1321 734 1321 639 1321 c 0,9,10
 537 1321 537 1321 467 1239 c 128,-1,11
 397 1157 397 1157 380 1034 c 1,12,-1
 181 1034 l 1,13,-1
 179 1040 l 1,14,15
 201 1230 201 1230 332.5 1353.5 c 128,-1,16
 464 1477 464 1477 661 1477 c 0,17,18
 840 1477 840 1477 933 1367 c 128,-1,19
 1026 1257 1026 1257 1002 1078 c 0,20,21
 983 950 983 950 906 839.5 c 128,-1,22
 829 729 829 729 671 557 c 1,23,-1
 336 159 l 1,24,-1
 338 154 l 1,25,-1
 916 154 l 1,26,-1
 894 0 l 1,0,-1
EndSplineSet
EndChar

StartChar: three
Encoding: 51 51 22
Width: 1056
GlyphClass: 1
Flags: W
LayerCount: 2
Fore
SplineSet
426 824 m 1,0,-1
 566 824 l 2,1,2
 672 824 672 824 736 892.5 c 128,-1,3
 800 961 800 961 817 1073 c 0,4,5
 834 1186 834 1186 792 1253.5 c 128,-1,6
 750 1321 750 1321 648 1321 c 0,7,8
 559 1321 559 1321 485.5 1251.5 c 128,-1,9
 412 1182 412 1182 396 1076 c 1,10,-1
 199 1076 l 1,11,-1
 197 1082 l 1,12,13
 219 1257 219 1257 354 1367 c 128,-1,14
 489 1477 489 1477 672 1477 c 0,15,16
 856 1477 856 1477 954.5 1371 c 128,-1,17
 1053 1265 1053 1265 1024 1072 c 0,18,19
 1007 964 1007 964 941.5 879 c 128,-1,20
 876 794 876 794 776 749 c 1,21,22
 874 706 874 706 918.5 616.5 c 128,-1,23
 963 527 963 527 944 402 c 0,24,25
 913 196 913 196 777 87.5 c 128,-1,26
 641 -21 641 -21 447 -21 c 0,27,28
 281 -21 281 -21 163.5 88.5 c 128,-1,29
 46 198 46 198 79 387 c 1,30,-1
 81 392 l 1,31,-1
 279 392 l 1,32,33
 261 278 261 278 314.5 205.5 c 128,-1,34
 368 133 368 133 470 133 c 0,35,36
 571 133 571 133 645.5 207 c 128,-1,37
 720 281 720 281 739 400 c 0,38,39
 760 542 760 542 711 606.5 c 128,-1,40
 662 671 662 671 543 671 c 2,41,-1
 403 671 l 1,42,-1
 408 707 l 1,43,-1
 416 760 l 1,44,-1
 420 786 l 1,45,-1
 426 824 l 1,0,-1
EndSplineSet
EndChar

StartChar: four
Encoding: 52 52 23
Width: 1056
GlyphClass: 1
Flags: W
LayerCount: 2
Fore
SplineSet
825 497 m 1,0,-1
 995 497 l 1,1,-1
 971 342 l 1,2,-1
 802 342 l 1,3,-1
 751 0 l 1,4,-1
 546 0 l 1,5,-1
 597 342 l 1,6,-1
 42 342 l 1,7,-1
 53 456 l 1,8,-1
 757 1456 l 1,9,-1
 969 1456 l 1,10,-1
 825 497 l 1,0,-1
261 497 m 1,11,-1
 620 497 l 1,12,-1
 722 1174 l 1,13,-1
 716 1176 l 1,14,-1
 680 1115 l 1,15,-1
 261 497 l 1,11,-1
EndSplineSet
EndChar

StartChar: five
Encoding: 53 53 24
Width: 1056
GlyphClass: 1
Flags: W
LayerCount: 2
Fore
SplineSet
167 648 m 1,0,-1
 362 1456 l 1,1,-1
 1051 1456 l 1,2,-1
 1026 1289 l 1,3,-1
 508 1289 l 1,4,-1
 403 851 l 1,5,6
 449 889 449 889 508 913.5 c 128,-1,7
 567 938 567 938 640 940 c 0,8,9
 820 942 820 942 902 815 c 128,-1,10
 984 688 984 688 951 465 c 0,11,12
 917 238 917 238 792.5 108.5 c 128,-1,13
 668 -21 668 -21 453 -21 c 0,14,15
 286 -21 286 -21 180 82.5 c 128,-1,16
 74 186 74 186 107 378 c 1,17,-1
 109 383 l 1,18,-1
 304 387 l 1,19,20
 285 260 285 260 332.5 196.5 c 128,-1,21
 380 133 380 133 476 133 c 0,22,23
 582 133 582 133 652 220 c 128,-1,24
 722 307 722 307 745 463 c 0,25,26
 767 613 767 613 724 696.5 c 128,-1,27
 681 780 681 780 574 780 c 0,28,29
 483 780 483 780 427.5 741.5 c 128,-1,30
 372 703 372 703 342 631 c 1,31,-1
 167 648 l 1,0,-1
EndSplineSet
EndChar

StartChar: six
Encoding: 54 54 25
Width: 1056
GlyphClass: 1
Flags: W
LayerCount: 2
Fore
SplineSet
735 1477 m 0,0,1
 808 1477 808 1477 877 1460 c 128,-1,2
 946 1443 946 1443 997 1414 c 1,3,-1
 935 1265 l 1,4,5
 887 1292 887 1292 835 1306 c 128,-1,6
 783 1320 783 1320 711 1320 c 0,7,8
 595 1320 595 1320 499 1206 c 128,-1,9
 403 1092 403 1092 376 910 c 2,10,-1
 359 801 l 1,11,12
 422 863 422 863 502.5 897 c 128,-1,13
 583 931 583 931 675 931 c 0,14,15
 838 931 838 931 917 802 c 128,-1,16
 996 673 996 673 966 464 c 0,17,18
 931 238 931 238 797.5 108.5 c 128,-1,19
 664 -21 664 -21 472 -21 c 0,20,21
 287 -21 287 -21 182 132.5 c 128,-1,22
 77 286 77 286 117 546 c 2,23,-1
 169 896 l 2,24,25
 209 1163 209 1163 368 1320 c 128,-1,26
 527 1477 527 1477 735 1477 c 0,0,1
585 782 m 0,27,28
 505 782 505 782 440 741.5 c 128,-1,29
 375 701 375 701 334 634 c 1,30,-1
 319 535 l 2,31,32
 290 341 290 341 340 236.5 c 128,-1,33
 390 132 390 132 495 132 c 0,34,35
 592 132 592 132 666 226.5 c 128,-1,36
 740 321 740 321 762 464 c 0,37,38
 785 617 785 617 738.5 699.5 c 128,-1,39
 692 782 692 782 585 782 c 0,27,28
EndSplineSet
EndChar

StartChar: seven
Encoding: 55 55 26
Width: 1056
GlyphClass: 1
Flags: W
LayerCount: 2
Fore
SplineSet
1087 1300 m 1,0,1
 815 1009 815 1009 686.5 750 c 128,-1,2
 558 491 558 491 509 159 c 2,3,-1
 485 0 l 1,4,-1
 280 0 l 1,5,-1
 304 159 l 2,6,7
 355 503 355 503 499.5 767 c 128,-1,8
 644 1031 644 1031 886 1300 c 1,9,-1
 196 1300 l 1,10,-1
 219 1456 l 1,11,-1
 1110 1456 l 1,12,-1
 1087 1300 l 1,0,1
EndSplineSet
EndChar

StartChar: eight
Encoding: 56 56 27
Width: 1056
GlyphClass: 1
Flags: W
LayerCount: 2
Fore
SplineSet
1015 1084 m 0,0,1
 996 966 996 966 926.5 880 c 128,-1,2
 857 794 857 794 754 752 c 1,3,4
 859 706 859 706 914.5 613 c 128,-1,5
 970 520 970 520 952 399 c 0,6,7
 921 191 921 191 785 85 c 128,-1,8
 649 -21 649 -21 457 -21 c 0,9,10
 266 -21 266 -21 152.5 90 c 128,-1,11
 39 201 39 201 69 399 c 0,12,13
 87 528 87 528 171.5 621.5 c 128,-1,14
 256 715 256 715 383 757 c 1,15,16
 289 802 289 802 242.5 887.5 c 128,-1,17
 196 973 196 973 213 1084 c 0,18,19
 242 1281 242 1281 369 1379 c 128,-1,20
 496 1477 496 1477 681 1477 c 0,21,22
 848 1477 848 1477 945 1374.5 c 128,-1,23
 1042 1272 1042 1272 1015 1084 c 0,0,1
748 404 m 0,24,25
 766 528 766 528 712 602 c 128,-1,26
 658 676 658 676 560 676 c 0,27,28
 459 676 459 676 376 599.5 c 128,-1,29
 293 523 293 523 276 404 c 0,30,31
 256 276 256 276 313.5 204.5 c 128,-1,32
 371 133 371 133 480 133 c 0,33,34
 574 133 574 133 651.5 207.5 c 128,-1,35
 729 282 729 282 748 404 c 0,24,25
809 1080 m 0,36,37
 825 1191 825 1191 782 1256 c 128,-1,38
 739 1321 739 1321 657 1321 c 0,39,40
 570 1321 570 1321 501.5 1256 c 128,-1,41
 433 1191 433 1191 417 1080 c 0,42,43
 399 963 399 963 446 897.5 c 128,-1,44
 493 832 493 832 585 832 c 0,45,46
 664 832 664 832 728 900.5 c 128,-1,47
 792 969 792 969 809 1080 c 0,36,37
EndSplineSet
EndChar

StartChar: nine
Encoding: 57 57 28
Width: 1056
GlyphClass: 1
Flags: W
LayerCount: 2
Fore
SplineSet
413 133 m 0,0,1
 525 133 525 133 613 230 c 128,-1,2
 701 327 701 327 728 498 c 2,3,-1
 748 633 l 1,4,5
 694 564 694 564 623.5 529 c 128,-1,6
 553 494 553 494 476 494 c 0,7,8
 299 494 299 494 209.5 626.5 c 128,-1,9
 120 759 120 759 153 978 c 0,10,11
 186 1203 186 1203 324.5 1340 c 128,-1,12
 463 1477 463 1477 645 1477 c 0,13,14
 832 1477 832 1477 935 1336 c 128,-1,15
 1038 1195 1038 1195 1001 944 c 2,16,-1
 935 504 l 2,17,18
 896 248 896 248 747 113.5 c 128,-1,19
 598 -21 598 -21 390 -21 c 0,20,21
 323 -21 323 -21 252.5 -5 c 128,-1,22
 182 11 182 11 125 42 c 1,23,-1
 180 189 l 1,24,25
 234 159 234 159 287.5 146 c 128,-1,26
 341 133 341 133 413 133 c 0,0,1
520 645 m 0,27,28
 600 645 600 645 666 690.5 c 128,-1,29
 732 736 732 736 774 807 c 1,30,-1
 799 974 l 2,31,32
 825 1148 825 1148 777.5 1234.5 c 128,-1,33
 730 1321 730 1321 624 1321 c 0,34,35
 534 1321 534 1321 457 1222 c 128,-1,36
 380 1123 380 1123 359 978 c 0,37,38
 335 825 335 825 376.5 735 c 128,-1,39
 418 645 418 645 520 645 c 0,27,28
EndSplineSet
EndChar

StartChar: less
Encoding: 60 60 31
Width: 910
GlyphClass: 1
Flags: W
LayerCount: 2
Fore
SplineSet
283 567 m 1,0,-1
 216 553 l 1,1,-1
 216 547 l 1,2,-1
 278 533 l 1,3,-1
 747 293 l 1,4,-1
 718 101 l 1,5,-1
 53 477 l 1,6,-1
 59 521 l 1,7,-1
 68 581 l 1,8,-1
 75 628 l 1,9,-1
 853 1002 l 1,10,-1
 825 810 l 1,11,-1
 283 567 l 1,0,-1
EndSplineSet
EndChar

StartChar: equal
Encoding: 61 61 32
Width: 1017
GlyphClass: 1
Flags: W
LayerCount: 2
Fore
SplineSet
916 808 m 1,0,-1
 171 808 l 1,1,-1
 195 968 l 1,2,-1
 940 968 l 1,3,-1
 916 808 l 1,0,-1
854 390 m 1,4,-1
 109 390 l 1,5,-1
 133 550 l 1,6,-1
 878 550 l 1,7,-1
 854 390 l 1,4,-1
EndSplineSet
EndChar

StartChar: greater
Encoding: 62 62 33
Width: 928
GlyphClass: 1
Flags: W
LayerCount: 2
Fore
SplineSet
154 802 m 1,0,-1
 183 990 l 1,1,-1
 869 616 l 1,2,-1
 862 571 l 1,3,-1
 863 571 l 1,4,-1
 847 464 l 1,5,-1
 47 89 l 1,6,-1
 76 278 l 1,7,-1
 638 525 l 1,8,-1
 703 538 l 1,9,-1
 704 544 l 1,10,-1
 643 559 l 1,11,-1
 154 802 l 1,0,-1
EndSplineSet
EndChar

StartChar: question
Encoding: 63 63 34
Width: 867
GlyphClass: 1
Flags: W
LayerCount: 2
Fore
SplineSet
281 408 m 1,0,1
 302 541 302 541 338 599 c 128,-1,2
 374 657 374 657 484 750 c 1,3,4
 570 841 570 841 618.5 913 c 128,-1,5
 667 985 667 985 682 1083 c 0,6,7
 699 1197 699 1197 662 1256.5 c 128,-1,8
 625 1316 625 1316 538 1316 c 0,9,10
 468 1316 468 1316 408 1259 c 128,-1,11
 348 1202 348 1202 332 1103 c 1,12,-1
 137 1103 l 1,13,-1
 135 1109 l 1,14,15
 158 1281 158 1281 278 1379 c 128,-1,16
 398 1477 398 1477 563 1477 c 0,17,18
 735 1477 735 1477 823.5 1371 c 128,-1,19
 912 1265 912 1265 886 1086 c 0,20,21
 865 950 865 950 790.5 848 c 128,-1,22
 716 746 716 746 596 641 c 0,23,24
 538 590 538 590 518 543.5 c 128,-1,25
 498 497 498 497 485 408 c 1,26,-1
 281 408 l 1,0,1
428 0 m 1,27,-1
 219 0 l 1,28,-1
 249 198 l 1,29,-1
 458 198 l 1,30,-1
 428 0 l 1,27,-1
EndSplineSet
EndChar

StartChar: at
Encoding: 64 64 35
Width: 1661
GlyphClass: 1
Flags: W
LayerCount: 2
Fore
SplineSet
1563 509 m 0,0,1
 1522 293 1522 293 1396 136 c 128,-1,2
 1270 -21 1270 -21 1067 -21 c 0,3,4
 999 -21 999 -21 956 24.5 c 128,-1,5
 913 70 913 70 905 152 c 1,6,7
 848 66 848 66 778.5 23 c 128,-1,8
 709 -20 709 -20 627 -20 c 0,9,10
 511 -20 511 -20 462 101 c 128,-1,11
 413 222 413 222 459 416 c 0,12,13
 519 671 519 671 647.5 825.5 c 128,-1,14
 776 980 776 980 927 980 c 0,15,16
 1020 980 1020 980 1078 953 c 128,-1,17
 1136 926 1136 926 1197 873 c 1,18,-1
 1194 870 l 1,19,-1
 1199 870 l 1,20,-1
 1066 293 l 2,21,22
 1041 178 1041 178 1059.5 135.5 c 128,-1,23
 1078 93 1078 93 1116 100 c 1,24,-1
 1122 99 l 1,25,26
 1225 94 1225 94 1310.5 212 c 128,-1,27
 1396 330 1396 330 1430 509 c 0,28,29
 1502 885 1502 885 1391.5 1095 c 128,-1,30
 1281 1305 1281 1305 982 1305 c 0,31,32
 715 1305 715 1305 505.5 1075.5 c 128,-1,33
 296 846 296 846 228 478 c 0,34,35
 156 108 156 108 274.5 -112.5 c 128,-1,36
 393 -333 393 -333 675 -333 c 0,37,38
 751 -333 751 -333 837 -312 c 128,-1,39
 923 -291 923 -291 983 -257 c 1,40,-1
 1001 -364 l 1,41,42
 935 -406 935 -406 838.5 -429.5 c 128,-1,43
 742 -453 742 -453 654 -453 c 0,44,45
 318 -453 318 -453 160 -201 c 128,-1,46
 2 51 2 51 81 478 c 0,47,48
 162 903 162 903 411 1162.5 c 128,-1,49
 660 1422 660 1422 1003 1422 c 0,50,51
 1336 1422 1336 1422 1488 1174.5 c 128,-1,52
 1640 927 1640 927 1563 509 c 0,0,1
628 416 m 0,53,54
 596 274 596 274 613 194.5 c 128,-1,55
 630 115 630 115 697 115 c 0,56,57
 752 115 752 115 805.5 147 c 128,-1,58
 859 179 859 179 909 261 c 0,59,60
 909 268 909 268 910.5 276 c 128,-1,61
 912 284 912 284 915 293 c 2,62,-1
 1038 828 l 1,63,64
 1016 839 1016 839 991 846 c 128,-1,65
 966 853 966 853 938 853 c 0,66,67
 834 853 834 853 756 742.5 c 128,-1,68
 678 632 678 632 628 416 c 0,53,54
EndSplineSet
EndChar

StartChar: A
Encoding: 65 65 36
Width: 1127
GlyphClass: 1
Flags: W
LayerCount: 2
Fore
SplineSet
759 368 m 1,0,-1
 323 368 l 1,1,-1
 163 0 l 1,2,-1
 -48 0 l 1,3,-1
 607 1456 l 1,4,-1
 804 1456 l 1,5,-1
 1019 0 l 1,6,-1
 808 0 l 1,7,-1
 759 368 l 1,0,-1
394 529 m 1,8,-1
 737 529 l 1,9,-1
 658 1121 l 1,10,-1
 653 1122 l 1,11,-1
 394 529 l 1,8,-1
EndSplineSet
Substitution2: "'smcp' Lowercase to Small Capitals lookup 0 subtable" A.smcp
EndChar

StartChar: B
Encoding: 66 66 37
Width: 1130
GlyphClass: 1
Flags: W
LayerCount: 2
Fore
SplineSet
59 0 m 1,0,-1
 277 1456 l 1,1,-1
 680 1456 l 2,2,3
 881 1456 881 1456 987.5 1357 c 128,-1,4
 1094 1258 1094 1258 1066 1064 c 0,5,6
 1049 958 1049 958 987.5 880.5 c 128,-1,7
 926 803 926 803 830 767 c 1,8,9
 953 745 953 745 1005.5 646 c 128,-1,10
 1058 547 1058 547 1039 412 c 0,11,12
 1007 203 1007 203 878 101.5 c 128,-1,13
 749 0 749 0 543 0 c 2,14,-1
 59 0 l 1,0,-1
364 679 m 1,15,-1
 285 154 l 1,16,-1
 566 154 l 2,17,18
 672 154 672 154 744 221 c 128,-1,19
 816 288 816 288 835 411 c 0,20,21
 853 535 853 535 805.5 605 c 128,-1,22
 758 675 758 675 652 679 c 1,23,-1
 641 679 l 1,24,-1
 364 679 l 1,15,-1
386 825 m 1,25,-1
 607 825 l 2,26,27
 706 825 706 825 775 886 c 128,-1,28
 844 947 844 947 861 1060 c 0,29,30
 880 1185 880 1185 828 1242.5 c 128,-1,31
 776 1300 776 1300 657 1300 c 2,32,-1
 457 1300 l 1,33,-1
 386 825 l 1,25,-1
EndSplineSet
Substitution2: "'smcp' Lowercase to Small Capitals lookup 0 subtable" B.smcp
EndChar

StartChar: C
Encoding: 67 67 38
Width: 1133
GlyphClass: 1
Flags: W
LayerCount: 2
Fore
SplineSet
1035 438 m 1,0,-1
 1037 432 l 1,1,2
 1007 208 1007 208 867.5 93.5 c 128,-1,3
 728 -21 728 -21 508 -21 c 0,4,5
 292 -21 292 -21 176.5 124 c 128,-1,6
 61 269 61 269 100 525 c 2,7,-1
 160 929 l 2,8,9
 200 1197 200 1197 351 1337 c 128,-1,10
 502 1477 502 1477 726 1477 c 0,11,12
 941 1477 941 1477 1052.5 1360 c 128,-1,13
 1164 1243 1164 1243 1127 1023 c 1,14,-1
 1125 1018 l 1,15,-1
 929 1018 l 1,16,17
 953 1181 953 1181 896.5 1251 c 128,-1,18
 840 1321 840 1321 702 1321 c 0,19,20
 573 1321 573 1321 482 1219.5 c 128,-1,21
 391 1118 391 1118 364 932 c 2,22,-1
 303 525 l 2,23,24
 273 327 273 327 332.5 230 c 128,-1,25
 392 133 392 133 531 133 c 0,26,27
 658 133 658 133 737 206.5 c 128,-1,28
 816 280 816 280 841 438 c 1,29,-1
 1035 438 l 1,0,-1
EndSplineSet
Substitution2: "'smcp' Lowercase to Small Capitals lookup 0 subtable" C.smcp
EndChar

StartChar: D
Encoding: 68 68 39
Width: 1191
GlyphClass: 1
Flags: W
LayerCount: 2
Fore
SplineSet
59 0 m 1,0,-1
 277 1456 l 1,1,-1
 690 1456 l 2,2,3
 917 1456 917 1456 1044.5 1279 c 128,-1,4
 1172 1102 1172 1102 1132 831 c 2,5,-1
 1101 624 l 2,6,7
 1057 338 1057 338 884 169 c 128,-1,8
 711 0 711 0 472 0 c 2,9,-1
 59 0 l 1,0,-1
456 1300 m 1,10,-1
 285 154 l 1,11,-1
 495 154 l 2,12,13
 639 154 639 154 752 287 c 128,-1,14
 865 420 865 420 896 624 c 2,15,-1
 927 833 l 2,16,17
 958 1045 958 1045 888.5 1172.5 c 128,-1,18
 819 1300 819 1300 667 1300 c 2,19,-1
 456 1300 l 1,10,-1
EndSplineSet
Substitution2: "'smcp' Lowercase to Small Capitals lookup 0 subtable" D.smcp
EndChar

StartChar: E
Encoding: 69 69 40
Width: 989
GlyphClass: 1
Flags: W
LayerCount: 2
Fore
SplineSet
857 676 m 1,0,-1
 363 676 l 1,1,-1
 285 154 l 1,2,-1
 867 154 l 1,3,-1
 844 0 l 1,4,-1
 59 0 l 1,5,-1
 277 1456 l 1,6,-1
 1057 1456 l 1,7,-1
 1034 1300 l 1,8,-1
 456 1300 l 1,9,-1
 386 831 l 1,10,-1
 881 831 l 1,11,-1
 857 676 l 1,0,-1
EndSplineSet
Substitution2: "'smcp' Lowercase to Small Capitals lookup 0 subtable" E.smcp
EndChar

StartChar: F
Encoding: 70 70 41
Width: 988
GlyphClass: 1
Flags: W
LayerCount: 2
Fore
SplineSet
868 647 m 1,0,-1
 359 647 l 1,1,-1
 262 0 l 1,2,-1
 59 0 l 1,3,-1
 277 1456 l 1,4,-1
 1077 1456 l 1,5,-1
 1054 1300 l 1,6,-1
 456 1300 l 1,7,-1
 382 802 l 1,8,-1
 891 802 l 1,9,-1
 868 647 l 1,0,-1
EndSplineSet
Substitution2: "'smcp' Lowercase to Small Capitals lookup 0 subtable" F.smcp
EndChar

StartChar: G
Encoding: 71 71 42
Width: 1198
GlyphClass: 1
Flags: W
LayerCount: 2
Fore
SplineSet
1017 190 m 1,0,1
 952 107 952 107 829 43 c 128,-1,2
 706 -21 706 -21 527 -21 c 0,3,4
 307 -21 307 -21 184 119.5 c 128,-1,5
 61 260 61 260 100 514 c 2,6,-1
 165 946 l 2,7,8
 204 1209 204 1209 358 1343 c 128,-1,9
 512 1477 512 1477 739 1477 c 0,10,11
 952 1477 952 1477 1058.5 1362 c 128,-1,12
 1165 1247 1165 1247 1132 1050 c 1,13,-1
 1130 1045 l 1,14,-1
 938 1045 l 1,15,16
 958 1181 958 1181 902.5 1251 c 128,-1,17
 847 1321 847 1321 719 1321 c 0,18,19
 587 1321 587 1321 491.5 1224.5 c 128,-1,20
 396 1128 396 1128 369 948 c 2,21,-1
 304 514 l 2,22,23
 275 320 275 320 341.5 226.5 c 128,-1,24
 408 133 408 133 550 133 c 0,25,26
 649 133 649 133 718 165.5 c 128,-1,27
 787 198 787 198 820 243 c 1,28,-1
 871 582 l 1,29,-1
 603 582 l 1,30,-1
 626 730 l 1,31,-1
 1098 730 l 1,32,-1
 1017 190 l 1,0,1
EndSplineSet
Substitution2: "'smcp' Lowercase to Small Capitals lookup 0 subtable" G.smcp
EndChar

StartChar: H
Encoding: 72 72 43
Width: 1254
GlyphClass: 1
Flags: W
LayerCount: 2
Fore
SplineSet
1035 0 m 1,0,-1
 832 0 l 1,1,-1
 928 642 l 1,2,-1
 358 642 l 1,3,-1
 262 0 l 1,4,-1
 59 0 l 1,5,-1
 277 1456 l 1,6,-1
 480 1456 l 1,7,-1
 381 797 l 1,8,-1
 951 797 l 1,9,-1
 1050 1456 l 1,10,-1
 1253 1456 l 1,11,-1
 1035 0 l 1,0,-1
EndSplineSet
Substitution2: "'smcp' Lowercase to Small Capitals lookup 0 subtable" H.smcp
EndChar

StartChar: I
Encoding: 73 73 44
Width: 518
GlyphClass: 1
Flags: W
LayerCount: 2
Fore
SplineSet
280 0 m 1,0,-1
 77 0 l 1,1,-1
 295 1456 l 1,2,-1
 498 1456 l 1,3,-1
 280 0 l 1,0,-1
EndSplineSet
Substitution2: "'smcp' Lowercase to Small Capitals lookup 0 subtable" I.smcp
EndChar

StartChar: J
Encoding: 74 74 45
Width: 985
GlyphClass: 1
Flags: W
LayerCount: 2
Fore
SplineSet
783 1456 m 1,0,-1
 987 1456 l 1,1,-1
 834 431 l 2,2,3
 801 216 801 216 675 97.5 c 128,-1,4
 549 -21 549 -21 373 -21 c 0,5,6
 193 -21 193 -21 97 89.5 c 128,-1,7
 1 200 1 200 33 410 c 1,8,-1
 236 410 l 1,9,10
 213 264 213 264 256.5 198.5 c 128,-1,11
 300 133 300 133 396 133 c 0,12,13
 476 133 476 133 542.5 214 c 128,-1,14
 609 295 609 295 630 431 c 2,15,-1
 783 1456 l 1,0,-1
EndSplineSet
Substitution2: "'smcp' Lowercase to Small Capitals lookup 0 subtable" J.smcp
EndChar

StartChar: K
Encoding: 75 75 46
Width: 1078
GlyphClass: 1
Flags: W
LayerCount: 2
Fore
SplineSet
447 654 m 1,0,-1
 351 654 l 1,1,-1
 253 0 l 1,2,-1
 49 0 l 1,3,-1
 267 1456 l 1,4,-1
 471 1456 l 1,5,-1
 376 824 l 1,6,-1
 480 824 l 1,7,-1
 912 1456 l 1,8,-1
 1175 1456 l 1,9,-1
 622 733 l 1,10,-1
 975 0 l 1,11,-1
 741 0 l 1,12,-1
 447 654 l 1,0,-1
EndSplineSet
Substitution2: "'smcp' Lowercase to Small Capitals lookup 0 subtable" K.smcp
EndChar

StartChar: L
Encoding: 76 76 47
Width: 987
GlyphClass: 1
Flags: W
LayerCount: 2
Fore
SplineSet
285 154 m 1,0,-1
 874 154 l 1,1,-1
 851 0 l 1,2,-1
 59 0 l 1,3,-1
 277 1456 l 1,4,-1
 480 1456 l 1,5,-1
 285 154 l 1,0,-1
EndSplineSet
Substitution2: "'smcp' Lowercase to Small Capitals lookup 0 subtable" L.smcp
EndChar

StartChar: M
Encoding: 77 77 48
Width: 1494
GlyphClass: 1
Flags: W
LayerCount: 2
Fore
SplineSet
706 269 m 1,0,-1
 712 268 l 1,1,-1
 1239 1456 l 1,2,-1
 1499 1456 l 1,3,-1
 1281 0 l 1,4,-1
 1079 0 l 1,5,-1
 1236 1048 l 1,6,-1
 1230 1050 l 1,7,-1
 739 0 l 1,8,-1
 600 0 l 1,9,-1
 420 1066 l 1,10,-1
 414 1066 l 1,11,-1
 255 0 l 1,12,-1
 53 0 l 1,13,-1
 271 1456 l 1,14,-1
 536 1456 l 1,15,-1
 706 269 l 1,0,-1
EndSplineSet
Substitution2: "'smcp' Lowercase to Small Capitals lookup 0 subtable" M.smcp
EndChar

StartChar: N
Encoding: 78 78 49
Width: 1255
GlyphClass: 1
Flags: W
LayerCount: 2
Fore
SplineSet
1036 0 m 1,0,-1
 832 0 l 1,1,-1
 428 1074 l 1,2,-1
 422 1073 l 1,3,-1
 262 0 l 1,4,-1
 59 0 l 1,5,-1
 277 1456 l 1,6,-1
 480 1456 l 1,7,-1
 884 385 l 1,8,-1
 890 386 l 1,9,-1
 1050 1456 l 1,10,-1
 1254 1456 l 1,11,-1
 1036 0 l 1,0,-1
EndSplineSet
Substitution2: "'smcp' Lowercase to Small Capitals lookup 0 subtable" N.smcp
EndChar

StartChar: O
Encoding: 79 79 50
Width: 1218
GlyphClass: 1
Flags: W
LayerCount: 2
Fore
SplineSet
1118 527 m 2,0,1
 1077 258 1077 258 918.5 118.5 c 128,-1,2
 760 -21 760 -21 521 -21 c 0,3,4
 298 -21 298 -21 178 124.5 c 128,-1,5
 58 270 58 270 97 527 c 2,6,-1
 157 927 l 2,7,8
 197 1196 197 1196 354 1336.5 c 128,-1,9
 511 1477 511 1477 745 1477 c 0,10,11
 972 1477 972 1477 1094 1330 c 128,-1,12
 1216 1183 1216 1183 1178 927 c 2,13,-1
 1118 527 l 2,0,1
977 930 m 2,14,15
 1006 1128 1006 1128 940 1222.5 c 128,-1,16
 874 1317 874 1317 721 1317 c 0,17,18
 580 1317 580 1317 483.5 1217.5 c 128,-1,19
 387 1118 387 1118 360 930 c 2,20,-1
 299 527 l 2,21,22
 268 327 268 327 332.5 232 c 128,-1,23
 397 137 397 137 545 137 c 0,24,25
 690 137 690 137 788.5 236.5 c 128,-1,26
 887 336 887 336 916 527 c 2,27,-1
 977 930 l 2,14,15
EndSplineSet
Substitution2: "'smcp' Lowercase to Small Capitals lookup 0 subtable" O.smcp
EndChar

StartChar: P
Encoding: 80 80 51
Width: 1130
GlyphClass: 1
Flags: W
LayerCount: 2
Fore
SplineSet
348 574 m 1,0,-1
 262 0 l 1,1,-1
 59 0 l 1,2,-1
 277 1456 l 1,3,-1
 750 1456 l 2,4,5
 949 1456 949 1456 1052 1333 c 128,-1,6
 1155 1210 1155 1210 1126 1015 c 0,7,8
 1095 808 1095 808 961 691 c 128,-1,9
 827 574 827 574 618 574 c 2,10,-1
 348 574 l 1,0,-1
371 730 m 1,11,-1
 642 730 l 2,12,13
 756 730 756 730 831 811.5 c 128,-1,14
 906 893 906 893 924 1013 c 0,15,16
 943 1141 943 1141 895 1220.5 c 128,-1,17
 847 1300 847 1300 727 1300 c 2,18,-1
 457 1300 l 1,19,-1
 371 730 l 1,11,-1
EndSplineSet
Substitution2: "'smcp' Lowercase to Small Capitals lookup 0 subtable" P.smcp
EndChar

StartChar: Q
Encoding: 81 81 52
Width: 1244
GlyphClass: 1
Flags: W
LayerCount: 2
Fore
SplineSet
1118 527 m 2,0,1
 1100 415 1100 415 1062.5 325 c 128,-1,2
 1025 235 1025 235 968 169 c 1,3,-1
 1117 -29 l 1,4,-1
 964 -146 l 1,5,-1
 816 47 l 1,6,7
 752 12 752 12 678 -4.5 c 128,-1,8
 604 -21 604 -21 521 -21 c 0,9,10
 298 -21 298 -21 178 124.5 c 128,-1,11
 58 270 58 270 97 527 c 2,12,-1
 157 927 l 2,13,14
 197 1196 197 1196 354 1336.5 c 128,-1,15
 511 1477 511 1477 745 1477 c 0,16,17
 972 1477 972 1477 1094 1330 c 128,-1,18
 1216 1183 1216 1183 1178 927 c 2,19,-1
 1118 527 l 2,0,1
977 930 m 2,20,21
 1006 1128 1006 1128 940 1222.5 c 128,-1,22
 874 1317 874 1317 721 1317 c 0,23,24
 580 1317 580 1317 483.5 1217.5 c 128,-1,25
 387 1118 387 1118 360 930 c 2,26,-1
 299 527 l 2,27,28
 268 327 268 327 332.5 232 c 128,-1,29
 397 137 397 137 545 137 c 0,30,31
 690 137 690 137 788.5 236.5 c 128,-1,32
 887 336 887 336 916 527 c 2,33,-1
 977 930 l 2,20,21
EndSplineSet
Substitution2: "'smcp' Lowercase to Small Capitals lookup 0 subtable" Q.smcp
EndChar

StartChar: R
Encoding: 82 82 53
Width: 1138
GlyphClass: 1
Flags: W
LayerCount: 2
Fore
SplineSet
355 627 m 1,0,-1
 261 0 l 1,1,-1
 58 0 l 1,2,-1
 276 1455 l 1,3,-1
 705 1455 l 2,4,5
 907 1455 907 1455 1009.5 1347 c 128,-1,6
 1112 1239 1112 1239 1082 1041 c 0,7,8
 1064 922 1064 922 998 837.5 c 128,-1,9
 932 753 932 753 824 707 c 1,10,11
 927 669 927 669 965 580.5 c 128,-1,12
 1003 492 1003 492 985 365 c 2,13,-1
 966 238 l 2,14,15
 955 169 955 169 960 112.5 c 128,-1,16
 965 56 965 56 992 23 c 1,17,-1
 989 0 l 1,18,-1
 780 0 l 1,19,20
 751 33 751 33 750.5 101 c 128,-1,21
 750 169 750 169 761 240 c 2,22,-1
 779 363 l 2,23,24
 798 489 798 489 752.5 558 c 128,-1,25
 707 627 707 627 606 627 c 2,26,-1
 355 627 l 1,0,-1
378 782 m 1,27,-1
 594 782 l 2,28,29
 715 782 715 782 787.5 849.5 c 128,-1,30
 860 917 860 917 879 1037 c 0,31,32
 898 1166 898 1166 850 1233 c 128,-1,33
 802 1300 802 1300 682 1300 c 2,34,-1
 456 1300 l 1,35,-1
 378 782 l 1,27,-1
EndSplineSet
Substitution2: "'smcp' Lowercase to Small Capitals lookup 0 subtable" R.smcp
EndChar

StartChar: S
Encoding: 83 83 54
Width: 1088
GlyphClass: 1
Flags: W
LayerCount: 2
Fore
SplineSet
797 333 m 0,0,1
 813 446 813 446 760.5 513.5 c 128,-1,2
 708 581 708 581 559 647 c 1,3,4
 351 723 351 723 257.5 827.5 c 128,-1,5
 164 932 164 932 192 1120 c 0,6,7
 217 1288 217 1288 344.5 1382.5 c 128,-1,8
 472 1477 472 1477 653 1477 c 0,9,10
 857 1477 857 1477 969.5 1358.5 c 128,-1,11
 1082 1240 1082 1240 1047 1034 c 1,12,-1
 1045 1029 l 1,13,-1
 849 1029 l 1,14,15
 868 1159 868 1159 807.5 1240 c 128,-1,16
 747 1321 747 1321 629 1321 c 0,17,18
 540 1321 540 1321 474 1263 c 128,-1,19
 408 1205 408 1205 396 1122 c 0,20,21
 378 1005 378 1005 429.5 942 c 128,-1,22
 481 879 481 879 646 809 c 1,23,24
 848 732 848 732 938 627.5 c 128,-1,25
 1028 523 1028 523 1000 335 c 0,26,27
 973 161 973 161 844.5 70 c 128,-1,28
 716 -21 716 -21 528 -21 c 0,29,30
 327 -21 327 -21 191.5 86 c 128,-1,31
 56 193 56 193 94 419 c 1,32,-1
 97 425 l 1,33,-1
 291 425 l 1,34,35
 267 266 267 266 348 199.5 c 128,-1,36
 429 133 429 133 551 133 c 0,37,38
 640 133 640 133 712 190.5 c 128,-1,39
 784 248 784 248 797 333 c 0,0,1
EndSplineSet
Substitution2: "'smcp' Lowercase to Small Capitals lookup 0 subtable" S.smcp
EndChar

StartChar: T
Encoding: 84 84 55
Width: 1045
GlyphClass: 1
Flags: W
LayerCount: 2
Fore
SplineSet
1125 1300 m 1,0,-1
 738 1300 l 1,1,-1
 544 0 l 1,2,-1
 340 0 l 1,3,-1
 534 1300 l 1,4,-1
 152 1300 l 1,5,-1
 175 1456 l 1,6,-1
 1148 1456 l 1,7,-1
 1125 1300 l 1,0,-1
EndSplineSet
Substitution2: "'smcp' Lowercase to Small Capitals lookup 0 subtable" T.smcp
EndChar

StartChar: U
Encoding: 85 85 56
Width: 1213
GlyphClass: 1
Flags: W
LayerCount: 2
Fore
SplineSet
1230 1456 m 1,0,-1
 1086 493 l 2,1,2
 1048 242 1048 242 894 110.5 c 128,-1,3
 740 -21 740 -21 520 -21 c 0,4,5
 315 -21 315 -21 198 116.5 c 128,-1,6
 81 254 81 254 117 493 c 2,7,-1
 261 1456 l 1,8,-1
 464 1456 l 1,9,-1
 320 493 l 2,10,11
 293 318 293 318 355.5 225.5 c 128,-1,12
 418 133 418 133 543 133 c 0,13,14
 666 133 666 133 761 229 c 128,-1,15
 856 325 856 325 882 493 c 2,16,-1
 1026 1456 l 1,17,-1
 1230 1456 l 1,0,-1
EndSplineSet
Substitution2: "'smcp' Lowercase to Small Capitals lookup 0 subtable" U.smcp
EndChar

StartChar: V
Encoding: 86 86 57
Width: 1127
GlyphClass: 1
Flags: W
LayerCount: 2
Fore
SplineSet
509 334 m 1,0,-1
 517 245 l 1,1,-1
 523 244 l 1,2,-1
 557 333 l 1,3,-1
 1028 1456 l 1,4,-1
 1245 1456 l 1,5,-1
 582 0 l 1,6,-1
 384 0 l 1,7,-1
 158 1456 l 1,8,-1
 374 1456 l 1,9,-1
 509 334 l 1,0,-1
EndSplineSet
Substitution2: "'smcp' Lowercase to Small Capitals lookup 0 subtable" V.smcp
EndChar

StartChar: W
Encoding: 87 87 58
Width: 1553
GlyphClass: 1
Flags: W
LayerCount: 2
Fore
SplineSet
1094 422 m 1,0,-1
 1100 421 l 1,1,-1
 1444 1456 l 1,2,-1
 1657 1456 l 1,3,-1
 1140 0 l 1,4,-1
 953 0 l 1,5,-1
 853 1032 l 1,6,-1
 847 1033 l 1,7,-1
 438 0 l 1,8,-1
 251 0 l 1,9,-1
 170 1456 l 1,10,-1
 384 1456 l 1,11,-1
 419 425 l 1,12,-1
 425 424 l 1,13,-1
 825 1456 l 1,14,-1
 1002 1456 l 1,15,-1
 1094 422 l 1,0,-1
EndSplineSet
Substitution2: "'smcp' Lowercase to Small Capitals lookup 0 subtable" W.smcp
EndChar

StartChar: X
Encoding: 88 88 59
Width: 1127
GlyphClass: 1
Flags: W
LayerCount: 2
Fore
SplineSet
613 888 m 1,0,-1
 619 887 l 1,1,-1
 971 1456 l 1,2,-1
 1211 1456 l 1,3,-1
 717 735 l 1,4,-1
 1009 0 l 1,5,-1
 765 0 l 1,6,-1
 576 581 l 1,7,-1
 570 582 l 1,8,-1
 208 0 l 1,9,-1
 -33 0 l 1,10,-1
 473 735 l 1,11,-1
 195 1456 l 1,12,-1
 433 1456 l 1,13,-1
 613 888 l 1,0,-1
EndSplineSet
Substitution2: "'smcp' Lowercase to Small Capitals lookup 0 subtable" X.smcp
EndChar

StartChar: Y
Encoding: 89 89 60
Width: 1127
GlyphClass: 1
Flags: W
LayerCount: 2
Fore
SplineSet
591 746 m 1,0,-1
 597 746 l 1,1,-1
 1007 1456 l 1,2,-1
 1235 1456 l 1,3,-1
 659 525 l 1,4,-1
 580 0 l 1,5,-1
 377 0 l 1,6,-1
 458 538 l 1,7,-1
 166 1456 l 1,8,-1
 392 1456 l 1,9,-1
 591 746 l 1,0,-1
EndSplineSet
Substitution2: "'smcp' Lowercase to Small Capitals lookup 0 subtable" Y.smcp
EndChar

StartChar: Z
Encoding: 90 90 61
Width: 999
GlyphClass: 1
Flags: W
LayerCount: 2
Fore
SplineSet
253 154 m 1,0,-1
 881 154 l 1,1,-1
 858 0 l 1,2,-1
 21 0 l 1,3,-1
 17 125 l 1,4,-1
 743 1301 l 1,5,-1
 187 1301 l 1,6,-1
 210 1456 l 1,7,-1
 1001 1456 l 1,8,-1
 983 1335 l 1,9,-1
 253 154 l 1,0,-1
EndSplineSet
Substitution2: "'smcp' Lowercase to Small Capitals lookup 0 subtable" Z.smcp
EndChar

StartChar: bracketleft
Encoding: 91 91 62
Width: 507
GlyphClass: 1
Flags: W
LayerCount: 2
Fore
SplineSet
624 1519 m 1,0,-1
 472 1519 l 1,1,-1
 236 -167 l 1,2,-1
 388 -167 l 1,3,-1
 366 -319 l 1,4,-1
 8 -319 l 1,5,-1
 287 1672 l 1,6,-1
 645 1672 l 1,7,-1
 624 1519 l 1,0,-1
EndSplineSet
EndChar

StartChar: backslash
Encoding: 92 92 63
Width: 745
GlyphClass: 1
Flags: W
LayerCount: 2
Fore
SplineSet
163 1456 m 1,0,-1
 360 1456 l 1,1,-1
 646 -125 l 1,2,-1
 448 -125 l 1,3,-1
 163 1456 l 1,0,-1
EndSplineSet
EndChar

StartChar: bracketright
Encoding: 93 93 64
Width: 507
GlyphClass: 1
Flags: W
LayerCount: 2
Fore
SplineSet
174 1672 m 1,0,-1
 533 1672 l 1,1,-1
 254 -319 l 1,2,-1
 -105 -319 l 1,3,-1
 -83 -167 l 1,4,-1
 70 -167 l 1,5,-1
 306 1519 l 1,6,-1
 153 1519 l 1,7,-1
 174 1672 l 1,0,-1
EndSplineSet
EndChar

StartChar: asciicircum
Encoding: 94 94 65
Width: 767
GlyphClass: 1
Flags: W
LayerCount: 2
Fore
SplineSet
254 729 m 1,0,-1
 82 729 l 1,1,-1
 448 1456 l 1,2,-1
 594 1456 l 1,3,-1
 741 729 l 1,4,-1
 570 729 l 1,5,-1
 491 1173 l 1,6,-1
 488 1224 l 1,7,-1
 482 1225 l 1,8,-1
 463 1173 l 1,9,-1
 254 729 l 1,0,-1
EndSplineSet
EndChar

StartChar: underscore
Encoding: 95 95 66
Width: 802
GlyphClass: 1
Flags: W
LayerCount: 2
Fore
SplineSet
689 -152 m 1,0,-1
 -95 -152 l 1,1,-1
 -72 0 l 1,2,-1
 712 0 l 1,3,-1
 689 -152 l 1,0,-1
EndSplineSet
EndChar

StartChar: grave
Encoding: 96 96 67
Width: 596
GlyphClass: 1
Flags: W
LayerCount: 2
Fore
SplineSet
579 1252 m 1,0,-1
 402 1252 l 1,1,-1
 203 1518 l 1,2,-1
 445 1518 l 1,3,-1
 579 1252 l 1,0,-1
EndSplineSet
EndChar

StartChar: a
Encoding: 97 97 68
Width: 967
GlyphClass: 1
Flags: W
LayerCount: 2
Fore
SplineSet
599 0 m 1,0,1
 593 46 593 46 591.5 86 c 128,-1,2
 590 126 590 126 594 165 c 1,3,4
 539 85 539 85 460.5 32 c 128,-1,5
 382 -21 382 -21 292 -21 c 0,6,7
 153 -21 153 -21 85.5 65.5 c 128,-1,8
 18 152 18 152 40 300 c 0,9,10
 63 458 63 458 182.5 543.5 c 128,-1,11
 302 629 302 629 496 629 c 2,12,-1
 662 629 l 1,13,-1
 679 740 l 2,14,15
 694 843 694 843 659 896.5 c 128,-1,16
 624 950 624 950 541 950 c 0,17,18
 470 950 470 950 417.5 901.5 c 128,-1,19
 365 853 365 853 354 779 c 1,20,-1
 160 778 l 1,21,-1
 159 784 l 1,22,23
 172 914 172 914 289 1008 c 128,-1,24
 406 1102 406 1102 576 1102 c 0,25,26
 732 1102 732 1102 820 1007 c 128,-1,27
 908 912 908 912 883 738 c 2,28,-1
 807 236 l 2,29,30
 797 172 797 172 796.5 115 c 128,-1,31
 796 58 796 58 805 0 c 1,32,-1
 599 0 l 1,0,1
357 135 m 0,33,34
 437 135 437 135 510 187.5 c 128,-1,35
 583 240 583 240 615 312 c 1,36,-1
 643 503 l 1,37,-1
 474 503 l 2,38,39
 384 503 384 503 320 442.5 c 128,-1,40
 256 382 256 382 244 300 c 0,41,42
 232 222 232 222 261.5 178.5 c 128,-1,43
 291 135 291 135 357 135 c 0,33,34
EndSplineSet
Substitution2: "'smcp' Lowercase to Small Capitals lookup 0 subtable" A.smcp
EndChar

StartChar: b
Encoding: 98 98 69
Width: 1008
GlyphClass: 1
Flags: W
LayerCount: 2
Fore
SplineSet
926 507 m 2,0,1
 888 258 888 258 773.5 118.5 c 128,-1,2
 659 -21 659 -21 485 -21 c 0,3,4
 399 -21 399 -21 340 20 c 128,-1,5
 281 61 281 61 248 139 c 1,6,-1
 204 0 l 1,7,-1
 37 0 l 1,8,-1
 271 1560 l 1,9,-1
 475 1560 l 1,10,-1
 386 965 l 1,11,12
 439 1031 439 1031 505 1066.5 c 128,-1,13
 571 1102 571 1102 652 1102 c 0,14,15
 820 1102 820 1102 893.5 943.5 c 128,-1,16
 967 785 967 785 929 528 c 2,17,-1
 926 507 l 2,0,1
725 528 m 2,18,19
 754 722 754 722 721.5 833 c 128,-1,20
 689 944 689 944 578 944 c 0,21,22
 510 944 510 944 454 902 c 128,-1,23
 398 860 398 860 359 789 c 1,24,-1
 283 280 l 1,25,26
 300 211 300 211 342.5 173.5 c 128,-1,27
 385 136 385 136 458 136 c 0,28,29
 563 136 563 136 629.5 237 c 128,-1,30
 696 338 696 338 722 507 c 2,31,-1
 725 528 l 2,18,19
EndSplineSet
Substitution2: "'smcp' Lowercase to Small Capitals lookup 0 subtable" B.smcp
EndChar

StartChar: c
Encoding: 99 99 70
Width: 927
GlyphClass: 1
Flags: W
LayerCount: 2
Fore
SplineSet
433 133 m 0,0,1
 505 133 505 133 565.5 191.5 c 128,-1,2
 626 250 626 250 641 348 c 1,3,-1
 823 348 l 1,4,-1
 826 342 l 1,5,6
 806 183 806 183 684.5 81 c 128,-1,7
 563 -21 563 -21 410 -21 c 0,8,9
 218 -21 218 -21 128 133.5 c 128,-1,10
 38 288 38 288 73 521 c 2,11,-1
 79 559 l 2,12,13
 115 803 115 803 245.5 952.5 c 128,-1,14
 376 1102 376 1102 578 1102 c 0,15,16
 734 1102 734 1102 822.5 991 c 128,-1,17
 911 880 911 880 885 703 c 1,18,-1
 694 703 l 1,19,20
 711 815 711 815 673 880.5 c 128,-1,21
 635 946 635 946 555 946 c 0,22,23
 446 946 446 946 376 834 c 128,-1,24
 306 722 306 722 282 559 c 2,25,-1
 276 521 l 2,26,27
 250 345 250 345 283.5 239 c 128,-1,28
 317 133 317 133 433 133 c 0,0,1
EndSplineSet
Substitution2: "'smcp' Lowercase to Small Capitals lookup 0 subtable" C.smcp
EndChar

StartChar: d
Encoding: 100 100 71
Width: 1008
GlyphClass: 1
Flags: W
LayerCount: 2
Fore
SplineSet
78 528 m 2,0,1
 118 797 118 797 235 949.5 c 128,-1,2
 352 1102 352 1102 526 1102 c 0,3,4
 602 1102 602 1102 657.5 1065 c 128,-1,5
 713 1028 713 1028 748 960 c 1,6,-1
 838 1560 l 1,7,-1
 1041 1560 l 1,8,-1
 807 0 l 1,9,-1
 639 0 l 1,10,-1
 638 130 l 1,11,12
 582 56 582 56 511.5 17.5 c 128,-1,13
 441 -21 441 -21 356 -21 c 0,14,15
 192 -21 192 -21 115.5 125 c 128,-1,16
 39 271 39 271 75 507 c 2,17,-1
 78 528 l 2,0,1
277 507 m 2,18,19
 250 330 250 330 286 233 c 128,-1,20
 322 136 322 136 431 136 c 0,21,22
 497 136 497 136 551 173.5 c 128,-1,23
 605 211 605 211 646 278 c 1,24,-1
 724 797 l 1,25,26
 704 865 704 865 662.5 904.5 c 128,-1,27
 621 944 621 944 554 944 c 0,28,29
 451 944 451 944 379 827 c 128,-1,30
 307 710 307 710 280 528 c 2,31,-1
 277 507 l 2,18,19
EndSplineSet
Substitution2: "'smcp' Lowercase to Small Capitals lookup 0 subtable" D.smcp
EndChar

StartChar: e
Encoding: 101 101 72
Width: 933
GlyphClass: 1
Flags: W
LayerCount: 2
Fore
SplineSet
425 -21 m 0,0,1
 231 -21 231 -21 135 128.5 c 128,-1,2
 39 278 39 278 74 512 c 2,3,-1
 81 559 l 2,4,5
 118 806 118 806 253 954 c 128,-1,6
 388 1102 388 1102 574 1102 c 0,7,8
 752 1102 752 1102 832 969.5 c 128,-1,9
 912 837 912 837 880 619 c 2,10,-1
 863 505 l 1,11,-1
 276 505 l 1,12,13
 251 333 251 333 294.5 233 c 128,-1,14
 338 133 338 133 462 133 c 0,15,16
 544 133 544 133 613 160 c 128,-1,17
 682 187 682 187 742 237 c 1,18,-1
 789 111 l 1,19,20
 726 55 726 55 632 17 c 128,-1,21
 538 -21 538 -21 425 -21 c 0,0,1
551 946 m 0,22,23
 466 946 466 946 401 864 c 128,-1,24
 336 782 336 782 307 654 c 1,25,-1
 309 649 l 1,26,-1
 684 649 l 1,27,-1
 688 672 l 2,28,29
 707 798 707 798 675 872 c 128,-1,30
 643 946 643 946 551 946 c 0,22,23
EndSplineSet
Substitution2: "'smcp' Lowercase to Small Capitals lookup 0 subtable" E.smcp
EndChar

StartChar: f
Encoding: 102 102 73
Width: 609
GlyphClass: 1
Flags: W
LayerCount: 2
Fore
SplineSet
105 0 m 1,0,-1
 245 937 l 1,1,-1
 103 937 l 1,2,-1
 124 1082 l 1,3,-1
 267 1082 l 1,4,-1
 288 1221 l 2,5,6
 315 1400 315 1400 411 1490.5 c 128,-1,7
 507 1581 507 1581 659 1581 c 0,8,9
 687 1581 687 1581 719 1575 c 128,-1,10
 751 1569 751 1569 786 1560 c 1,11,-1
 745 1411 l 1,12,13
 727 1416 727 1416 706 1419 c 128,-1,14
 685 1422 685 1422 660 1422 c 0,15,16
 595 1422 595 1422 550 1369.5 c 128,-1,17
 505 1317 505 1317 491 1221 c 2,18,-1
 470 1082 l 1,19,-1
 649 1082 l 1,20,-1
 628 937 l 1,21,-1
 448 937 l 1,22,-1
 308 0 l 1,23,-1
 105 0 l 1,0,-1
EndSplineSet
Substitution2: "'smcp' Lowercase to Small Capitals lookup 0 subtable" F.smcp
EndChar

StartChar: g
Encoding: 103 103 74
Width: 1008
GlyphClass: 1
Flags: W
LayerCount: 2
Fore
SplineSet
82 528 m 2,0,1
 122 798 122 798 239 950 c 128,-1,2
 356 1102 356 1102 531 1102 c 0,3,4
 613 1102 613 1102 671 1060 c 128,-1,5
 729 1018 729 1018 763 941 c 1,6,-1
 804 1082 l 1,7,-1
 974 1082 l 1,8,-1
 812 -2 l 2,9,10
 779 -218 779 -218 652.5 -327.5 c 128,-1,11
 526 -437 526 -437 322 -437 c 0,12,13
 256 -437 256 -437 179 -415.5 c 128,-1,14
 102 -394 102 -394 45 -359 c 1,15,-1
 101 -207 l 1,16,17
 152 -239 152 -239 213.5 -256 c 128,-1,18
 275 -273 275 -273 345 -273 c 0,19,20
 454 -273 454 -273 520.5 -204.5 c 128,-1,21
 587 -136 587 -136 608 -1 c 2,22,-1
 624 106 l 1,23,24
 571 43 571 43 505.5 11 c 128,-1,25
 440 -21 440 -21 361 -21 c 0,26,27
 197 -21 197 -21 120 125 c 128,-1,28
 43 271 43 271 79 507 c 2,29,-1
 82 528 l 2,0,1
283 507 m 2,30,31
 256 330 256 330 291 233 c 128,-1,32
 326 136 326 136 436 136 c 0,33,34
 502 136 502 136 555.5 172.5 c 128,-1,35
 609 209 609 209 649 275 c 1,36,-1
 728 803 l 1,37,38
 709 868 709 868 667.5 906 c 128,-1,39
 626 944 626 944 559 944 c 0,40,41
 456 944 456 944 384.5 827 c 128,-1,42
 313 710 313 710 286 528 c 2,43,-1
 283 507 l 2,30,31
EndSplineSet
Substitution2: "'smcp' Lowercase to Small Capitals lookup 0 subtable" G.smcp
EndChar

StartChar: h
Encoding: 104 104 75
Width: 1008
GlyphClass: 1
Flags: W
LayerCount: 2
Fore
SplineSet
379 943 m 1,0,1
 436 1019 436 1019 509.5 1060.5 c 128,-1,2
 583 1102 583 1102 666 1102 c 0,3,4
 808 1102 808 1102 877 993 c 128,-1,5
 946 884 946 884 913 662 c 2,6,-1
 814 0 l 1,7,-1
 610 0 l 1,8,-1
 710 664 l 2,9,10
 732 819 732 819 699.5 881.5 c 128,-1,11
 667 944 667 944 582 944 c 0,12,13
 514 944 514 944 457.5 908 c 128,-1,14
 401 872 401 872 359 809 c 1,15,-1
 238 0 l 1,16,-1
 34 0 l 1,17,-1
 268 1560 l 1,18,-1
 472 1560 l 1,19,-1
 379 943 l 1,0,1
EndSplineSet
Substitution2: "'smcp' Lowercase to Small Capitals lookup 0 subtable" H.smcp
EndChar

StartChar: i
Encoding: 105 105 76
Width: 465
GlyphClass: 1
Flags: W
LayerCount: 2
Fore
SplineSet
254 0 m 1,0,-1
 50 0 l 1,1,-1
 212 1082 l 1,2,-1
 416 1082 l 1,3,-1
 254 0 l 1,0,-1
459 1366 m 1,4,-1
 255 1366 l 1,5,-1
 284 1560 l 1,6,-1
 488 1560 l 1,7,-1
 459 1366 l 1,4,-1
EndSplineSet
Substitution2: "'smcp' Lowercase to Small Capitals lookup 0 subtable" I.smcp
EndChar

StartChar: j
Encoding: 106 106 77
Width: 470
GlyphClass: 1
Flags: W
LayerCount: 2
Fore
SplineSet
424 1082 m 1,0,-1
 251 -74 l 2,1,2
 223 -255 223 -255 130.5 -346 c 128,-1,3
 38 -437 38 -437 -106 -437 c 0,4,5
 -134 -437 -134 -437 -159 -432.5 c 128,-1,6
 -184 -428 -184 -428 -211 -419 c 1,7,-1
 -176 -264 l 1,8,9
 -160 -270 -160 -270 -139.5 -274 c 128,-1,10
 -119 -278 -119 -278 -102 -278 c 0,11,12
 -48 -278 -48 -278 -8 -227 c 128,-1,13
 32 -176 32 -176 48 -74 c 2,14,-1
 221 1082 l 1,15,-1
 424 1082 l 1,0,-1
462 1369 m 1,16,-1
 258 1369 l 1,17,-1
 287 1560 l 1,18,-1
 491 1560 l 1,19,-1
 462 1369 l 1,16,-1
EndSplineSet
Substitution2: "'smcp' Lowercase to Small Capitals lookup 0 subtable" J.smcp
EndChar

StartChar: k
Encoding: 107 107 78
Width: 933
GlyphClass: 1
Flags: W
LayerCount: 2
Fore
SplineSet
391 496 m 1,0,-1
 315 496 l 1,1,-1
 241 0 l 1,2,-1
 38 0 l 1,3,-1
 272 1560 l 1,4,-1
 475 1560 l 1,5,-1
 338 651 l 1,6,-1
 410 651 l 1,7,-1
 734 1082 l 1,8,-1
 966 1082 l 1,9,-1
 969 1077 l 1,10,-1
 569 591 l 1,11,-1
 847 0 l 1,12,-1
 610 0 l 1,13,-1
 391 496 l 1,0,-1
EndSplineSet
Substitution2: "'smcp' Lowercase to Small Capitals lookup 0 subtable" K.smcp
EndChar

StartChar: l
Encoding: 108 108 79
Width: 465
GlyphClass: 1
Flags: W
LayerCount: 2
Fore
SplineSet
254 0 m 1,0,-1
 50 0 l 1,1,-1
 284 1560 l 1,2,-1
 488 1560 l 1,3,-1
 254 0 l 1,0,-1
EndSplineSet
Substitution2: "'smcp' Lowercase to Small Capitals lookup 0 subtable" L.smcp
EndChar

StartChar: m
Encoding: 109 109 80
Width: 1547
GlyphClass: 1
Flags: W
LayerCount: 2
Fore
SplineSet
375 940 m 1,0,1
 431 1018 431 1018 506.5 1060 c 128,-1,2
 582 1102 582 1102 675 1102 c 0,3,4
 761 1102 761 1102 820 1052 c 128,-1,5
 879 1002 879 1002 898 903 c 1,6,7
 955 997 955 997 1035 1049.5 c 128,-1,8
 1115 1102 1115 1102 1213 1102 c 0,9,10
 1348 1102 1348 1102 1414 986.5 c 128,-1,11
 1480 871 1480 871 1446 639 c 2,12,-1
 1350 0 l 1,13,-1
 1146 0 l 1,14,-1
 1242 640 l 2,15,16
 1268 816 1268 816 1236.5 880 c 128,-1,17
 1205 944 1205 944 1121 944 c 0,18,19
 1053 944 1053 944 996.5 890.5 c 128,-1,20
 940 837 940 837 905 750 c 1,21,22
 902 725 902 725 900.5 709.5 c 128,-1,23
 899 694 899 694 897 678 c 2,24,-1
 795 0 l 1,25,-1
 592 0 l 1,26,-1
 688 640 l 2,27,28
 713 810 713 810 681 877 c 128,-1,29
 649 944 649 944 566 944 c 0,30,31
 501 944 501 944 449.5 906.5 c 128,-1,32
 398 869 398 869 360 802 c 1,33,-1
 240 0 l 1,34,-1
 36 0 l 1,35,-1
 198 1082 l 1,36,-1
 385 1082 l 1,37,-1
 375 940 l 1,0,1
EndSplineSet
Substitution2: "'smcp' Lowercase to Small Capitals lookup 0 subtable" M.smcp
EndChar

StartChar: n
Encoding: 110 110 81
Width: 1008
GlyphClass: 1
Flags: W
LayerCount: 2
Fore
SplineSet
372 927 m 1,0,1
 430 1011 430 1011 507 1056.5 c 128,-1,2
 584 1102 584 1102 673 1102 c 0,3,4
 812 1102 812 1102 878.5 995 c 128,-1,5
 945 888 945 888 913 666 c 2,6,-1
 813 0 l 1,7,-1
 610 0 l 1,8,-1
 710 665 l 2,9,10
 733 824 733 824 700.5 884 c 128,-1,11
 668 944 668 944 581 944 c 0,12,13
 514 944 514 944 457.5 906 c 128,-1,14
 401 868 401 868 359 802 c 1,15,-1
 239 0 l 1,16,-1
 35 0 l 1,17,-1
 197 1082 l 1,18,-1
 383 1082 l 1,19,-1
 372 927 l 1,0,1
EndSplineSet
Substitution2: "'smcp' Lowercase to Small Capitals lookup 0 subtable" N.smcp
EndChar

StartChar: o
Encoding: 111 111 82
Width: 1008
GlyphClass: 1
Flags: W
LayerCount: 2
Fore
SplineSet
79 553 m 2,0,1
 116 803 116 803 251.5 952.5 c 128,-1,2
 387 1102 387 1102 588 1102 c 0,3,4
 779 1102 779 1102 874 946.5 c 128,-1,5
 969 791 969 791 934 553 c 2,6,-1
 930 526 l 2,7,8
 892 275 892 275 757 127 c 128,-1,9
 622 -21 622 -21 422 -21 c 0,10,11
 229 -21 229 -21 134 133 c 128,-1,12
 39 287 39 287 75 526 c 2,13,-1
 79 553 l 2,0,1
279 526 m 2,14,15
 251 348 251 348 290.5 240.5 c 128,-1,16
 330 133 330 133 445 133 c 0,17,18
 551 133 551 133 625.5 245 c 128,-1,19
 700 357 700 357 726 526 c 2,20,-1
 730 553 l 2,21,22
 756 728 756 728 717 837 c 128,-1,23
 678 946 678 946 565 946 c 0,24,25
 457 946 457 946 382 833 c 128,-1,26
 307 720 307 720 283 553 c 2,27,-1
 279 526 l 2,14,15
EndSplineSet
Substitution2: "'smcp' Lowercase to Small Capitals lookup 0 subtable" O.smcp
EndChar

StartChar: p
Encoding: 112 112 83
Width: 1008
GlyphClass: 1
Flags: W
LayerCount: 2
Fore
SplineSet
925 507 m 2,0,1
 887 258 887 258 772 118.5 c 128,-1,2
 657 -21 657 -21 484 -21 c 0,3,4
 406 -21 406 -21 349.5 12 c 128,-1,5
 293 45 293 45 257 109 c 1,6,-1
 179 -416 l 1,7,-1
 -25 -416 l 1,8,-1
 199 1082 l 1,9,-1
 372 1082 l 1,10,-1
 372 952 l 1,11,12
 427 1025 427 1025 496.5 1063.5 c 128,-1,13
 566 1102 566 1102 651 1102 c 0,14,15
 816 1102 816 1102 891 943 c 128,-1,16
 966 784 966 784 928 528 c 2,17,-1
 925 507 l 2,0,1
724 528 m 2,18,19
 753 718 753 718 717 831 c 128,-1,20
 681 944 681 944 573 944 c 0,21,22
 507 944 507 944 453 905 c 128,-1,23
 399 866 399 866 361 801 c 1,24,-1
 280 260 l 1,25,26
 298 199 298 199 340.5 166 c 128,-1,27
 383 133 383 133 452 133 c 0,28,29
 555 133 555 133 625 236.5 c 128,-1,30
 695 340 695 340 721 507 c 2,31,-1
 724 528 l 2,18,19
EndSplineSet
Substitution2: "'smcp' Lowercase to Small Capitals lookup 0 subtable" P.smcp
EndChar

StartChar: q
Encoding: 113 113 84
Width: 1008
GlyphClass: 1
Flags: W
LayerCount: 2
Fore
SplineSet
78 528 m 2,0,1
 118 797 118 797 235 949.5 c 128,-1,2
 352 1102 352 1102 526 1102 c 0,3,4
 606 1102 606 1102 663.5 1062.5 c 128,-1,5
 721 1023 721 1023 755 950 c 1,6,-1
 797 1082 l 1,7,-1
 964 1082 l 1,8,-1
 740 -416 l 1,9,-1
 536 -416 l 1,10,-1
 613 99 l 1,11,12
 561 40 561 40 497 9.5 c 128,-1,13
 433 -21 433 -21 356 -21 c 0,14,15
 192 -21 192 -21 115.5 125 c 128,-1,16
 39 271 39 271 75 507 c 2,17,-1
 78 528 l 2,0,1
277 507 m 2,18,19
 250 330 250 330 286 231.5 c 128,-1,20
 322 133 322 133 431 133 c 0,21,22
 495 133 495 133 546.5 167 c 128,-1,23
 598 201 598 201 638 263 c 1,24,-1
 720 813 l 1,25,26
 700 875 700 875 659.5 910.5 c 128,-1,27
 619 946 619 946 554 946 c 0,28,29
 451 946 451 946 379 828 c 128,-1,30
 307 710 307 710 280 528 c 2,31,-1
 277 507 l 2,18,19
EndSplineSet
Substitution2: "'smcp' Lowercase to Small Capitals lookup 0 subtable" Q.smcp
EndChar

StartChar: r
Encoding: 114 114 85
Width: 630
GlyphClass: 1
Flags: W
LayerCount: 2
Fore
SplineSet
638 913 m 1,0,-1
 551 918 l 2,1,2
 489 918 489 918 439 877.5 c 128,-1,3
 389 837 389 837 355 764 c 1,4,-1
 241 0 l 1,5,-1
 37 0 l 1,6,-1
 199 1082 l 1,7,-1
 386 1082 l 1,8,-1
 376 933 l 1,9,-1
 382 930 l 1,10,11
 425 1010 425 1010 487.5 1056 c 128,-1,12
 550 1102 550 1102 624 1102 c 0,13,14
 643 1102 643 1102 659.5 1098.5 c 128,-1,15
 676 1095 676 1095 688 1090 c 1,16,-1
 638 913 l 1,0,-1
EndSplineSet
Substitution2: "'smcp' Lowercase to Small Capitals lookup 0 subtable" R.smcp
EndChar

StartChar: s
Encoding: 115 115 86
Width: 902
GlyphClass: 1
Flags: W
LayerCount: 2
Fore
SplineSet
593 273 m 0,0,1
 602 338 602 338 566.5 379.5 c 128,-1,2
 531 421 531 421 418 474 c 1,3,4
 260 537 260 537 187 611 c 128,-1,5
 114 685 114 685 131 801 c 0,6,7
 149 930 149 930 260.5 1016 c 128,-1,8
 372 1102 372 1102 535 1102 c 0,9,10
 696 1102 696 1102 787.5 1005 c 128,-1,11
 879 908 879 908 856 772 c 1,12,-1
 853 766 l 1,13,-1
 657 766 l 1,14,15
 668 845 668 845 630.5 899.5 c 128,-1,16
 593 954 593 954 515 954 c 0,17,18
 440 954 440 954 388 910 c 128,-1,19
 336 866 336 866 329 809 c 0,20,21
 320 745 320 745 351.5 711 c 128,-1,22
 383 677 383 677 501 620 c 1,23,24
 662 560 662 560 736.5 481 c 128,-1,25
 811 402 811 402 795 283 c 0,26,27
 774 143 774 143 660.5 61 c 128,-1,28
 547 -21 547 -21 377 -21 c 0,29,30
 202 -21 202 -21 108.5 82 c 128,-1,31
 15 185 15 185 39 318 c 1,32,-1
 41 324 l 1,33,-1
 230 324 l 1,34,35
 219 219 219 219 268.5 172.5 c 128,-1,36
 318 126 318 126 401 126 c 0,37,38
 478 126 478 126 531 168 c 128,-1,39
 584 210 584 210 593 273 c 0,0,1
EndSplineSet
Substitution2: "'smcp' Lowercase to Small Capitals lookup 0 subtable" S.smcp
EndChar

StartChar: t
Encoding: 116 116 87
Width: 614
GlyphClass: 1
Flags: W
LayerCount: 2
Fore
SplineSet
501 1351 m 1,0,-1
 460 1082 l 1,1,-1
 629 1082 l 1,2,-1
 608 937 l 1,3,-1
 439 937 l 1,4,-1
 342 293 l 2,5,6
 328 205 328 205 348.5 171.5 c 128,-1,7
 369 138 369 138 412 138 c 0,8,9
 429 138 429 138 445 141 c 128,-1,10
 461 144 461 144 481 150 c 1,11,-1
 481 10 l 1,12,13
 450 -4 450 -4 413 -12.5 c 128,-1,14
 376 -21 376 -21 338 -21 c 0,15,16
 225 -21 225 -21 169 55 c 128,-1,17
 113 131 113 131 138 293 c 2,18,-1
 235 937 l 1,19,-1
 92 937 l 1,20,-1
 113 1082 l 1,21,-1
 256 1082 l 1,22,-1
 297 1351 l 1,23,-1
 501 1351 l 1,0,-1
EndSplineSet
Substitution2: "'smcp' Lowercase to Small Capitals lookup 0 subtable" T.smcp
EndChar

StartChar: u
Encoding: 117 117 88
Width: 1008
GlyphClass: 1
Flags: W
LayerCount: 2
Fore
SplineSet
639 0 m 1,0,-1
 643 153 l 1,1,2
 588 68 588 68 512.5 23.5 c 128,-1,3
 437 -21 437 -21 346 -21 c 0,4,5
 202 -21 202 -21 132.5 95 c 128,-1,6
 63 211 63 211 100 451 c 2,7,-1
 194 1082 l 1,8,-1
 398 1082 l 1,9,-1
 303 449 l 2,10,11
 276 268 276 268 305.5 202 c 128,-1,12
 335 136 335 136 418 136 c 0,13,14
 492 136 492 136 550.5 173 c 128,-1,15
 609 210 609 210 650 278 c 1,16,-1
 770 1082 l 1,17,-1
 974 1082 l 1,18,-1
 812 0 l 1,19,-1
 639 0 l 1,0,-1
EndSplineSet
Substitution2: "'smcp' Lowercase to Small Capitals lookup 0 subtable" U.smcp
EndChar

StartChar: v
Encoding: 118 118 89
Width: 903
GlyphClass: 1
Flags: W
LayerCount: 2
Fore
SplineSet
404 325 m 1,0,-1
 408 240 l 1,1,-1
 414 239 l 1,2,-1
 445 325 l 1,3,-1
 747 1082 l 1,4,-1
 957 1082 l 1,5,-1
 465 0 l 1,6,-1
 284 0 l 1,7,-1
 114 1082 l 1,8,-1
 326 1082 l 1,9,-1
 404 325 l 1,0,-1
EndSplineSet
Substitution2: "'smcp' Lowercase to Small Capitals lookup 0 subtable" V.smcp
EndChar

StartChar: w
Encoding: 119 119 90
Width: 1328
GlyphClass: 1
Flags: W
LayerCount: 2
Fore
SplineSet
907 353 m 1,0,-1
 913 353 l 1,1,-1
 1160 1082 l 1,2,-1
 1364 1082 l 1,3,-1
 950 0 l 1,4,-1
 782 0 l 1,5,-1
 688 701 l 1,6,-1
 682 702 l 1,7,-1
 382 0 l 1,8,-1
 213 0 l 1,9,-1
 122 1082 l 1,10,-1
 325 1082 l 1,11,-1
 359 362 l 1,12,-1
 365 361 l 1,13,-1
 670 1082 l 1,14,-1
 816 1082 l 1,15,-1
 907 353 l 1,0,-1
EndSplineSet
Substitution2: "'smcp' Lowercase to Small Capitals lookup 0 subtable" W.smcp
EndChar

StartChar: x
Encoding: 120 120 91
Width: 903
GlyphClass: 1
Flags: W
LayerCount: 2
Fore
SplineSet
469 687 m 1,0,-1
 475 687 l 1,1,-1
 708 1082 l 1,2,-1
 942 1082 l 1,3,-1
 569 548 l 1,4,-1
 790 0 l 1,5,-1
 558 0 l 1,6,-1
 436 408 l 1,7,-1
 430 409 l 1,8,-1
 187 0 l 1,9,-1
 -45 0 l 1,10,-1
 338 548 l 1,11,-1
 126 1082 l 1,12,-1
 356 1082 l 1,13,-1
 469 687 l 1,0,-1
EndSplineSet
Substitution2: "'smcp' Lowercase to Small Capitals lookup 0 subtable" X.smcp
EndChar

StartChar: y
Encoding: 121 121 92
Width: 903
GlyphClass: 1
Flags: W
LayerCount: 2
Fore
SplineSet
401 373 m 1,0,-1
 406 301 l 1,1,-1
 412 300 l 1,2,-1
 741 1082 l 1,3,-1
 964 1082 l 1,4,-1
 390 -168 l 2,5,6
 336 -279 336 -279 258 -358 c 128,-1,7
 180 -437 180 -437 56 -437 c 0,8,9
 32 -437 32 -437 3.5 -431.5 c 128,-1,10
 -25 -426 -25 -426 -52 -419 c 1,11,-1
 -6 -269 l 1,12,13
 3 -271 3 -271 22.5 -273 c 128,-1,14
 42 -275 42 -275 53 -275 c 0,15,16
 110 -275 110 -275 154.5 -223.5 c 128,-1,17
 199 -172 199 -172 228 -105 c 2,18,-1
 282 8 l 1,19,-1
 102 1082 l 1,20,-1
 324 1082 l 1,21,-1
 401 373 l 1,0,-1
EndSplineSet
Substitution2: "'smcp' Lowercase to Small Capitals lookup 0 subtable" Y.smcp
EndChar

StartChar: z
Encoding: 122 122 93
Width: 903
GlyphClass: 1
Flags: W
LayerCount: 2
Fore
SplineSet
250 154 m 1,0,-1
 777 154 l 1,1,-1
 754 0 l 1,2,-1
 -1 0 l 1,3,-1
 18 128 l 1,4,-1
 637 925 l 1,5,-1
 149 925 l 1,6,-1
 172 1082 l 1,7,-1
 893 1082 l 1,8,-1
 874 956 l 1,9,-1
 250 154 l 1,0,-1
EndSplineSet
Substitution2: "'smcp' Lowercase to Small Capitals lookup 0 subtable" Z.smcp
EndChar

StartChar: braceleft
Encoding: 123 123 94
Width: 601
GlyphClass: 1
Flags: W
LayerCount: 2
Fore
SplineSet
401 -379 m 1,0,1
 242 -324 242 -324 188.5 -204.5 c 128,-1,2
 135 -85 135 -85 159 85 c 2,3,-1
 189 297 l 2,4,5
 205 413 205 413 172.5 474 c 128,-1,6
 140 535 140 535 54 535 c 1,7,-1
 58 566 l 1,8,-1
 70 651 l 1,9,-1
 74 681 l 1,10,11
 156 681 156 681 207.5 743.5 c 128,-1,12
 259 806 259 806 275 917 c 2,13,-1
 305 1132 l 2,14,15
 329 1309 329 1309 415 1424.5 c 128,-1,16
 501 1540 501 1540 674 1592 c 1,17,-1
 679 1590 l 1,18,-1
 703 1483 l 1,19,20
 612 1447 612 1447 563 1356.5 c 128,-1,21
 514 1266 514 1266 496 1132 c 2,22,-1
 466 917 l 2,23,24
 450 807 450 807 398.5 726.5 c 128,-1,25
 347 646 347 646 259 606 c 1,26,27
 333 561 333 561 363 480.5 c 128,-1,28
 393 400 393 400 380 297 c 2,29,-1
 350 85 l 2,30,31
 330 -53 330 -53 353.5 -140 c 128,-1,32
 377 -227 377 -227 458 -264 c 1,33,-1
 401 -379 l 1,0,1
EndSplineSet
EndChar

StartChar: bar
Encoding: 124 124 95
Width: 449
GlyphClass: 1
Flags: W
LayerCount: 2
Fore
SplineSet
189 -270 m 1,0,-1
 12 -270 l 1,1,-1
 270 1456 l 1,2,-1
 447 1456 l 1,3,-1
 189 -270 l 1,0,-1
EndSplineSet
EndChar

StartChar: braceright
Encoding: 125 125 96
Width: 601
GlyphClass: 1
Flags: W
LayerCount: 2
Fore
SplineSet
-83 -264 m 1,0,1
 7 -227 7 -227 56 -137 c 128,-1,2
 105 -47 105 -47 124 85 c 2,3,-1
 154 297 l 2,4,5
 169 410 169 410 222 490 c 128,-1,6
 275 570 275 570 368 609 c 1,7,8
 289 650 289 650 257 731 c 128,-1,9
 225 812 225 812 240 917 c 2,10,-1
 270 1132 l 2,11,12
 289 1269 289 1269 266 1357.5 c 128,-1,13
 243 1446 243 1446 163 1483 c 1,14,-1
 218 1597 l 1,15,16
 376 1542 376 1542 429.5 1422.5 c 128,-1,17
 483 1303 483 1303 459 1132 c 2,18,-1
 429 917 l 2,19,20
 412 801 412 801 445 741 c 128,-1,21
 478 681 478 681 564 681 c 1,22,-1
 549 570 l 1,23,-1
 544 535 l 1,24,25
 462 535 462 535 410 471 c 128,-1,26
 358 407 358 407 343 297 c 2,27,-1
 313 85 l 2,28,29
 287 -91 287 -91 202 -206.5 c 128,-1,30
 117 -322 117 -322 -55 -374 c 1,31,-1
 -60 -372 l 1,32,-1
 -83 -264 l 1,0,1
EndSplineSet
EndChar

StartChar: asciitilde
Encoding: 126 126 97
Width: 1182
GlyphClass: 1
Flags: W
LayerCount: 2
Fore
SplineSet
1102 745 m 1,0,1
 1081 598 1081 598 993.5 500 c 128,-1,2
 906 402 906 402 792 402 c 0,3,4
 720 402 720 402 661 436.5 c 128,-1,5
 602 471 602 471 541 544 c 0,6,7
 500 594 500 594 466 618 c 128,-1,8
 432 642 432 642 391 642 c 0,9,10
 340 642 340 642 295.5 586 c 128,-1,11
 251 530 251 530 239 446 c 1,12,-1
 98 466 l 1,13,14
 119 613 119 613 205 708 c 128,-1,15
 291 803 291 803 407 803 c 0,16,17
 477 803 477 803 538.5 767 c 128,-1,18
 600 731 600 731 660 662 c 1,19,20
 697 610 697 610 731.5 587 c 128,-1,21
 766 564 766 564 808 564 c 0,22,23
 857 564 857 564 903 622.5 c 128,-1,24
 949 681 949 681 961 765 c 1,25,-1
 1102 745 l 1,0,1
EndSplineSet
EndChar

StartChar: exclamdown
Encoding: 161 161 99
Width: 476
GlyphClass: 1
Flags: W
LayerCount: 2
Fore
SplineSet
199 -374 m 1,0,-1
 -5 -374 l 1,1,-1
 140 596 l 1,2,-1
 344 596 l 1,3,-1
 199 -374 l 1,0,-1
386 869 m 1,4,-1
 180 869 l 1,5,-1
 212 1082 l 1,6,-1
 418 1082 l 1,7,-1
 386 869 l 1,4,-1
EndSplineSet
EndChar

StartChar: cent
Encoding: 162 162 100
Width: 1004
GlyphClass: 1
Flags: W
LayerCount: 2
Fore
SplineSet
433 133 m 0,0,1
 505 133 505 133 565.5 191.5 c 128,-1,2
 626 250 626 250 641 348 c 1,3,-1
 825 348 l 1,4,-1
 827 343 l 1,5,6
 810 213 810 213 722.5 118 c 128,-1,7
 635 23 635 23 513 -8 c 1,8,-1
 478 -245 l 1,9,-1
 314 -245 l 1,10,-1
 348 -16 l 1,11,12
 187 9 187 9 113.5 159 c 128,-1,13
 40 309 40 309 73 521 c 2,14,-1
 79 559 l 2,15,16
 112 783 112 783 225.5 928.5 c 128,-1,17
 339 1074 339 1074 516 1098 c 1,18,-1
 549 1318 l 1,19,-1
 713 1318 l 1,20,-1
 678 1088 l 1,21,22
 791 1054 791 1054 848.5 951 c 128,-1,23
 906 848 906 848 885 703 c 1,24,-1
 694 703 l 1,25,26
 711 815 711 815 673 880.5 c 128,-1,27
 635 946 635 946 555 946 c 0,28,29
 446 946 446 946 376 834 c 128,-1,30
 306 722 306 722 282 559 c 2,31,-1
 276 521 l 2,32,33
 250 345 250 345 283.5 239 c 128,-1,34
 317 133 317 133 433 133 c 0,0,1
EndSplineSet
EndChar

StartChar: sterling
Encoding: 163 163 101
Width: 1048
GlyphClass: 1
Flags: W
LayerCount: 2
Fore
SplineSet
438 618 m 1,0,-1
 422 477 l 1,1,2
 406 380 406 380 370 296.5 c 128,-1,3
 334 213 334 213 280 154 c 1,4,-1
 919 154 l 1,5,-1
 896 0 l 1,6,-1
 51 0 l 1,7,-1
 74 154 l 1,8,-1
 82 154 l 1,9,10
 127 167 127 167 164 267 c 128,-1,11
 201 367 201 367 217 473 c 1,12,-1
 233 618 l 1,13,-1
 89 618 l 1,14,-1
 112 772 l 1,15,-1
 251 772 l 1,16,-1
 282 1036 l 1,17,18
 314 1249 314 1249 430 1363 c 128,-1,19
 546 1477 546 1477 715 1477 c 0,20,21
 886 1477 886 1477 970 1368 c 128,-1,22
 1054 1259 1054 1259 1027 1082 c 1,23,-1
 824 1082 l 1,24,25
 843 1210 843 1210 805 1265.5 c 128,-1,26
 767 1321 767 1321 691 1321 c 0,27,28
 619 1321 619 1321 562.5 1245.5 c 128,-1,29
 506 1170 506 1170 486 1036 c 1,30,-1
 455 772 l 1,31,-1
 790 772 l 1,32,-1
 767 618 l 1,33,-1
 438 618 l 1,0,-1
EndSplineSet
EndChar

StartChar: currency
Encoding: 164 164 102
Width: 1309
GlyphClass: 1
Flags: W
LayerCount: 2
Fore
SplineSet
927 110 m 1,0,1
 849 47 849 47 758.5 13.5 c 128,-1,2
 668 -20 668 -20 575 -20 c 0,3,4
 485 -20 485 -20 406.5 14.5 c 128,-1,5
 328 49 328 49 268 114 c 1,6,-1
 123 -26 l 1,7,-1
 24 92 l 1,8,-1
 180 243 l 1,9,10
 142 321 142 321 129.5 414 c 128,-1,11
 117 507 117 507 133 608 c 0,12,13
 149 717 149 717 190 814 c 128,-1,14
 231 911 231 911 294 990 c 1,15,-1
 182 1144 l 1,16,-1
 317 1264 l 1,17,-1
 424 1117 l 1,18,19
 500 1173 500 1173 586.5 1203.5 c 128,-1,20
 673 1234 673 1234 763 1234 c 0,21,22
 848 1234 848 1234 924 1201 c 128,-1,23
 1000 1168 1000 1168 1060 1109 c 1,24,-1
 1221 1265 l 1,25,-1
 1320 1144 l 1,26,-1
 1151 980 l 1,27,28
 1189 900 1189 900 1203 805 c 128,-1,29
 1217 710 1217 710 1202 608 c 0,30,31
 1185 503 1185 503 1147 410 c 128,-1,32
 1109 317 1109 317 1053 241 c 1,33,-1
 1162 92 l 1,34,-1
 1027 -27 l 1,35,-1
 927 110 l 1,0,1
286 608 m 0,36,37
 255 402 255 402 346 267.5 c 128,-1,38
 437 133 437 133 598 133 c 0,39,40
 750 133 750 133 885 272.5 c 128,-1,41
 1020 412 1020 412 1049 608 c 0,42,43
 1079 811 1079 811 989 945.5 c 128,-1,44
 899 1080 899 1080 740 1080 c 0,45,46
 587 1080 587 1080 451 941 c 128,-1,47
 315 802 315 802 286 608 c 0,36,37
EndSplineSet
EndChar

StartChar: yen
Encoding: 165 165 103
Width: 1084
GlyphClass: 1
Flags: W
LayerCount: 2
Fore
SplineSet
580 821 m 1,0,-1
 586 821 l 1,1,-1
 959 1456 l 1,2,-1
 1186 1456 l 1,3,-1
 721 726 l 1,4,-1
 974 726 l 1,5,-1
 956 604 l 1,6,-1
 648 604 l 1,7,-1
 623 434 l 1,8,-1
 930 434 l 1,9,-1
 912 314 l 1,10,-1
 605 314 l 1,11,-1
 558 0 l 1,12,-1
 355 0 l 1,13,-1
 402 314 l 1,14,-1
 91 314 l 1,15,-1
 109 434 l 1,16,-1
 420 434 l 1,17,-1
 445 604 l 1,18,-1
 135 604 l 1,19,-1
 153 726 l 1,20,-1
 415 726 l 1,21,-1
 168 1456 l 1,22,-1
 395 1456 l 1,23,-1
 580 821 l 1,0,-1
EndSplineSet
EndChar

StartChar: brokenbar
Encoding: 166 166 104
Width: 445
GlyphClass: 1
Flags: W
LayerCount: 2
Fore
SplineSet
5 -270 m 1,0,-1
 122 514 l 1,1,-1
 312 514 l 1,2,-1
 195 -270 l 1,3,-1
 5 -270 l 1,0,-1
340 698 m 1,4,-1
 150 698 l 1,5,-1
 263 1456 l 1,6,-1
 453 1456 l 1,7,-1
 340 698 l 1,4,-1
EndSplineSet
EndChar

StartChar: section
Encoding: 167 167 105
Width: 1106
GlyphClass: 1
Flags: W
LayerCount: 2
Fore
SplineSet
992 444 m 0,0,1
 977 347 977 347 923.5 279 c 128,-1,2
 870 211 870 211 785 172 c 1,3,4
 846 121 846 121 869.5 52 c 128,-1,5
 893 -17 893 -17 878 -118 c 0,6,7
 851 -296 851 -296 721 -390 c 128,-1,8
 591 -484 591 -484 390 -484 c 0,9,10
 202 -484 202 -484 84 -381.5 c 128,-1,11
 -34 -279 -34 -279 3 -61 c 1,12,-1
 5 -56 l 1,13,-1
 201 -54 l 1,14,15
 178 -204 178 -204 241.5 -266.5 c 128,-1,16
 305 -329 305 -329 414 -329 c 0,17,18
 517 -329 517 -329 588.5 -270 c 128,-1,19
 660 -211 660 -211 674 -120 c 0,20,21
 687 -27 687 -27 638.5 21.5 c 128,-1,22
 590 70 590 70 435 129 c 1,23,24
 236 193 236 193 150 283.5 c 128,-1,25
 64 374 64 374 91 546 c 0,26,27
 105 641 105 641 157.5 710.5 c 128,-1,28
 210 780 210 780 295 819 c 1,29,30
 236 869 236 869 213 939 c 128,-1,31
 190 1009 190 1009 205 1109 c 0,32,33
 230 1281 230 1281 362 1379 c 128,-1,34
 494 1477 494 1477 694 1477 c 0,35,36
 891 1477 891 1477 992 1364 c 128,-1,37
 1093 1251 1093 1251 1059 1052 c 1,38,-1
 1057 1047 l 1,39,-1
 861 1047 l 1,40,41
 879 1170 879 1170 829.5 1245.5 c 128,-1,42
 780 1321 780 1321 670 1321 c 256,43,44
 560 1321 560 1321 491.5 1261.5 c 128,-1,45
 423 1202 423 1202 410 1111 c 0,46,47
 394 1010 394 1010 439.5 962 c 128,-1,48
 485 914 485 914 646 857 c 1,49,50
 848 791 848 791 932.5 702.5 c 128,-1,51
 1017 614 1017 614 992 444 c 0,0,1
548 697 m 1,52,53
 515 706 515 706 485.5 717 c 128,-1,54
 456 728 456 728 430 740 c 1,55,56
 374 717 374 717 339 668.5 c 128,-1,57
 304 620 304 620 295 556 c 0,58,59
 279 451 279 451 324.5 402 c 128,-1,60
 370 353 370 353 533 292 c 0,61,62
 561 282 561 282 588.5 272 c 128,-1,63
 616 262 616 262 644 251 c 1,64,65
 702 273 702 273 740.5 321.5 c 128,-1,66
 779 370 779 370 789 434 c 0,67,68
 803 529 803 529 753 581.5 c 128,-1,69
 703 634 703 634 548 697 c 1,52,53
EndSplineSet
EndChar

StartChar: dieresis
Encoding: 168 168 106
Width: 950
GlyphClass: 1
Flags: W
LayerCount: 2
Fore
SplineSet
900 1271 m 1,0,-1
 691 1271 l 1,1,-1
 717 1456 l 1,2,-1
 926 1456 l 1,3,-1
 900 1271 l 1,0,-1
464 1271 m 1,4,-1
 255 1271 l 1,5,-1
 281 1456 l 1,6,-1
 490 1456 l 1,7,-1
 464 1271 l 1,4,-1
EndSplineSet
EndChar

StartChar: copyright
Encoding: 169 169 107
Width: 1462
GlyphClass: 1
Flags: W
LayerCount: 2
Fore
SplineSet
1013 596 m 1,0,-1
 1015 590 l 1,1,2
 995 434 995 434 906.5 358 c 128,-1,3
 818 282 818 282 677 282 c 0,4,5
 540 282 540 282 469 389.5 c 128,-1,6
 398 497 398 497 424 669 c 2,7,-1
 442 788 l 2,8,9
 468 967 468 967 567.5 1071 c 128,-1,10
 667 1175 667 1175 811 1175 c 0,11,12
 945 1175 945 1175 1014.5 1094.5 c 128,-1,13
 1084 1014 1084 1014 1058 866 c 1,14,-1
 1055 861 l 1,15,-1
 932 861 l 1,16,17
 948 967 948 967 913.5 1013 c 128,-1,18
 879 1059 879 1059 794 1059 c 0,19,20
 710 1059 710 1059 649 983 c 128,-1,21
 588 907 588 907 570 789 c 2,22,-1
 552 669 l 2,23,24
 532 541 532 541 569 469 c 128,-1,25
 606 397 606 397 695 397 c 0,26,27
 776 397 776 397 825.5 444.5 c 128,-1,28
 875 492 875 492 891 596 c 1,29,-1
 1013 596 l 1,0,-1
220 729 m 0,30,31
 177 448 177 448 305.5 267 c 128,-1,32
 434 86 434 86 660 86 c 0,33,34
 873 86 873 86 1061.5 273.5 c 128,-1,35
 1250 461 1250 461 1290 729 c 0,36,37
 1332 1007 1332 1007 1204 1187 c 128,-1,38
 1076 1367 1076 1367 852 1367 c 0,39,40
 637 1367 637 1367 448 1180.5 c 128,-1,41
 259 994 259 994 220 729 c 0,30,31
117 729 m 0,42,43
 166 1056 166 1056 382 1266 c 128,-1,44
 598 1476 598 1476 868 1476 c 0,45,46
 1122 1476 1122 1476 1281.5 1258 c 128,-1,47
 1441 1040 1441 1040 1394 729 c 0,48,49
 1345 401 1345 401 1128.5 190 c 128,-1,50
 912 -21 912 -21 644 -21 c 0,51,52
 388 -21 388 -21 229 197.5 c 128,-1,53
 70 416 70 416 117 729 c 0,42,43
EndSplineSet
EndChar

StartChar: ordfeminine
Encoding: 170 170 108
Width: 798
GlyphClass: 1
Flags: W
LayerCount: 2
Fore
SplineSet
559 706 m 1,0,1
 556 729 556 729 555 754 c 128,-1,2
 554 779 554 779 556 806 c 1,3,4
 519 756 519 756 466 724 c 128,-1,5
 413 692 413 692 346 692 c 0,6,7
 248 692 248 692 199 754 c 128,-1,8
 150 816 150 816 166 920 c 0,9,10
 183 1032 183 1032 262.5 1089 c 128,-1,11
 342 1146 342 1146 482 1146 c 2,12,-1
 604 1146 l 1,13,-1
 613 1202 l 2,14,15
 624 1276 624 1276 603.5 1313.5 c 128,-1,16
 583 1351 583 1351 531 1351 c 0,17,18
 474 1351 474 1351 435 1319.5 c 128,-1,19
 396 1288 396 1288 388 1231 c 1,20,-1
 257 1243 l 1,21,-1
 255 1249 l 1,22,23
 266 1351 266 1351 347.5 1414 c 128,-1,24
 429 1477 429 1477 550 1477 c 0,25,26
 660 1477 660 1477 718 1405 c 128,-1,27
 776 1333 776 1333 756 1201 c 2,28,-1
 709 887 l 2,29,30
 701 835 701 835 699.5 791.5 c 128,-1,31
 698 748 698 748 704 706 c 1,32,-1
 559 706 l 1,0,1
398 814 m 0,33,34
 442 814 442 814 495 847 c 128,-1,35
 548 880 548 880 570 920 c 1,36,-1
 589 1043 l 1,37,-1
 467 1043 l 2,38,39
 403 1043 403 1043 360 1008 c 128,-1,40
 317 973 317 973 310 924 c 0,41,42
 301 869 301 869 322.5 841.5 c 128,-1,43
 344 814 344 814 398 814 c 0,33,34
EndSplineSet
EndChar

StartChar: logicalnot
Encoding: 172 172 110
Width: 985
GlyphClass: 1
Flags: W
LayerCount: 2
Fore
SplineSet
858 722 m 1,0,-1
 847 649 l 1,1,-1
 807 378 l 1,2,-1
 645 378 l 1,3,-1
 685 649 l 1,4,-1
 133 649 l 1,5,-1
 155 792 l 1,6,-1
 869 792 l 1,7,-1
 858 722 l 1,0,-1
EndSplineSet
EndChar

StartChar: registered
Encoding: 174 174 112
Width: 1462
GlyphClass: 1
Flags: W
LayerCount: 2
Fore
SplineSet
116 729 m 0,0,1
 165 1056 165 1056 381 1266 c 128,-1,2
 597 1476 597 1476 866 1476 c 0,3,4
 1121 1476 1121 1476 1280.5 1258 c 128,-1,5
 1440 1040 1440 1040 1393 729 c 0,6,7
 1344 401 1344 401 1127 190 c 128,-1,8
 910 -21 910 -21 642 -21 c 0,9,10
 387 -21 387 -21 228 197.5 c 128,-1,11
 69 416 69 416 116 729 c 0,0,1
220 729 m 0,12,13
 177 448 177 448 305 267 c 128,-1,14
 433 86 433 86 658 86 c 0,15,16
 872 86 872 86 1060.5 273.5 c 128,-1,17
 1249 461 1249 461 1289 729 c 0,18,19
 1331 1008 1331 1008 1203 1187.5 c 128,-1,20
 1075 1367 1075 1367 850 1367 c 0,21,22
 636 1367 636 1367 447.5 1180.5 c 128,-1,23
 259 994 259 994 220 729 c 0,12,13
612 660 m 1,24,-1
 560 316 l 1,25,-1
 434 316 l 1,26,-1
 562 1166 l 1,27,-1
 810 1166 l 2,28,29
 940 1166 940 1166 1009.5 1100 c 128,-1,30
 1079 1034 1079 1034 1061 911 c 0,31,32
 1051 846 1051 846 1014 799.5 c 128,-1,33
 977 753 977 753 915 722 c 1,34,35
 969 695 969 695 988.5 641.5 c 128,-1,36
 1008 588 1008 588 997 515 c 2,37,-1
 989 459 l 2,38,39
 982 415 982 415 980.5 383.5 c 128,-1,40
 979 352 979 352 985 332 c 1,41,-1
 982 316 l 1,42,-1
 852 316 l 1,43,44
 848 337 848 337 851.5 374.5 c 128,-1,45
 855 412 855 412 862 460 c 2,46,-1
 870 514 l 2,47,48
 882 593 882 593 856.5 626.5 c 128,-1,49
 831 660 831 660 759 660 c 2,50,-1
 612 660 l 1,24,-1
629 776 m 1,51,-1
 763 776 l 2,52,53
 827 776 827 776 875.5 811 c 128,-1,54
 924 846 924 846 934 908 c 0,55,56
 945 988 945 988 914.5 1019.5 c 128,-1,57
 884 1051 884 1051 793 1051 c 2,58,-1
 671 1051 l 1,59,-1
 629 776 l 1,51,-1
EndSplineSet
EndChar

StartChar: macron
Encoding: 175 175 113
AltUni2: 0002c9.ffffffff.0 0002c9.ffffffff.0
Width: 889
GlyphClass: 1
Flags: W
LayerCount: 2
Fore
SplineSet
879 1324 m 1,0,-1
 235 1324 l 1,1,-1
 254 1456 l 1,2,-1
 898 1456 l 1,3,-1
 879 1324 l 1,0,-1
EndSplineSet
EndChar

StartChar: degree
Encoding: 176 176 114
Width: 715
GlyphClass: 1
Flags: W
LayerCount: 2
Fore
SplineSet
226 1216 m 0,0,1
 243 1326 243 1326 323 1401.5 c 128,-1,2
 403 1477 403 1477 501 1477 c 0,3,4
 593 1477 593 1477 651 1399 c 128,-1,5
 709 1321 709 1321 693 1216 c 0,6,7
 676 1104 676 1104 598 1031.5 c 128,-1,8
 520 959 520 959 423 959 c 0,9,10
 329 959 329 959 269.5 1034 c 128,-1,11
 210 1109 210 1109 226 1216 c 0,0,1
343 1216 m 0,12,13
 334 1154 334 1154 362.5 1116 c 128,-1,14
 391 1078 391 1078 441 1078 c 0,15,16
 488 1078 488 1078 527.5 1117 c 128,-1,17
 567 1156 567 1156 576 1216 c 0,18,19
 585 1278 585 1278 558.5 1317.5 c 128,-1,20
 532 1357 532 1357 483 1357 c 0,21,22
 435 1357 435 1357 393.5 1316 c 128,-1,23
 352 1275 352 1275 343 1216 c 0,12,13
EndSplineSet
EndChar

StartChar: plusminus
Encoding: 177 177 115
Width: 999
GlyphClass: 1
Flags: W
LayerCount: 2
Fore
SplineSet
646 873 m 1,0,-1
 960 873 l 1,1,-1
 938 716 l 1,2,-1
 624 716 l 1,3,-1
 566 302 l 1,4,-1
 384 302 l 1,5,-1
 442 716 l 1,6,-1
 115 716 l 1,7,-1
 137 873 l 1,8,-1
 464 873 l 1,9,-1
 521 1280 l 1,10,-1
 703 1280 l 1,11,-1
 646 873 l 1,0,-1
754 5 m 1,12,-1
 36 5 l 1,13,-1
 60 160 l 1,14,-1
 778 160 l 1,15,-1
 754 5 l 1,12,-1
EndSplineSet
EndChar

StartChar: twosuperior
Encoding: 178 178 116
Width: 753
GlyphClass: 1
Flags: W
LayerCount: 2
Fore
SplineSet
647 667 m 1,0,-1
 127 667 l 1,1,-1
 145 788 l 1,2,-1
 450 1055 l 2,3,4
 515 1115 515 1115 538.5 1154 c 128,-1,5
 562 1193 562 1193 569 1238 c 0,6,7
 576 1292 576 1292 557.5 1324 c 128,-1,8
 539 1356 539 1356 491 1356 c 0,9,10
 439 1356 439 1356 403.5 1320.5 c 128,-1,11
 368 1285 368 1285 361 1230 c 1,12,-1
 213 1230 l 1,13,-1
 211 1236 l 1,14,15
 221 1340 221 1340 304.5 1409.5 c 128,-1,16
 388 1479 388 1479 512 1479 c 0,17,18
 627 1479 627 1479 685 1415.5 c 128,-1,19
 743 1352 743 1352 727 1237 c 0,20,21
 714 1155 714 1155 663 1096.5 c 128,-1,22
 612 1038 612 1038 495 937 c 1,23,-1
 348 794 l 1,24,-1
 350 788 l 1,25,-1
 665 788 l 1,26,-1
 647 667 l 1,0,-1
EndSplineSet
EndChar

StartChar: threesuperior
Encoding: 179 179 117
Width: 756
GlyphClass: 1
Flags: W
LayerCount: 2
Fore
SplineSet
345 1096 m 1,0,-1
 350 1130 l 1,1,-1
 453 1130 l 2,2,3
 509 1130 509 1130 541.5 1160 c 128,-1,4
 574 1190 574 1190 583 1245 c 0,5,6
 590 1295 590 1295 566.5 1325 c 128,-1,7
 543 1355 543 1355 487 1355 c 0,8,9
 440 1355 440 1355 406.5 1327 c 128,-1,10
 373 1299 373 1299 367 1255 c 1,11,-1
 218 1255 l 1,12,-1
 217 1261 l 1,13,14
 227 1362 227 1362 308.5 1420 c 128,-1,15
 390 1478 390 1478 504 1478 c 0,16,17
 625 1478 625 1478 692 1418 c 128,-1,18
 759 1358 759 1358 743 1250 c 0,19,20
 734 1191 734 1191 695.5 1145 c 128,-1,21
 657 1099 657 1099 599 1075 c 1,22,23
 656 1051 656 1051 682.5 1003 c 128,-1,24
 709 955 709 955 699 888 c 0,25,26
 682 774 682 774 597.5 714.5 c 128,-1,27
 513 655 513 655 384 655 c 0,28,29
 271 655 271 655 199.5 714.5 c 128,-1,30
 128 774 128 774 150 885 c 1,31,-1
 152 891 l 1,32,-1
 302 891 l 1,33,34
 293 838 293 838 319 807 c 128,-1,35
 345 776 345 776 401 776 c 0,36,37
 455 776 455 776 494 807.5 c 128,-1,38
 533 839 533 839 542 892 c 0,39,40
 551 958 551 958 525 987.5 c 128,-1,41
 499 1017 499 1017 436 1017 c 2,42,-1
 333 1017 l 1,43,-1
 344 1096 l 1,44,-1
 345 1096 l 1,0,-1
EndSplineSet
EndChar

StartChar: acute
Encoding: 180 180 118
Width: 620
GlyphClass: 1
Flags: W
LayerCount: 2
Fore
SplineSet
430 1518 m 1,0,-1
 663 1518 l 1,1,-1
 665 1512 l 1,2,-1
 386 1252 l 1,3,-1
 223 1252 l 1,4,-1
 220 1257 l 1,5,-1
 430 1518 l 1,0,-1
EndSplineSet
EndChar

StartChar: mu
Encoding: 181 181 119
Width: 1055
GlyphClass: 1
Flags: W
LayerCount: 2
Fore
SplineSet
417 1082 m 1,0,-1
 319 427 l 2,1,2
 296 252 296 252 331 193 c 128,-1,3
 366 134 366 134 449 134 c 0,4,5
 526 134 526 134 582 174 c 128,-1,6
 638 214 638 214 675 289 c 1,7,-1
 793 1082 l 1,8,-1
 995 1082 l 1,9,-1
 833 0 l 1,10,-1
 647 0 l 1,11,-1
 654 86 l 1,12,13
 608 33 608 33 551 6 c 128,-1,14
 494 -21 494 -21 426 -21 c 0,15,16
 373 -21 373 -21 332 -5 c 128,-1,17
 291 11 291 11 262 47 c 1,18,-1
 193 -416 l 1,19,-1
 -9 -416 l 1,20,-1
 215 1082 l 1,21,-1
 417 1082 l 1,0,-1
EndSplineSet
EndChar

StartChar: paragraph
Encoding: 182 182 120
Width: 907
GlyphClass: 1
Flags: W
LayerCount: 2
Fore
SplineSet
479 0 m 1,0,-1
 557 520 l 1,1,-1
 483 520 l 2,2,3
 291 520 291 520 195 651 c 128,-1,4
 99 782 99 782 130 988 c 0,5,6
 162 1202 162 1202 291.5 1329 c 128,-1,7
 421 1456 421 1456 623 1456 c 2,8,-1
 900 1456 l 1,9,-1
 682 0 l 1,10,-1
 479 0 l 1,0,-1
EndSplineSet
EndChar

StartChar: periodcentered
Encoding: 183 183 121
Width: 508
GlyphClass: 1
Flags: W
LayerCount: 2
Fore
SplineSet
362 606 m 1,0,-1
 156 606 l 1,1,-1
 188 820 l 1,2,-1
 394 820 l 1,3,-1
 362 606 l 1,0,-1
EndSplineSet
EndChar

StartChar: cedilla
Encoding: 184 184 122
Width: 468
GlyphClass: 1
Flags: W
LayerCount: 2
Fore
SplineSet
198 2 m 1,0,-1
 179 -56 l 1,1,2
 234 -66 234 -66 265 -106.5 c 128,-1,3
 296 -147 296 -147 285 -228 c 0,4,5
 269 -329 269 -329 189 -384.5 c 128,-1,6
 109 -440 109 -440 -24 -438 c 1,7,-1
 -29 -435 l 1,8,-1
 -18 -329 l 1,9,10
 34 -329 34 -329 72 -303.5 c 128,-1,11
 110 -278 110 -278 118 -228 c 0,12,13
 125 -177 125 -177 99 -158 c 128,-1,14
 73 -139 73 -139 0 -132 c 1,15,-1
 46 2 l 1,16,-1
 198 2 l 1,0,-1
EndSplineSet
EndChar

StartChar: onesuperior
Encoding: 185 185 123
Width: 495
GlyphClass: 1
Flags: W
LayerCount: 2
Fore
SplineSet
371 665 m 1,0,-1
 211 665 l 1,1,-1
 311 1331 l 1,2,-1
 199 1328 l 1,3,-1
 218 1454 l 1,4,-1
 493 1477 l 1,5,-1
 371 665 l 1,0,-1
EndSplineSet
EndChar

StartChar: ordmasculine
Encoding: 186 186 124
Width: 816
GlyphClass: 1
Flags: W
LayerCount: 2
Fore
SplineSet
201 1142 m 2,0,1
 224 1295 224 1295 317.5 1386 c 128,-1,2
 411 1477 411 1477 547 1477 c 0,3,4
 677 1477 677 1477 745.5 1382.5 c 128,-1,5
 814 1288 814 1288 792 1142 c 2,6,-1
 775 1025 l 2,7,8
 751 870 751 870 659 780.5 c 128,-1,9
 567 691 567 691 431 691 c 0,10,11
 300 691 300 691 231 784.5 c 128,-1,12
 162 878 162 878 184 1025 c 2,13,-1
 201 1142 l 2,0,1
328 1025 m 2,14,15
 313 926 313 926 342.5 870 c 128,-1,16
 372 814 372 814 449 814 c 0,17,18
 519 814 519 814 568.5 873 c 128,-1,19
 618 932 618 932 632 1025 c 2,20,-1
 649 1142 l 2,21,22
 663 1237 663 1237 633 1294 c 128,-1,23
 603 1351 603 1351 528 1351 c 0,24,25
 457 1351 457 1351 407.5 1291.5 c 128,-1,26
 358 1232 358 1232 345 1142 c 2,27,-1
 328 1025 l 2,14,15
EndSplineSet
EndChar

StartChar: questiondown
Encoding: 191 191 129
Width: 889
GlyphClass: 1
Flags: W
LayerCount: 2
Fore
SplineSet
611 673 m 1,0,1
 589 539 589 539 553 481 c 128,-1,2
 517 423 517 423 409 331 c 1,3,4
 322 240 322 240 273 168 c 128,-1,5
 224 96 224 96 210 0 c 0,6,7
 192 -114 192 -114 229 -173.5 c 128,-1,8
 266 -233 266 -233 354 -233 c 0,9,10
 424 -233 424 -233 484 -176.5 c 128,-1,11
 544 -120 544 -120 560 -20 c 1,12,-1
 755 -20 l 1,13,-1
 757 -26 l 1,14,15
 733 -199 733 -199 613.5 -296.5 c 128,-1,16
 494 -394 494 -394 330 -394 c 0,17,18
 156 -394 156 -394 68 -288.5 c 128,-1,19
 -20 -183 -20 -183 7 -3 c 0,20,21
 26 130 26 130 100.5 232 c 128,-1,22
 175 334 175 334 296 440 c 0,23,24
 353 490 353 490 373 536.5 c 128,-1,25
 393 583 393 583 407 673 c 1,26,-1
 611 673 l 1,0,1
464 1082 m 1,27,-1
 673 1082 l 1,28,-1
 643 883 l 1,29,-1
 434 883 l 1,30,-1
 464 1082 l 1,27,-1
EndSplineSet
EndChar

StartChar: AE
Encoding: 198 198 136
Width: 1699
GlyphClass: 1
Flags: W
LayerCount: 2
Fore
SplineSet
1551 0 m 1,0,-1
 787 0 l 1,1,-1
 828 361 l 1,2,-1
 403 361 l 1,3,-1
 182 0 l 1,4,-1
 -60 0 l 1,5,-1
 872 1456 l 1,6,-1
 1716 1456 l 1,7,-1
 1693 1299 l 1,8,-1
 1138 1299 l 1,9,-1
 1085 832 l 1,10,-1
 1553 832 l 1,11,-1
 1530 677 l 1,12,-1
 1067 677 l 1,13,-1
 1008 155 l 1,14,-1
 1574 155 l 1,15,-1
 1551 0 l 1,0,-1
847 531 m 1,16,-1
 923 1196 l 1,17,-1
 918 1198 l 1,18,-1
 508 531 l 1,19,-1
 847 531 l 1,16,-1
EndSplineSet
EndChar

StartChar: Eth
Encoding: 208 208 146
Width: 1191
GlyphClass: 1
Flags: W
LayerCount: 2
Fore
SplineSet
59 0 m 1,0,-1
 159 670 l 1,1,-1
 29 670 l 1,2,-1
 50 811 l 1,3,-1
 180 811 l 1,4,-1
 277 1456 l 1,5,-1
 690 1456 l 2,6,7
 917 1456 917 1456 1044.5 1279 c 128,-1,8
 1172 1102 1172 1102 1132 831 c 2,9,-1
 1101 624 l 2,10,11
 1057 338 1057 338 884 169 c 128,-1,12
 711 0 711 0 472 0 c 2,13,-1
 59 0 l 1,0,-1
592 670 m 1,14,-1
 362 670 l 1,15,-1
 285 154 l 1,16,-1
 495 154 l 2,17,18
 639 154 639 154 752 287 c 128,-1,19
 865 420 865 420 896 624 c 2,20,-1
 927 833 l 2,21,22
 958 1045 958 1045 888.5 1172.5 c 128,-1,23
 819 1300 819 1300 667 1300 c 2,24,-1
 456 1300 l 1,25,-1
 383 811 l 1,26,-1
 613 811 l 1,27,-1
 592 670 l 1,14,-1
EndSplineSet
Substitution2: "'smcp' Lowercase to Small Capitals lookup 0 subtable" Eth.smcp
EndChar

StartChar: multiply
Encoding: 215 215 153
Width: 991
GlyphClass: 1
Flags: W
LayerCount: 2
Fore
SplineSet
48 344 m 1,0,-1
 398 683 l 1,1,-1
 152 1019 l 1,2,-1
 295 1138 l 1,3,-1
 532 813 l 1,4,-1
 867 1138 l 1,5,-1
 974 1019 l 1,6,-1
 627 683 l 1,7,-1
 876 344 l 1,8,-1
 734 225 l 1,9,-1
 493 553 l 1,10,-1
 155 225 l 1,11,-1
 48 344 l 1,0,-1
EndSplineSet
EndChar

StartChar: Oslash
Encoding: 216 216 154
Width: 1219
GlyphClass: 1
Flags: W
LayerCount: 2
Fore
SplineSet
1118 527 m 2,0,1
 1077 258 1077 258 918.5 118.5 c 128,-1,2
 760 -21 760 -21 521 -21 c 0,3,4
 448 -21 448 -21 384.5 -5 c 128,-1,5
 321 11 321 11 270 44 c 1,6,-1
 182 -90 l 1,7,-1
 61 -90 l 1,8,-1
 192 109 l 1,9,10
 127 180 127 180 102 286 c 128,-1,11
 77 392 77 392 97 527 c 2,12,-1
 157 927 l 2,13,14
 197 1196 197 1196 354 1336.5 c 128,-1,15
 511 1477 511 1477 745 1477 c 0,16,17
 831 1477 831 1477 905 1454 c 128,-1,18
 979 1431 979 1431 1036 1387 c 1,19,-1
 1119 1512 l 1,20,-1
 1240 1512 l 1,21,-1
 1108 1312 l 1,22,23
 1158 1240 1158 1240 1176.5 1143 c 128,-1,24
 1195 1046 1195 1046 1178 927 c 2,25,-1
 1118 527 l 2,0,1
299 527 m 2,26,27
 287 451 287 451 289.5 391 c 128,-1,28
 292 331 292 331 308 294 c 1,29,-1
 313 292 l 1,30,-1
 934 1231 l 1,31,32
 900 1274 900 1274 846.5 1295.5 c 128,-1,33
 793 1317 793 1317 721 1317 c 0,34,35
 580 1317 580 1317 483.5 1217.5 c 128,-1,36
 387 1118 387 1118 360 930 c 2,37,-1
 299 527 l 2,26,27
977 930 m 2,38,39
 985 984 985 984 985 1029.5 c 128,-1,40
 985 1075 985 1075 979 1107 c 1,41,-1
 973 1109 l 1,42,-1
 368 192 l 1,43,44
 399 163 399 163 443 150 c 128,-1,45
 487 137 487 137 545 137 c 0,46,47
 690 137 690 137 788.5 236.5 c 128,-1,48
 887 336 887 336 916 527 c 2,49,-1
 977 930 l 2,38,39
EndSplineSet
EndChar

StartChar: Thorn
Encoding: 222 222 160
Width: 1070
GlyphClass: 1
Flags: W
LayerCount: 2
Fore
SplineSet
476 1456 m 1,0,-1
 432 1166 l 1,1,-1
 650 1166 l 2,2,3
 850 1166 850 1166 952 1045.5 c 128,-1,4
 1054 925 1054 925 1026 738 c 0,5,6
 996 539 996 539 863.5 424 c 128,-1,7
 731 309 731 309 521 309 c 2,8,-1
 304 309 l 1,9,-1
 258 0 l 1,10,-1
 55 0 l 1,11,-1
 273 1456 l 1,12,-1
 476 1456 l 1,0,-1
409 1011 m 1,13,-1
 327 464 l 1,14,-1
 545 464 l 2,15,16
 658 464 658 464 731 544 c 128,-1,17
 804 624 804 624 821 736 c 0,18,19
 839 854 839 854 792.5 932.5 c 128,-1,20
 746 1011 746 1011 627 1011 c 2,21,-1
 409 1011 l 1,13,-1
EndSplineSet
EndChar

StartChar: germandbls
Encoding: 223 223 161
Width: 1093
GlyphClass: 1
Flags: W
LayerCount: 2
Fore
SplineSet
247 0 m 1,0,-1
 45 0 l 1,1,-1
 208 1088 l 2,2,3
 242 1312 242 1312 362.5 1427.5 c 128,-1,4
 483 1543 483 1543 659 1543 c 0,5,6
 798 1543 798 1543 881.5 1456 c 128,-1,7
 965 1369 965 1369 942 1210 c 0,8,9
 924 1092 924 1092 858.5 990 c 128,-1,10
 793 888 793 888 783 821 c 0,11,12
 770 739 770 739 888.5 599.5 c 128,-1,13
 1007 460 1007 460 987 320 c 0,14,15
 960 143 960 143 854.5 61 c 128,-1,16
 749 -21 749 -21 578 -21 c 0,17,18
 511 -21 511 -21 440 -1 c 128,-1,19
 369 19 369 19 340 49 c 1,20,-1
 403 203 l 1,21,22
 436 175 436 175 486 153.5 c 128,-1,23
 536 132 536 132 591 132 c 0,24,25
 668 132 668 132 719 182 c 128,-1,26
 770 232 770 232 783 313 c 0,27,28
 796 405 796 405 677.5 542.5 c 128,-1,29
 559 680 559 680 580 819 c 0,30,31
 593 913 593 913 661.5 1017 c 128,-1,32
 730 1121 730 1121 742 1198 c 0,33,34
 755 1287 755 1287 721 1338 c 128,-1,35
 687 1389 687 1389 631 1389 c 0,36,37
 555 1389 555 1389 493 1309 c 128,-1,38
 431 1229 431 1229 410 1086 c 2,39,-1
 247 0 l 1,0,-1
EndSplineSet
Substitution2: "'smcp' Lowercase to Small Capitals lookup 0 subtable" germandbls.smcp
EndChar

StartChar: ae
Encoding: 230 230 168
Width: 1545
GlyphClass: 1
Flags: W
LayerCount: 2
Fore
SplineSet
1029 -21 m 0,0,1
 919 -21 919 -21 838 25.5 c 128,-1,2
 757 72 757 72 712 157 c 1,3,4
 651 81 651 81 551 30 c 128,-1,5
 451 -21 451 -21 323 -21 c 0,6,7
 174 -21 174 -21 99 67 c 128,-1,8
 24 155 24 155 47 304 c 0,9,10
 70 463 70 463 185.5 545 c 128,-1,11
 301 627 301 627 501 627 c 2,12,-1
 679 627 l 1,13,-1
 693 716 l 2,14,15
 710 829 710 829 679 887.5 c 128,-1,16
 648 946 648 946 571 946 c 0,17,18
 493 946 493 946 435.5 891 c 128,-1,19
 378 836 378 836 367 757 c 1,20,-1
 174 773 l 1,21,-1
 173 779 l 1,22,23
 190 924 190 924 305.5 1013 c 128,-1,24
 421 1102 421 1102 595 1102 c 0,25,26
 684 1102 684 1102 752.5 1068.5 c 128,-1,27
 821 1035 821 1035 860 971 c 1,28,29
 923 1035 923 1035 1001.5 1068.5 c 128,-1,30
 1080 1102 1080 1102 1169 1102 c 0,31,32
 1345 1102 1345 1102 1430 972 c 128,-1,33
 1515 842 1515 842 1482 623 c 2,34,-1
 1464 499 l 1,35,-1
 869 499 l 1,36,37
 845 328 845 328 891 230.5 c 128,-1,38
 937 133 937 133 1066 133 c 0,39,40
 1147 133 1147 133 1211.5 160.5 c 128,-1,41
 1276 188 1276 188 1344 236 c 1,42,-1
 1385 104 l 1,43,44
 1328 56 1328 56 1235.5 17.5 c 128,-1,45
 1143 -21 1143 -21 1029 -21 c 0,0,1
384 127 m 0,46,47
 441 127 441 127 511.5 166.5 c 128,-1,48
 582 206 582 206 624 258 c 1,49,-1
 659 490 l 1,50,-1
 483 490 l 2,51,52
 390 490 390 490 325 434 c 128,-1,53
 260 378 260 378 249 300 c 0,54,55
 236 218 236 218 269.5 172.5 c 128,-1,56
 303 127 303 127 384 127 c 0,46,47
1146 946 m 0,57,58
 1057 946 1057 946 991.5 862 c 128,-1,59
 926 778 926 778 898 644 c 1,60,-1
 901 639 l 1,61,-1
 1284 639 l 1,62,-1
 1288 669 l 2,63,64
 1307 797 1307 797 1273.5 871.5 c 128,-1,65
 1240 946 1240 946 1146 946 c 0,57,58
EndSplineSet
EndChar

StartChar: eth
Encoding: 240 240 178
Width: 1053
GlyphClass: 1
Flags: W
LayerCount: 2
Fore
SplineSet
881 1302 m 1,0,1
 956 1198 956 1198 984 1059 c 128,-1,2
 1012 920 1012 920 988 751 c 2,3,-1
 956 538 l 2,4,5
 917 282 917 282 766.5 130.5 c 128,-1,6
 616 -21 616 -21 420 -21 c 0,7,8
 233 -21 233 -21 125.5 119 c 128,-1,9
 18 259 18 259 49 462 c 0,10,11
 85 701 85 701 220 834.5 c 128,-1,12
 355 968 355 968 549 968 c 0,13,14
 623 968 623 968 686 935 c 128,-1,15
 749 902 749 902 788 846 c 1,16,-1
 792 850 l 1,17,18
 801 960 801 960 779 1047.5 c 128,-1,19
 757 1135 757 1135 710 1199 c 1,20,-1
 445 1041 l 1,21,-1
 395 1135 l 1,22,-1
 634 1278 l 1,23,24
 602 1302 602 1302 565.5 1322 c 128,-1,25
 529 1342 529 1342 487 1360 c 1,26,-1
 575 1517 l 1,27,28
 642 1495 642 1495 701 1461 c 128,-1,29
 760 1427 760 1427 809 1383 c 1,30,-1
 1014 1505 l 1,31,-1
 1064 1411 l 1,32,-1
 881 1302 l 1,0,1
447 134 m 0,33,34
 553 134 553 134 639.5 248.5 c 128,-1,35
 726 363 726 363 753 538 c 2,36,-1
 774 681 l 1,37,38
 753 739 753 739 695 778 c 128,-1,39
 637 817 637 817 547 817 c 0,40,41
 440 817 440 817 357 715 c 128,-1,42
 274 613 274 613 252 462 c 0,43,44
 231 326 231 326 283 230 c 128,-1,45
 335 134 335 134 447 134 c 0,33,34
EndSplineSet
Substitution2: "'smcp' Lowercase to Small Capitals lookup 0 subtable" Eth.smcp
EndChar

StartChar: divide
Encoding: 247 247 185
Width: 1018
GlyphClass: 1
Flags: W
LayerCount: 2
Fore
SplineSet
947 608 m 1,0,-1
 75 608 l 1,1,-1
 101 779 l 1,2,-1
 973 779 l 1,3,-1
 947 608 l 1,0,-1
673 995 m 1,4,-1
 467 995 l 1,5,-1
 497 1190 l 1,6,-1
 703 1190 l 1,7,-1
 673 995 l 1,4,-1
552 188 m 1,8,-1
 346 188 l 1,9,-1
 375 383 l 1,10,-1
 581 383 l 1,11,-1
 552 188 l 1,8,-1
EndSplineSet
EndChar

StartChar: oslash
Encoding: 248 248 186
Width: 1009
GlyphClass: 1
Flags: W
LayerCount: 2
Fore
SplineSet
79 553 m 2,0,1
 116 803 116 803 251.5 952.5 c 128,-1,2
 387 1102 387 1102 588 1102 c 0,3,4
 632 1102 632 1102 673 1092 c 128,-1,5
 714 1082 714 1082 751 1064 c 1,6,-1
 836 1213 l 1,7,-1
 958 1213 l 1,8,-1
 835 998 l 1,9,10
 902 924 902 924 928 808.5 c 128,-1,11
 954 693 954 693 934 553 c 2,12,-1
 930 526 l 2,13,14
 892 275 892 275 757 127 c 128,-1,15
 622 -21 622 -21 422 -21 c 0,16,17
 379 -21 379 -21 341 -13 c 128,-1,18
 303 -5 303 -5 270 10 c 1,19,-1
 185 -139 l 1,20,-1
 64 -139 l 1,21,-1
 184 71 l 1,22,23
 110 143 110 143 81.5 261.5 c 128,-1,24
 53 380 53 380 75 526 c 2,25,-1
 79 553 l 2,0,1
279 526 m 2,26,27
 265 442 265 442 267 374 c 128,-1,28
 269 306 269 306 287 263 c 1,29,-1
 292 262 l 1,30,-1
 665 913 l 1,31,32
 645 929 645 929 620 937.5 c 128,-1,33
 595 946 595 946 565 946 c 0,34,35
 457 946 457 946 382 833 c 128,-1,36
 307 720 307 720 283 553 c 2,37,-1
 279 526 l 2,26,27
730 553 m 2,38,39
 741 628 741 628 740 691.5 c 128,-1,40
 739 755 739 755 726 797 c 1,41,-1
 720 798 l 1,42,-1
 354 157 l 1,43,44
 372 144 372 144 395 138.5 c 128,-1,45
 418 133 418 133 445 133 c 0,46,47
 551 133 551 133 625.5 245 c 128,-1,48
 700 357 700 357 726 526 c 2,49,-1
 730 553 l 2,38,39
EndSplineSet
EndChar

StartChar: thorn
Encoding: 254 254 192
Width: 1019
GlyphClass: 1
Flags: W
LayerCount: 2
Fore
SplineSet
935 507 m 2,0,1
 897 258 897 258 782 118.5 c 128,-1,2
 667 -21 667 -21 494 -21 c 0,3,4
 416 -21 416 -21 359.5 12 c 128,-1,5
 303 45 303 45 267 109 c 1,6,-1
 189 -416 l 1,7,-1
 -15 -416 l 1,8,-1
 47 0 l 1,9,-1
 44 0 l 1,10,-1
 278 1560 l 1,11,-1
 482 1560 l 1,12,-1
 393 966 l 1,13,14
 446 1032 446 1032 513 1067 c 128,-1,15
 580 1102 580 1102 661 1102 c 0,16,17
 826 1102 826 1102 901 943 c 128,-1,18
 976 784 976 784 938 528 c 2,19,-1
 935 507 l 2,0,1
734 528 m 2,20,21
 763 718 763 718 727 831 c 128,-1,22
 691 944 691 944 583 944 c 0,23,24
 517 944 517 944 463 905 c 128,-1,25
 409 866 409 866 371 801 c 1,26,-1
 290 260 l 1,27,28
 308 199 308 199 350.5 166 c 128,-1,29
 393 133 393 133 462 133 c 0,30,31
 565 133 565 133 635 236.5 c 128,-1,32
 705 340 705 340 731 507 c 2,33,-1
 734 528 l 2,20,21
EndSplineSet
EndChar

StartChar: Dcroat
Encoding: 272 272 210
Width: 1191
GlyphClass: 1
Flags: W
LayerCount: 2
Fore
SplineSet
59 0 m 1,0,-1
 159 670 l 1,1,-1
 29 670 l 1,2,-1
 50 811 l 1,3,-1
 180 811 l 1,4,-1
 277 1456 l 1,5,-1
 690 1456 l 2,6,7
 917 1456 917 1456 1044.5 1279 c 128,-1,8
 1172 1102 1172 1102 1132 831 c 2,9,-1
 1101 624 l 2,10,11
 1057 338 1057 338 884 169 c 128,-1,12
 711 0 711 0 472 0 c 2,13,-1
 59 0 l 1,0,-1
592 670 m 1,14,-1
 362 670 l 1,15,-1
 285 154 l 1,16,-1
 495 154 l 2,17,18
 639 154 639 154 752 287 c 128,-1,19
 865 420 865 420 896 624 c 2,20,-1
 927 833 l 2,21,22
 958 1045 958 1045 888.5 1172.5 c 128,-1,23
 819 1300 819 1300 667 1300 c 2,24,-1
 456 1300 l 1,25,-1
 383 811 l 1,26,-1
 613 811 l 1,27,-1
 592 670 l 1,14,-1
EndSplineSet
Substitution2: "'smcp' Lowercase to Small Capitals lookup 0 subtable" Dcroat.smcp
EndChar

StartChar: dcroat
Encoding: 273 273 211
Width: 1008
GlyphClass: 1
Flags: W
LayerCount: 2
Fore
SplineSet
1137 1238 m 1,0,-1
 992 1238 l 1,1,-1
 807 0 l 1,2,-1
 639 0 l 1,3,-1
 638 130 l 1,4,5
 582 56 582 56 511.5 17.5 c 128,-1,6
 441 -21 441 -21 356 -21 c 0,7,8
 192 -21 192 -21 115.5 125 c 128,-1,9
 39 271 39 271 75 507 c 2,10,-1
 78 528 l 2,11,12
 118 797 118 797 235 949.5 c 128,-1,13
 352 1102 352 1102 526 1102 c 0,14,15
 602 1102 602 1102 657.5 1065 c 128,-1,16
 713 1028 713 1028 748 960 c 1,17,-1
 790 1238 l 1,18,-1
 574 1238 l 1,19,-1
 595 1379 l 1,20,-1
 811 1379 l 1,21,-1
 838 1560 l 1,22,-1
 1041 1560 l 1,23,-1
 1013 1379 l 1,24,-1
 1158 1379 l 1,25,-1
 1137 1238 l 1,0,-1
277 507 m 2,26,27
 250 330 250 330 286 233 c 128,-1,28
 322 136 322 136 431 136 c 0,29,30
 497 136 497 136 551 173.5 c 128,-1,31
 605 211 605 211 646 278 c 1,32,-1
 724 797 l 1,33,34
 704 865 704 865 662.5 904.5 c 128,-1,35
 621 944 621 944 554 944 c 0,36,37
 451 944 451 944 379 827 c 128,-1,38
 307 710 307 710 280 528 c 2,39,-1
 277 507 l 2,26,27
EndSplineSet
Substitution2: "'smcp' Lowercase to Small Capitals lookup 0 subtable" Dcroat.smcp
EndChar

StartChar: Hbar
Encoding: 294 294 232
Width: 1251
GlyphClass: 1
Flags: W
LayerCount: 2
Fore
SplineSet
1216 1159 m 1,0,-1
 1327 1159 l 1,1,-1
 1307 1026 l 1,2,-1
 1196 1026 l 1,3,-1
 1043 0 l 1,4,-1
 840 0 l 1,5,-1
 936 642 l 1,6,-1
 366 642 l 1,7,-1
 270 0 l 1,8,-1
 67 0 l 1,9,-1
 220 1026 l 1,10,-1
 100 1026 l 1,11,-1
 120 1159 l 1,12,-1
 240 1159 l 1,13,-1
 285 1456 l 1,14,-1
 488 1456 l 1,15,-1
 443 1159 l 1,16,-1
 1013 1159 l 1,17,-1
 1058 1456 l 1,18,-1
 1261 1456 l 1,19,-1
 1216 1159 l 1,0,-1
389 797 m 1,20,-1
 959 797 l 1,21,-1
 993 1026 l 1,22,-1
 423 1026 l 1,23,-1
 389 797 l 1,20,-1
EndSplineSet
EndChar

StartChar: hbar
Encoding: 295 295 233
Width: 1008
GlyphClass: 1
Flags: W
LayerCount: 2
Fore
SplineSet
661 1237 m 1,0,-1
 423 1237 l 1,1,-1
 379 943 l 1,2,3
 436 1019 436 1019 509.5 1060.5 c 128,-1,4
 583 1102 583 1102 666 1102 c 0,5,6
 808 1102 808 1102 877 993 c 128,-1,7
 946 884 946 884 913 662 c 2,8,-1
 814 0 l 1,9,-1
 610 0 l 1,10,-1
 710 664 l 2,11,12
 732 819 732 819 699.5 881.5 c 128,-1,13
 667 944 667 944 582 944 c 0,14,15
 514 944 514 944 457.5 908 c 128,-1,16
 401 872 401 872 359 809 c 1,17,-1
 238 0 l 1,18,-1
 34 0 l 1,19,-1
 219 1237 l 1,20,-1
 98 1237 l 1,21,-1
 119 1378 l 1,22,-1
 240 1378 l 1,23,-1
 268 1560 l 1,24,-1
 472 1560 l 1,25,-1
 444 1378 l 1,26,-1
 682 1378 l 1,27,-1
 661 1237 l 1,0,-1
EndSplineSet
EndChar

StartChar: dotlessi
Encoding: 305 305 243
Width: 470
GlyphClass: 1
Flags: W
LayerCount: 2
Fore
SplineSet
254 0 m 1,0,-1
 51 0 l 1,1,-1
 213 1082 l 1,2,-1
 416 1082 l 1,3,-1
 254 0 l 1,0,-1
EndSplineSet
EndChar

StartChar: kgreenlandic
Encoding: 312 312 250
Width: 1023
GlyphClass: 1
Flags: W
LayerCount: 2
Fore
SplineSet
413 457 m 1,0,-1
 320 457 l 1,1,-1
 252 0 l 1,2,-1
 49 0 l 1,3,-1
 211 1082 l 1,4,-1
 414 1082 l 1,5,-1
 346 629 l 1,6,-1
 425 629 l 1,7,-1
 783 1082 l 1,8,-1
 1030 1082 l 1,9,-1
 1032 1077 l 1,10,-1
 592 574 l 1,11,-1
 897 0 l 1,12,-1
 638 0 l 1,13,-1
 413 457 l 1,0,-1
EndSplineSet
EndChar

StartChar: Lslash
Encoding: 321 321 259
Width: 923
GlyphClass: 1
Flags: W
LayerCount: 2
Fore
SplineSet
382 851 m 1,0,-1
 621 931 l 1,1,-1
 598 780 l 1,2,-1
 360 700 l 1,3,-1
 278 154 l 1,4,-1
 867 154 l 1,5,-1
 844 0 l 1,6,-1
 52 0 l 1,7,-1
 146 629 l 1,8,-1
 36 593 l 1,9,-1
 59 744 l 1,10,-1
 169 780 l 1,11,-1
 270 1456 l 1,12,-1
 473 1456 l 1,13,-1
 382 851 l 1,0,-1
EndSplineSet
EndChar

StartChar: lslash
Encoding: 322 322 260
Width: 507
GlyphClass: 1
Flags: W
LayerCount: 2
Fore
SplineSet
406 884 m 1,0,-1
 542 937 l 1,1,-1
 519 786 l 1,2,-1
 384 733 l 1,3,-1
 274 0 l 1,4,-1
 70 0 l 1,5,-1
 167 649 l 1,6,-1
 38 599 l 1,7,-1
 61 750 l 1,8,-1
 190 800 l 1,9,-1
 304 1560 l 1,10,-1
 508 1560 l 1,11,-1
 406 884 l 1,0,-1
EndSplineSet
EndChar

StartChar: Eng
Encoding: 330 330 268
Width: 1243
GlyphClass: 1
Flags: W
LayerCount: 2
Fore
SplineSet
1250 1456 m 1,0,-1
 1021 -74 l 2,1,2
 993 -254 993 -254 900 -345.5 c 128,-1,3
 807 -437 807 -437 663 -437 c 0,4,5
 634 -437 634 -437 608.5 -432.5 c 128,-1,6
 583 -428 583 -428 555 -419 c 1,7,-1
 590 -268 l 1,8,9
 605 -273 605 -273 629.5 -277 c 128,-1,10
 654 -281 654 -281 673 -281 c 0,11,12
 724 -281 724 -281 763 -226 c 128,-1,13
 802 -171 802 -171 817 -74 c 2,14,-1
 828 0 l 1,15,-1
 424 1072 l 1,16,-1
 418 1071 l 1,17,-1
 258 0 l 1,18,-1
 54 0 l 1,19,-1
 272 1456 l 1,20,-1
 476 1456 l 1,21,-1
 880 384 l 1,22,-1
 886 385 l 1,23,-1
 1046 1456 l 1,24,-1
 1250 1456 l 1,0,-1
EndSplineSet
EndChar

StartChar: eng
Encoding: 331 331 269
Width: 1008
GlyphClass: 1
Flags: W
LayerCount: 2
Fore
SplineSet
372 932 m 1,0,1
 430 1014 430 1014 505.5 1058 c 128,-1,2
 581 1102 581 1102 669 1102 c 0,3,4
 809 1102 809 1102 875.5 995 c 128,-1,5
 942 888 942 888 910 666 c 2,6,-1
 799 -74 l 2,7,8
 771 -254 771 -254 678 -345.5 c 128,-1,9
 585 -437 585 -437 441 -437 c 0,10,11
 411 -437 411 -437 385 -432.5 c 128,-1,12
 359 -428 359 -428 333 -419 c 1,13,-1
 368 -262 l 1,14,15
 383 -267 383 -267 408 -271.5 c 128,-1,16
 433 -276 433 -276 452 -276 c 0,17,18
 503 -276 503 -276 541.5 -223 c 128,-1,19
 580 -170 580 -170 595 -74 c 2,20,-1
 706 665 l 2,21,22
 729 824 729 824 696 884 c 128,-1,23
 663 944 663 944 576 944 c 0,24,25
 511 944 511 944 456.5 908.5 c 128,-1,26
 402 873 402 873 361 810 c 1,27,-1
 239 0 l 1,28,-1
 35 0 l 1,29,-1
 197 1082 l 1,30,-1
 383 1082 l 1,31,-1
 372 932 l 1,0,1
EndSplineSet
EndChar

StartChar: OE
Encoding: 338 338 276
Width: 1705
GlyphClass: 1
Flags: W
LayerCount: 2
Fore
SplineSet
1592 676 m 1,0,-1
 1098 676 l 1,1,-1
 1020 154 l 1,2,-1
 1602 154 l 1,3,-1
 1579 0 l 1,4,-1
 794 0 l 1,5,-1
 1012 1456 l 1,6,-1
 1792 1456 l 1,7,-1
 1769 1300 l 1,8,-1
 1191 1300 l 1,9,-1
 1121 831 l 1,10,-1
 1616 831 l 1,11,-1
 1592 676 l 1,0,-1
734 1477 m 0,12,13
 792 1477 792 1477 854.5 1471 c 128,-1,14
 917 1465 917 1465 982 1456 c 1,15,-1
 958 1296 l 1,16,17
 902 1308 902 1308 838.5 1315 c 128,-1,18
 775 1322 775 1322 710 1322 c 0,19,20
 577 1322 577 1322 478.5 1205.5 c 128,-1,21
 380 1089 380 1089 349 882 c 2,22,-1
 303 576 l 2,23,24
 270 358 270 358 332 246 c 128,-1,25
 394 134 394 134 534 134 c 0,26,27
 596 134 596 134 662.5 140.5 c 128,-1,28
 729 147 729 147 788 160 c 1,29,-1
 764 0 l 1,30,31
 685 -10 685 -10 626.5 -15.5 c 128,-1,32
 568 -21 568 -21 511 -21 c 0,33,34
 297 -21 297 -21 178.5 146.5 c 128,-1,35
 60 314 60 314 100 576 c 2,36,-1
 146 880 l 2,37,38
 187 1155 187 1155 348 1316 c 128,-1,39
 509 1477 509 1477 734 1477 c 0,12,13
EndSplineSet
EndChar

StartChar: oe
Encoding: 339 339 277
Width: 1609
GlyphClass: 1
Flags: W
LayerCount: 2
Fore
SplineSet
1205 -21 m 0,0,1
 1065 -21 1065 -21 974.5 58.5 c 128,-1,2
 884 138 884 138 856 277 c 1,3,4
 789 135 789 135 677 57 c 128,-1,5
 565 -21 565 -21 422 -21 c 0,6,7
 229 -21 229 -21 134 133 c 128,-1,8
 39 287 39 287 75 526 c 2,9,-1
 79 553 l 2,10,11
 116 803 116 803 251.5 952.5 c 128,-1,12
 387 1102 387 1102 588 1102 c 0,13,14
 723 1102 723 1102 812.5 1020 c 128,-1,15
 902 938 902 938 931 798 c 1,16,17
 998 941 998 941 1108.5 1021.5 c 128,-1,18
 1219 1102 1219 1102 1354 1102 c 0,19,20
 1532 1102 1532 1102 1612 969.5 c 128,-1,21
 1692 837 1692 837 1660 619 c 2,22,-1
 1643 505 l 1,23,-1
 1056 505 l 1,24,25
 1031 333 1031 333 1074.5 233 c 128,-1,26
 1118 133 1118 133 1242 133 c 0,27,28
 1324 133 1324 133 1393 160 c 128,-1,29
 1462 187 1462 187 1522 237 c 1,30,-1
 1569 111 l 1,31,32
 1506 55 1506 55 1412 17 c 128,-1,33
 1318 -21 1318 -21 1205 -21 c 0,0,1
279 526 m 2,34,35
 251 348 251 348 290.5 240.5 c 128,-1,36
 330 133 330 133 445 133 c 0,37,38
 551 133 551 133 625.5 245 c 128,-1,39
 700 357 700 357 726 526 c 2,40,-1
 730 553 l 2,41,42
 756 728 756 728 717 837 c 128,-1,43
 678 946 678 946 565 946 c 0,44,45
 457 946 457 946 382 833 c 128,-1,46
 307 720 307 720 283 553 c 2,47,-1
 279 526 l 2,34,35
1331 946 m 0,48,49
 1246 946 1246 946 1181 864 c 128,-1,50
 1116 782 1116 782 1087 654 c 1,51,-1
 1089 649 l 1,52,-1
 1464 649 l 1,53,-1
 1468 672 l 2,54,55
 1487 798 1487 798 1455 872 c 128,-1,56
 1423 946 1423 946 1331 946 c 0,48,49
EndSplineSet
EndChar

StartChar: Tbar
Encoding: 358 358 296
Width: 1045
GlyphClass: 1
Flags: W
LayerCount: 2
Fore
SplineSet
845 805 m 1,0,-1
 664 805 l 1,1,-1
 544 0 l 1,2,-1
 340 0 l 1,3,-1
 460 805 l 1,4,-1
 282 805 l 1,5,-1
 303 946 l 1,6,-1
 481 946 l 1,7,-1
 534 1300 l 1,8,-1
 152 1300 l 1,9,-1
 175 1456 l 1,10,-1
 1148 1456 l 1,11,-1
 1125 1300 l 1,12,-1
 738 1300 l 1,13,-1
 685 946 l 1,14,-1
 866 946 l 1,15,-1
 845 805 l 1,0,-1
EndSplineSet
Substitution2: "'smcp' Lowercase to Small Capitals lookup 0 subtable" Tbar.smcp
EndChar

StartChar: tbar
Encoding: 359 359 297
Width: 614
GlyphClass: 1
Flags: W
LayerCount: 2
Fore
SplineSet
501 1351 m 1,0,-1
 460 1082 l 1,1,-1
 629 1082 l 1,2,-1
 608 937 l 1,3,-1
 438 937 l 1,4,-1
 407 728 l 1,5,-1
 596 728 l 1,6,-1
 575 587 l 1,7,-1
 386 587 l 1,8,-1
 342 293 l 2,9,10
 328 205 328 205 348.5 171.5 c 128,-1,11
 369 138 369 138 412 138 c 0,12,13
 429 138 429 138 445 141 c 128,-1,14
 461 144 461 144 481 150 c 1,15,-1
 481 10 l 1,16,17
 450 -4 450 -4 413 -12.5 c 128,-1,18
 376 -21 376 -21 338 -21 c 0,19,20
 225 -21 225 -21 169 55 c 128,-1,21
 113 131 113 131 138 293 c 2,22,-1
 182 587 l 1,23,-1
 12 587 l 1,24,-1
 33 728 l 1,25,-1
 203 728 l 1,26,-1
 234 937 l 1,27,-1
 92 937 l 1,28,-1
 113 1082 l 1,29,-1
 256 1082 l 1,30,-1
 297 1351 l 1,31,-1
 501 1351 l 1,0,-1
EndSplineSet
Substitution2: "'smcp' Lowercase to Small Capitals lookup 0 subtable" Tbar.smcp
EndChar

StartChar: longs
Encoding: 383 383 321
Width: 458
GlyphClass: 1
Flags: W
LayerCount: 2
Fore
SplineSet
45 0 m 1,0,-1
 228 1221 l 2,1,2
 255 1400 255 1400 351 1490.5 c 128,-1,3
 447 1581 447 1581 599 1581 c 0,4,5
 628 1581 628 1581 659.5 1575 c 128,-1,6
 691 1569 691 1569 726 1560 c 1,7,-1
 684 1414 l 1,8,9
 664 1419 664 1419 646 1422 c 128,-1,10
 628 1425 628 1425 605 1425 c 0,11,12
 538 1425 538 1425 491.5 1371 c 128,-1,13
 445 1317 445 1317 431 1221 c 2,14,-1
 248 0 l 1,15,-1
 45 0 l 1,0,-1
EndSplineSet
EndChar

StartChar: florin
Encoding: 402 402 322
Width: 630
GlyphClass: 1
Flags: W
LayerCount: 2
Fore
SplineSet
617 937 m 1,0,-1
 440 937 l 1,1,-1
 298 -74 l 2,2,3
 272 -255 272 -255 180.5 -346 c 128,-1,4
 89 -437 89 -437 -55 -437 c 0,5,6
 -84 -437 -84 -437 -110 -432.5 c 128,-1,7
 -136 -428 -136 -428 -161 -419 c 1,8,-1
 -129 -268 l 1,9,10
 -115 -273 -115 -273 -90.5 -277 c 128,-1,11
 -66 -281 -66 -281 -46 -281 c 0,12,13
 4 -281 4 -281 42 -226 c 128,-1,14
 80 -171 80 -171 95 -74 c 2,15,-1
 236 937 l 1,16,-1
 93 937 l 1,17,-1
 113 1082 l 1,18,-1
 256 1082 l 1,19,-1
 276 1221 l 2,20,21
 301 1400 301 1400 395.5 1490.5 c 128,-1,22
 490 1581 490 1581 643 1581 c 0,23,24
 672 1581 672 1581 704 1575 c 128,-1,25
 736 1569 736 1569 770 1560 c 1,26,-1
 730 1411 l 1,27,28
 713 1416 713 1416 692 1419 c 128,-1,29
 671 1422 671 1422 646 1422 c 0,30,31
 580 1422 580 1422 536.5 1369.5 c 128,-1,32
 493 1317 493 1317 480 1221 c 2,33,-1
 460 1082 l 1,34,-1
 637 1082 l 1,35,-1
 617 937 l 1,0,-1
EndSplineSet
EndChar

StartChar: Ohorn
Encoding: 416 416 323
Width: 1237
GlyphClass: 1
Flags: W
LayerCount: 2
Fore
SplineSet
1113 527 m 2,0,1
 1072 258 1072 258 913.5 118.5 c 128,-1,2
 755 -21 755 -21 516 -21 c 0,3,4
 293 -21 293 -21 173 124.5 c 128,-1,5
 53 270 53 270 92 527 c 2,6,-1
 152 927 l 2,7,8
 192 1196 192 1196 349 1336.5 c 128,-1,9
 506 1477 506 1477 740 1477 c 0,10,11
 860 1477 860 1477 954.5 1433 c 128,-1,12
 1049 1389 1049 1389 1107 1307 c 1,13,14
 1196 1334 1196 1334 1255 1417.5 c 128,-1,15
 1314 1501 1314 1501 1334 1631 c 1,16,-1
 1503 1631 l 1,17,18
 1474 1442 1474 1442 1388.5 1326 c 128,-1,19
 1303 1210 1303 1210 1167 1169 c 1,20,21
 1179 1115 1179 1115 1181 1054.5 c 128,-1,22
 1183 994 1183 994 1173 927 c 2,23,-1
 1113 527 l 2,0,1
972 930 m 2,24,25
 1001 1128 1001 1128 935 1222.5 c 128,-1,26
 869 1317 869 1317 716 1317 c 0,27,28
 575 1317 575 1317 478.5 1217.5 c 128,-1,29
 382 1118 382 1118 355 930 c 2,30,-1
 294 527 l 2,31,32
 263 327 263 327 327.5 232 c 128,-1,33
 392 137 392 137 540 137 c 0,34,35
 685 137 685 137 783.5 236.5 c 128,-1,36
 882 336 882 336 911 527 c 2,37,-1
 972 930 l 2,24,25
EndSplineSet
EndChar

StartChar: ohorn
Encoding: 417 417 324
Width: 1028
GlyphClass: 1
Flags: W
LayerCount: 2
Fore
SplineSet
79 553 m 2,0,1
 116 803 116 803 251.5 952.5 c 128,-1,2
 387 1102 387 1102 588 1102 c 0,3,4
 676 1102 676 1102 745.5 1066 c 128,-1,5
 815 1030 815 1030 862 965 c 1,6,7
 929 991 929 991 973 1060 c 128,-1,8
 1017 1129 1017 1129 1033 1233 c 1,9,-1
 1193 1233 l 1,10,11
 1170 1084 1170 1084 1099.5 990 c 128,-1,12
 1029 896 1029 896 914 860 c 1,13,14
 936 795 936 795 941 717 c 128,-1,15
 946 639 946 639 934 553 c 2,16,-1
 930 526 l 2,17,18
 892 275 892 275 757 127 c 128,-1,19
 622 -21 622 -21 422 -21 c 0,20,21
 229 -21 229 -21 134 133 c 128,-1,22
 39 287 39 287 75 526 c 2,23,-1
 79 553 l 2,0,1
279 526 m 2,24,25
 251 348 251 348 290.5 240.5 c 128,-1,26
 330 133 330 133 445 133 c 0,27,28
 551 133 551 133 625.5 245 c 128,-1,29
 700 357 700 357 726 526 c 2,30,-1
 730 553 l 2,31,32
 756 728 756 728 717 837 c 128,-1,33
 678 946 678 946 565 946 c 0,34,35
 457 946 457 946 382 833 c 128,-1,36
 307 720 307 720 283 553 c 2,37,-1
 279 526 l 2,24,25
EndSplineSet
EndChar

StartChar: Uhorn
Encoding: 431 431 325
Width: 1254
GlyphClass: 1
Flags: W
LayerCount: 2
Fore
SplineSet
1230 1456 m 1,0,-1
 1203 1279 l 1,1,-1
 1209 1277 l 1,2,3
 1287 1299 1287 1299 1338 1383 c 128,-1,4
 1389 1467 1389 1467 1410 1602 c 1,5,-1
 1573 1602 l 1,6,-1
 1575 1597 l 1,7,8
 1546 1386 1546 1386 1447.5 1268 c 128,-1,9
 1349 1150 1349 1150 1180 1124 c 1,10,-1
 1086 493 l 2,11,12
 1048 242 1048 242 894 110.5 c 128,-1,13
 740 -21 740 -21 520 -21 c 0,14,15
 315 -21 315 -21 198 116.5 c 128,-1,16
 81 254 81 254 117 493 c 2,17,-1
 261 1456 l 1,18,-1
 464 1456 l 1,19,-1
 320 493 l 2,20,21
 293 318 293 318 355.5 225.5 c 128,-1,22
 418 133 418 133 543 133 c 0,23,24
 666 133 666 133 761 229 c 128,-1,25
 856 325 856 325 882 493 c 2,26,-1
 1026 1456 l 1,27,-1
 1230 1456 l 1,0,-1
EndSplineSet
EndChar

StartChar: uhorn
Encoding: 432 432 326
Width: 1028
GlyphClass: 1
Flags: W
LayerCount: 2
Fore
SplineSet
1297 1227 m 1,0,-1
 1300 1221 l 1,1,2
 1275 1041 1275 1041 1187 947 c 128,-1,3
 1099 853 1099 853 937 837 c 1,4,-1
 812 0 l 1,5,-1
 639 0 l 1,6,-1
 643 153 l 1,7,8
 588 68 588 68 512.5 23.5 c 128,-1,9
 437 -21 437 -21 346 -21 c 0,10,11
 202 -21 202 -21 132.5 95 c 128,-1,12
 63 211 63 211 100 451 c 2,13,-1
 194 1082 l 1,14,-1
 398 1082 l 1,15,-1
 303 449 l 2,16,17
 276 268 276 268 305.5 202 c 128,-1,18
 335 136 335 136 418 136 c 0,19,20
 492 136 492 136 550.5 173 c 128,-1,21
 609 210 609 210 650 278 c 1,22,-1
 770 1082 l 1,23,-1
 974 1082 l 1,24,-1
 957 967 l 1,25,-1
 962 964 l 1,26,27
 1041 974 1041 974 1086.5 1040 c 128,-1,28
 1132 1106 1132 1106 1151 1227 c 1,29,-1
 1297 1227 l 1,0,-1
EndSplineSet
EndChar

StartChar: uni0237
Encoding: 567 567 336
Width: 482
GlyphClass: 1
Flags: W
LayerCount: 2
Fore
SplineSet
430 1082 m 1,0,-1
 257 -74 l 2,1,2
 229 -255 229 -255 136.5 -346 c 128,-1,3
 44 -437 44 -437 -100 -437 c 0,4,5
 -128 -437 -128 -437 -153 -432.5 c 128,-1,6
 -178 -428 -178 -428 -206 -419 c 1,7,-1
 -171 -268 l 1,8,9
 -155 -273 -155 -273 -131.5 -277 c 128,-1,10
 -108 -281 -108 -281 -90 -281 c 0,11,12
 -38 -281 -38 -281 0.5 -225.5 c 128,-1,13
 39 -170 39 -170 54 -74 c 2,14,-1
 227 1082 l 1,15,-1
 430 1082 l 1,0,-1
EndSplineSet
EndChar

StartChar: circumflex
Encoding: 710 710 338
Width: 861
GlyphClass: 1
Flags: W
LayerCount: 2
Fore
SplineSet
825 1274 m 1,0,-1
 822 1252 l 1,1,-1
 658 1252 l 1,2,-1
 554 1403 l 1,3,-1
 408 1252 l 1,4,-1
 246 1252 l 1,5,-1
 249 1275 l 1,6,-1
 509 1507 l 1,7,-1
 632 1507 l 1,8,-1
 825 1274 l 1,0,-1
EndSplineSet
EndChar

StartChar: caron
Encoding: 711 711 339
Width: 817
GlyphClass: 1
Flags: W
LayerCount: 2
Fore
SplineSet
528 1359 m 1,0,-1
 665 1509 l 1,1,-1
 847 1509 l 1,2,-1
 845 1492 l 1,3,-1
 580 1252 l 1,4,-1
 445 1252 l 1,5,-1
 253 1491 l 1,6,-1
 255 1509 l 1,7,-1
 435 1509 l 1,8,-1
 528 1359 l 1,0,-1
EndSplineSet
EndChar

StartChar: breve
Encoding: 728 728 340
Width: 814
GlyphClass: 1
Flags: W
LayerCount: 2
Fore
SplineSet
812 1456 m 1,0,-1
 814 1450 l 1,1,2
 801 1327 801 1327 714 1255.5 c 128,-1,3
 627 1184 627 1184 494 1184 c 0,4,5
 366 1184 366 1184 296.5 1259 c 128,-1,6
 227 1334 227 1334 248 1451 c 1,7,-1
 250 1456 l 1,8,-1
 403 1456 l 1,9,10
 393 1387 393 1387 418 1346.5 c 128,-1,11
 443 1306 443 1306 511 1306 c 0,12,13
 573 1306 573 1306 611.5 1348.5 c 128,-1,14
 650 1391 650 1391 659 1456 c 1,15,-1
 812 1456 l 1,0,-1
EndSplineSet
EndChar

StartChar: dotaccent
Encoding: 729 729 341
Width: 516
GlyphClass: 1
Flags: W
LayerCount: 2
Fore
SplineSet
472 1259 m 1,0,-1
 243 1259 l 1,1,-1
 273 1459 l 1,2,-1
 502 1459 l 1,3,-1
 472 1259 l 1,0,-1
EndSplineSet
EndChar

StartChar: ring
Encoding: 730 730 342
Width: 629
GlyphClass: 1
Flags: W
LayerCount: 2
Fore
SplineSet
271 1313 m 0,0,1
 282 1385 282 1385 335 1431 c 128,-1,2
 388 1477 388 1477 456 1477 c 0,3,4
 519 1477 519 1477 558 1429 c 128,-1,5
 597 1381 597 1381 587 1313 c 0,6,7
 575 1240 575 1240 524 1196.5 c 128,-1,8
 473 1153 473 1153 407 1153 c 0,9,10
 342 1153 342 1153 301 1198.5 c 128,-1,11
 260 1244 260 1244 271 1313 c 0,0,1
363 1313 m 0,12,13
 357 1279 357 1279 373.5 1258.5 c 128,-1,14
 390 1238 390 1238 420 1238 c 0,15,16
 445 1238 445 1238 467 1259.5 c 128,-1,17
 489 1281 489 1281 494 1313 c 0,18,19
 499 1347 499 1347 484.5 1368.5 c 128,-1,20
 470 1390 470 1390 443 1390 c 0,21,22
 415 1390 415 1390 391.5 1368 c 128,-1,23
 368 1346 368 1346 363 1313 c 0,12,13
EndSplineSet
EndChar

StartChar: ogonek
Encoding: 731 731 343
Width: 516
GlyphClass: 1
Flags: W
LayerCount: 2
Fore
SplineSet
263 0 m 1,0,1
 201 -56 201 -56 167 -100 c 128,-1,2
 133 -144 133 -144 125 -197 c 0,3,4
 120 -232 120 -232 133 -255.5 c 128,-1,5
 146 -279 146 -279 191 -279 c 0,6,7
 215 -279 215 -279 237.5 -270.5 c 128,-1,8
 260 -262 260 -262 278 -252 c 1,9,-1
 290 -369 l 1,10,11
 257 -387 257 -387 217.5 -400 c 128,-1,12
 178 -413 178 -413 127 -413 c 0,13,14
 45 -413 45 -413 -3.5 -361 c 128,-1,15
 -52 -309 -52 -309 -39 -218 c 0,16,17
 -27 -139 -27 -139 27.5 -71.5 c 128,-1,18
 82 -4 82 -4 183 49 c 1,19,-1
 263 0 l 1,0,1
EndSplineSet
EndChar

StartChar: tilde
Encoding: 732 732 344
Width: 849
GlyphClass: 1
Flags: W
LayerCount: 2
Fore
SplineSet
863 1484 m 1,0,1
 849 1389 849 1389 790.5 1327.5 c 128,-1,2
 732 1266 732 1266 654 1266 c 0,3,4
 596 1266 596 1266 530.5 1315 c 128,-1,5
 465 1364 465 1364 420 1364 c 0,6,7
 387 1364 387 1364 358 1330.5 c 128,-1,8
 329 1297 329 1297 323 1248 c 1,9,-1
 216 1276 l 1,10,11
 228 1370 228 1370 287 1433 c 128,-1,12
 346 1496 346 1496 424 1496 c 0,13,14
 470 1496 470 1496 542 1446.5 c 128,-1,15
 614 1397 614 1397 659 1397 c 0,16,17
 691 1397 691 1397 720.5 1431.5 c 128,-1,18
 750 1466 750 1466 757 1515 c 1,19,-1
 863 1484 l 1,0,1
EndSplineSet
EndChar

StartChar: hungarumlaut
Encoding: 733 733 345
Width: 720
GlyphClass: 1
Flags: W
LayerCount: 2
Fore
SplineSet
734 1518 m 1,0,-1
 944 1518 l 1,1,-1
 946 1512 l 1,2,-1
 655 1252 l 1,3,-1
 488 1252 l 1,4,-1
 485 1258 l 1,5,-1
 734 1518 l 1,0,-1
430 1518 m 1,6,-1
 629 1518 l 1,7,-1
 632 1512 l 1,8,-1
 386 1252 l 1,9,-1
 221 1252 l 1,10,-1
 430 1518 l 1,6,-1
EndSplineSet
EndChar

StartChar: uni02F3
Encoding: 755 755 346
Width: 586
GlyphClass: 1
Flags: W
LayerCount: 2
Fore
SplineSet
39 -228 m 0,0,1
 48 -163 48 -163 96 -121.5 c 128,-1,2
 144 -80 144 -80 206 -80 c 0,3,4
 263 -80 263 -80 299 -122.5 c 128,-1,5
 335 -165 335 -165 327 -228 c 0,6,7
 316 -293 316 -293 269.5 -332.5 c 128,-1,8
 223 -372 223 -372 162 -372 c 0,9,10
 103 -372 103 -372 66 -331 c 128,-1,11
 29 -290 29 -290 39 -228 c 0,0,1
124 -228 m 0,12,13
 119 -256 119 -256 133.5 -274.5 c 128,-1,14
 148 -293 148 -293 174 -293 c 0,15,16
 197 -293 197 -293 216.5 -274.5 c 128,-1,17
 236 -256 236 -256 241 -228 c 0,18,19
 245 -197 245 -197 231.5 -178.5 c 128,-1,20
 218 -160 218 -160 194 -160 c 0,21,22
 169 -160 169 -160 148.5 -179.5 c 128,-1,23
 128 -199 128 -199 124 -228 c 0,12,13
EndSplineSet
EndChar

StartChar: hook
Encoding: 777 777 350
Width: 13
GlyphClass: 1
Flags: W
LayerCount: 2
Fore
SplineSet
-475 1245 m 1,0,-1
 -462 1382 l 1,1,2
 -394 1387 -394 1387 -363 1403.5 c 128,-1,3
 -332 1420 -332 1420 -327 1461 c 0,4,5
 -320 1503 -320 1503 -355 1523 c 128,-1,6
 -390 1543 -390 1543 -449 1543 c 1,7,-1
 -427 1646 l 1,8,9
 -283 1646 -283 1646 -214.5 1598 c 128,-1,10
 -146 1550 -146 1550 -160 1462 c 0,11,12
 -170 1393 -170 1393 -214 1355.5 c 128,-1,13
 -258 1318 -258 1318 -316 1310 c 1,14,-1
 -325 1245 l 1,15,-1
 -475 1245 l 1,0,-1
EndSplineSet
EndChar

StartChar: uni030F
Encoding: 783 783 351
Width: 13
GlyphClass: 1
Flags: W
LayerCount: 2
Fore
SplineSet
-325 1252 m 1,0,-1
 -500 1252 l 1,1,-1
 -712 1513 l 1,2,-1
 -709 1518 l 1,3,-1
 -498 1518 l 1,4,-1
 -325 1252 l 1,0,-1
-65 1252 m 1,5,-1
 -231 1252 l 1,6,-1
 -402 1518 l 1,7,-1
 -194 1518 l 1,8,-1
 -65 1252 l 1,5,-1
EndSplineSet
EndChar

StartChar: dotbelow
Encoding: 803 803 352
Width: 13
GlyphClass: 1
Flags: W
LayerCount: 2
Fore
SplineSet
-522 -333 m 1,0,-1
 -751 -333 l 1,1,-1
 -721 -133 l 1,2,-1
 -492 -133 l 1,3,-1
 -522 -333 l 1,0,-1
EndSplineSet
EndChar

StartChar: tonos
Encoding: 900 900 353
Width: 539
GlyphClass: 1
Flags: W
LayerCount: 2
Fore
SplineSet
391 1540 m 1,0,-1
 594 1540 l 1,1,-1
 408 1284 l 1,2,-1
 313 1284 l 1,3,-1
 391 1540 l 1,0,-1
EndSplineSet
EndChar

StartChar: dieresistonos
Encoding: 901 901 354
Width: 940
GlyphClass: 1
Flags: W
LayerCount: 2
Fore
SplineSet
897 1274 m 1,0,-1
 706 1274 l 1,1,-1
 733 1456 l 1,2,-1
 924 1456 l 1,3,-1
 897 1274 l 1,0,-1
444 1274 m 1,4,-1
 253 1274 l 1,5,-1
 280 1456 l 1,6,-1
 471 1456 l 1,7,-1
 444 1274 l 1,4,-1
620 1722 m 1,8,-1
 831 1722 l 1,9,-1
 665 1472 l 1,10,-1
 545 1472 l 1,11,-1
 620 1722 l 1,8,-1
EndSplineSet
EndChar

StartChar: Gamma
Encoding: 915 915 366
Width: 985
GlyphClass: 1
Flags: W
LayerCount: 2
Fore
SplineSet
1040 1300 m 1,0,-1
 453 1300 l 1,1,-1
 258 0 l 1,2,-1
 54 0 l 1,3,-1
 272 1456 l 1,4,-1
 1063 1456 l 1,5,-1
 1040 1300 l 1,0,-1
EndSplineSet
EndChar

StartChar: Delta
Encoding: 916 916 367
AltUni2: 002206.ffffffff.0 002206.ffffffff.0
Width: 1276
GlyphClass: 1
Flags: W
LayerCount: 2
Fore
SplineSet
684 1456 m 1,0,-1
 881 1456 l 1,1,-1
 1159 0 l 1,2,-1
 -50 0 l 1,3,-1
 684 1456 l 1,0,-1
236 154 m 1,4,-1
 921 154 l 1,5,-1
 742 1168 l 1,6,-1
 736 1169 l 1,7,-1
 236 154 l 1,4,-1
EndSplineSet
EndChar

StartChar: Theta
Encoding: 920 920 371
Width: 1219
GlyphClass: 1
Flags: W
LayerCount: 2
Fore
SplineSet
825 652 m 1,0,-1
 439 652 l 1,1,-1
 462 806 l 1,2,-1
 848 806 l 1,3,-1
 825 652 l 1,0,-1
1118 527 m 2,4,5
 1077 258 1077 258 918.5 118.5 c 128,-1,6
 760 -21 760 -21 521 -21 c 0,7,8
 298 -21 298 -21 178 124.5 c 128,-1,9
 58 270 58 270 97 527 c 2,10,-1
 157 927 l 2,11,12
 197 1196 197 1196 354 1336.5 c 128,-1,13
 511 1477 511 1477 745 1477 c 0,14,15
 972 1477 972 1477 1094 1330 c 128,-1,16
 1216 1183 1216 1183 1178 927 c 2,17,-1
 1118 527 l 2,4,5
977 930 m 2,18,19
 1006 1128 1006 1128 940 1222.5 c 128,-1,20
 874 1317 874 1317 721 1317 c 0,21,22
 580 1317 580 1317 483.5 1217.5 c 128,-1,23
 387 1118 387 1118 360 930 c 2,24,-1
 299 527 l 2,25,26
 268 327 268 327 332.5 232 c 128,-1,27
 397 137 397 137 545 137 c 0,28,29
 690 137 690 137 788.5 236.5 c 128,-1,30
 887 336 887 336 916 527 c 2,31,-1
 977 930 l 2,18,19
EndSplineSet
EndChar

StartChar: Lambda
Encoding: 923 923 374
Width: 1161
GlyphClass: 1
Flags: W
LayerCount: 2
Fore
SplineSet
678 1191 m 1,0,-1
 672 1191 l 1,1,-1
 169 0 l 1,2,-1
 -42 0 l 1,3,-1
 617 1456 l 1,4,-1
 815 1456 l 1,5,-1
 1038 0 l 1,6,-1
 827 0 l 1,7,-1
 678 1191 l 1,0,-1
EndSplineSet
EndChar

StartChar: Xi
Encoding: 926 926 377
Width: 1015
GlyphClass: 1
Flags: W
LayerCount: 2
Fore
SplineSet
44 154 m 1,0,-1
 867 154 l 1,1,-1
 844 0 l 1,2,-1
 21 0 l 1,3,-1
 44 154 l 1,0,-1
229 817 m 1,4,-1
 877 817 l 1,5,-1
 854 665 l 1,6,-1
 206 665 l 1,7,-1
 229 817 l 1,4,-1
249 1456 m 1,8,-1
 1037 1456 l 1,9,-1
 1014 1301 l 1,10,-1
 226 1301 l 1,11,-1
 249 1456 l 1,8,-1
EndSplineSet
EndChar

StartChar: Pi
Encoding: 928 928 379
Width: 1253
GlyphClass: 1
Flags: W
LayerCount: 2
Fore
SplineSet
1035 0 m 1,0,-1
 832 0 l 1,1,-1
 1027 1300 l 1,2,-1
 456 1300 l 1,3,-1
 261 0 l 1,4,-1
 57 0 l 1,5,-1
 275 1456 l 1,6,-1
 1253 1456 l 1,7,-1
 1035 0 l 1,0,-1
EndSplineSet
EndChar

StartChar: Sigma
Encoding: 931 931 381
Width: 1015
GlyphClass: 1
Flags: W
LayerCount: 2
Fore
SplineSet
711 729 m 1,0,-1
 256 159 l 1,1,-1
 259 154 l 1,2,-1
 893 154 l 1,3,-1
 870 0 l 1,4,-1
 -13 0 l 1,5,-1
 6 126 l 1,6,-1
 497 741 l 1,7,-1
 186 1329 l 1,8,-1
 205 1456 l 1,9,-1
 1055 1456 l 1,10,-1
 1032 1301 l 1,11,-1
 428 1301 l 1,12,-1
 715 756 l 1,13,-1
 711 729 l 1,0,-1
EndSplineSet
EndChar

StartChar: Phi
Encoding: 934 934 384
Width: 1280
GlyphClass: 1
Flags: W
LayerCount: 2
Fore
SplineSet
852 1236 m 1,0,1
 1050 1224 1050 1224 1164 1080.5 c 128,-1,2
 1278 937 1278 937 1246 721 c 0,3,4
 1212 494 1212 494 1060 355 c 128,-1,5
 908 216 908 216 698 207 c 1,6,-1
 667 0 l 1,7,-1
 463 0 l 1,8,-1
 494 207 l 1,9,10
 294 216 294 216 179.5 359.5 c 128,-1,11
 65 503 65 503 98 719 c 0,12,13
 131 946 131 946 283.5 1086 c 128,-1,14
 436 1226 436 1226 648 1236 c 1,15,-1
 681 1456 l 1,16,-1
 885 1456 l 1,17,-1
 852 1236 l 1,0,1
298 719 m 0,18,19
 273 558 273 558 330.5 467 c 128,-1,20
 388 376 388 376 513 373 c 1,21,-1
 519 375 l 1,22,-1
 622 1067 l 1,23,-1
 617 1069 l 1,24,25
 497 1064 497 1064 408.5 967.5 c 128,-1,26
 320 871 320 871 298 719 c 0,18,19
1045 721 m 0,27,28
 1068 882 1068 882 1011.5 973.5 c 128,-1,29
 955 1065 955 1065 833 1069 c 1,30,-1
 827 1068 l 1,31,-1
 724 376 l 1,32,-1
 729 374 l 1,33,34
 847 378 847 378 934 473 c 128,-1,35
 1021 568 1021 568 1045 721 c 0,27,28
EndSplineSet
EndChar

StartChar: Psi
Encoding: 936 936 386
Width: 1261
GlyphClass: 1
Flags: W
LayerCount: 2
Fore
SplineSet
721 509 m 1,0,-1
 726 507 l 1,1,2
 840 523 840 523 922.5 628 c 128,-1,3
 1005 733 1005 733 1031 905 c 2,4,-1
 1113 1456 l 1,5,-1
 1317 1456 l 1,6,-1
 1235 905 l 2,7,8
 1195 648 1195 648 1051.5 503.5 c 128,-1,9
 908 359 908 359 695 338 c 1,10,-1
 645 0 l 1,11,-1
 442 0 l 1,12,-1
 492 339 l 1,13,14
 295 361 295 361 192 510.5 c 128,-1,15
 89 660 89 660 127 905 c 2,16,-1
 209 1456 l 1,17,-1
 412 1456 l 1,18,-1
 330 905 l 2,19,20
 302 727 302 727 351.5 625 c 128,-1,21
 401 523 401 523 512 507 c 1,22,-1
 518 507 l 1,23,-1
 660 1456 l 1,24,-1
 863 1456 l 1,25,-1
 721 509 l 1,0,-1
EndSplineSet
EndChar

StartChar: Omega
Encoding: 937 937 387
AltUni2: 002126.ffffffff.0 002126.ffffffff.0
Width: 1189
GlyphClass: 1
Flags: W
LayerCount: 2
Fore
SplineSet
570 67 m 1,0,-1
 583 155 l 1,1,-1
 585 164 l 1,2,3
 691 199 691 199 769 341.5 c 128,-1,4
 847 484 847 484 886 737 c 2,5,-1
 902 848 l 2,6,7
 936 1079 936 1079 883 1199.5 c 128,-1,8
 830 1320 830 1320 703 1320 c 0,9,10
 583 1320 583 1320 490.5 1194 c 128,-1,11
 398 1068 398 1068 365 848 c 2,12,-1
 349 737 l 2,13,14
 308 473 308 473 345.5 336 c 128,-1,15
 383 199 383 199 483 164 c 1,16,-1
 468 67 l 1,17,-1
 458 0 l 1,18,-1
 32 0 l 1,19,-1
 55 155 l 1,20,-1
 294 155 l 1,21,22
 194 245 194 245 149 399.5 c 128,-1,23
 104 554 104 554 132 737 c 2,24,-1
 148 846 l 2,25,26
 191 1137 191 1137 350 1307 c 128,-1,27
 509 1477 509 1477 727 1477 c 0,28,29
 936 1477 936 1477 1048 1300 c 128,-1,30
 1160 1123 1160 1123 1119 846 c 2,31,-1
 1103 737 l 2,32,33
 1073 548 1073 548 983 395.5 c 128,-1,34
 893 243 893 243 769 155 c 1,35,-1
 1010 155 l 1,36,-1
 987 0 l 1,37,-1
 560 0 l 1,38,-1
 570 67 l 1,0,-1
EndSplineSet
EndChar

StartChar: alpha
Encoding: 945 945 395
Width: 1008
GlyphClass: 1
Flags: W
LayerCount: 2
Fore
SplineSet
959 1081 m 1,0,-1
 839 282 l 2,1,2
 827 200 827 200 839 171 c 128,-1,3
 851 142 851 142 884 142 c 0,4,5
 895 142 895 142 905.5 143.5 c 128,-1,6
 916 145 916 145 925 149 c 1,7,-1
 924 6 l 1,8,9
 895 -9 895 -9 867.5 -15 c 128,-1,10
 840 -21 840 -21 808 -21 c 0,11,12
 738 -21 738 -21 693 13 c 128,-1,13
 648 47 648 47 635 119 c 1,14,15
 580 50 580 50 511 14.5 c 128,-1,16
 442 -21 442 -21 359 -21 c 0,17,18
 195 -21 195 -21 118 125 c 128,-1,19
 41 271 41 271 77 507 c 2,20,-1
 80 528 l 2,21,22
 120 798 120 798 237 950 c 128,-1,23
 354 1102 354 1102 529 1102 c 0,24,25
 609 1102 609 1102 666.5 1063 c 128,-1,26
 724 1024 724 1024 759 951 c 1,27,-1
 818 1081 l 1,28,-1
 959 1081 l 1,0,-1
280 507 m 2,29,30
 253 330 253 330 288.5 231.5 c 128,-1,31
 324 133 324 133 433 133 c 0,32,33
 494 133 494 133 544.5 166.5 c 128,-1,34
 595 200 595 200 633 260 c 1,35,-1
 636 282 l 1,36,-1
 716 817 l 1,37,38
 696 877 696 877 657 911.5 c 128,-1,39
 618 946 618 946 556 946 c 0,40,41
 454 946 454 946 382 828 c 128,-1,42
 310 710 310 710 283 528 c 2,43,-1
 280 507 l 2,29,30
EndSplineSet
EndChar

StartChar: beta
Encoding: 946 946 396
Width: 1064
GlyphClass: 1
Flags: W
LayerCount: 2
Fore
SplineSet
678 1477 m 256,0,1
 846 1477 846 1477 938 1368.5 c 128,-1,2
 1030 1260 1030 1260 1004 1086 c 0,3,4
 988 984 988 984 931.5 904.5 c 128,-1,5
 875 825 875 825 788 780 c 1,6,7
 887 736 887 736 933 638.5 c 128,-1,8
 979 541 979 541 961 413 c 0,9,10
 928 200 928 200 807.5 89.5 c 128,-1,11
 687 -21 687 -21 509 -21 c 0,12,13
 443 -21 443 -21 380 0.5 c 128,-1,14
 317 22 317 22 270 65 c 1,15,-1
 201 -395 l 1,16,-1
 -2 -395 l 1,17,-1
 216 1057 l 2,18,19
 243 1242 243 1242 376.5 1359.5 c 128,-1,20
 510 1477 510 1477 678 1477 c 256,0,1
515 845 m 1,21,-1
 579 845 l 2,22,23
 671 845 671 845 727 908 c 128,-1,24
 783 971 783 971 800 1083 c 0,25,26
 815 1183 815 1183 778 1252 c 128,-1,27
 741 1321 741 1321 654 1321 c 0,28,29
 573 1321 573 1321 504 1245.5 c 128,-1,30
 435 1170 435 1170 419 1057 c 2,31,-1
 294 223 l 1,32,33
 323 180 323 180 375 156.5 c 128,-1,34
 427 133 427 133 495 133 c 0,35,36
 593 133 593 133 665.5 210 c 128,-1,37
 738 287 738 287 757 411 c 0,38,39
 775 538 775 538 733.5 616.5 c 128,-1,40
 692 695 692 695 595 695 c 2,41,-1
 492 695 l 1,42,-1
 505 780 l 1,43,-1
 510 810 l 1,44,-1
 515 845 l 1,21,-1
EndSplineSet
EndChar

StartChar: gamma
Encoding: 947 947 397
Width: 904
GlyphClass: 1
Flags: W
LayerCount: 2
Fore
SplineSet
747 1082 m 1,0,-1
 957 1082 l 1,1,-1
 482 38 l 1,2,-1
 414 -417 l 1,3,-1
 210 -417 l 1,4,-1
 278 37 l 1,5,-1
 114 1082 l 1,6,-1
 326 1082 l 1,7,-1
 404 325 l 1,8,-1
 408 239 l 1,9,-1
 414 239 l 1,10,-1
 445 325 l 1,11,-1
 747 1082 l 1,0,-1
EndSplineSet
EndChar

StartChar: delta
Encoding: 948 948 398
Width: 1008
GlyphClass: 1
Flags: W
LayerCount: 2
Fore
SplineSet
970 1456 m 1,0,-1
 947 1303 l 1,1,-1
 566 1303 l 1,2,-1
 564 1298 l 1,3,-1
 797 1027 l 1,4,5
 878 951 878 951 917 826.5 c 128,-1,6
 956 702 956 702 934 553 c 2,7,-1
 930 526 l 2,8,9
 892 275 892 275 757 127 c 128,-1,10
 622 -21 622 -21 422 -21 c 0,11,12
 229 -21 229 -21 133.5 130.5 c 128,-1,13
 38 282 38 282 74 518 c 2,14,-1
 78 545 l 2,15,16
 111 768 111 768 225 910.5 c 128,-1,17
 339 1053 339 1053 498 1078 c 1,18,-1
 506 1078 l 1,19,-1
 508 1083 l 1,20,-1
 286 1333 l 1,21,-1
 304 1456 l 1,22,-1
 970 1456 l 1,0,-1
565 946 m 0,23,24
 457 946 457 946 382 833 c 128,-1,25
 307 720 307 720 283 553 c 2,26,-1
 279 526 l 2,27,28
 251 348 251 348 290.5 240.5 c 128,-1,29
 330 133 330 133 445 133 c 0,30,31
 551 133 551 133 625.5 245 c 128,-1,32
 700 357 700 357 726 526 c 2,33,-1
 730 553 l 2,34,35
 756 728 756 728 717 837 c 128,-1,36
 678 946 678 946 565 946 c 0,23,24
EndSplineSet
EndChar

StartChar: epsilon
Encoding: 949 949 399
Width: 979
GlyphClass: 1
Flags: W
LayerCount: 2
Fore
SplineSet
55 302 m 0,0,1
 69 399 69 399 125.5 463 c 128,-1,2
 182 527 182 527 277 558 c 1,3,4
 205 593 205 593 169 655 c 128,-1,5
 133 717 133 717 145 789 c 0,6,7
 168 943 168 943 285 1021.5 c 128,-1,8
 402 1100 402 1100 586 1100 c 0,9,10
 742 1100 742 1100 842 1012.5 c 128,-1,11
 942 925 942 925 916 787 c 1,12,-1
 914 781 l 1,13,-1
 719 781 l 1,14,15
 730 858 730 858 684 904 c 128,-1,16
 638 950 638 950 558 950 c 0,17,18
 470 950 470 950 414 901.5 c 128,-1,19
 358 853 358 853 347 783 c 0,20,21
 335 705 335 705 373.5 663.5 c 128,-1,22
 412 622 412 622 503 622 c 2,23,-1
 671 622 l 1,24,-1
 665 584 l 1,25,-1
 666 584 l 1,26,-1
 656 519 l 1,27,-1
 650 481 l 1,28,-1
 482 481 l 2,29,30
 389 481 389 481 331 437.5 c 128,-1,31
 273 394 273 394 260 307 c 0,32,33
 247 227 247 227 292.5 178 c 128,-1,34
 338 129 338 129 433 129 c 0,35,36
 521 129 521 129 586.5 183.5 c 128,-1,37
 652 238 652 238 664 316 c 1,38,-1
 857 316 l 1,39,-1
 859 310 l 1,40,41
 839 144 839 144 711 62.5 c 128,-1,42
 583 -19 583 -19 418 -19 c 0,43,44
 243 -19 243 -19 138 67.5 c 128,-1,45
 33 154 33 154 55 302 c 0,0,1
EndSplineSet
EndChar

StartChar: zeta
Encoding: 950 950 400
Width: 913
GlyphClass: 1
Flags: W
LayerCount: 2
Fore
SplineSet
973 1456 m 1,0,-1
 957 1346 l 1,1,-1
 580 882 l 2,2,3
 457 732 457 732 396.5 623.5 c 128,-1,4
 336 515 336 515 317 388 c 0,5,6
 299 272 299 272 335.5 212 c 128,-1,7
 372 152 372 152 465 152 c 2,8,-1
 505 152 l 2,9,10
 629 152 629 152 694.5 88.5 c 128,-1,11
 760 25 760 25 743 -92 c 0,12,13
 725 -204 725 -204 640 -290.5 c 128,-1,14
 555 -377 555 -377 441 -415 c 1,15,-1
 387 -284 l 1,16,17
 444 -258 444 -258 490 -213 c 128,-1,18
 536 -168 536 -168 546 -104 c 0,19,20
 553 -52 553 -52 527 -26 c 128,-1,21
 501 0 501 0 431 0 c 2,22,-1
 385 0 l 2,23,24
 231 0 231 0 159.5 107.5 c 128,-1,25
 88 215 88 215 112 373 c 0,26,27
 131 503 131 503 210 647.5 c 128,-1,28
 289 792 289 792 436 965 c 2,29,-1
 721 1296 l 1,30,-1
 719 1301 l 1,31,-1
 198 1301 l 1,32,-1
 221 1456 l 1,33,-1
 973 1456 l 1,0,-1
EndSplineSet
EndChar

StartChar: eta
Encoding: 951 951 401
Width: 1008
GlyphClass: 1
Flags: W
LayerCount: 2
Fore
SplineSet
372 932 m 1,0,1
 430 1014 430 1014 505.5 1058 c 128,-1,2
 581 1102 581 1102 669 1102 c 0,3,4
 810 1102 810 1102 877 997.5 c 128,-1,5
 944 893 944 893 910 666 c 2,6,-1
 748 -415 l 1,7,-1
 544 -415 l 1,8,-1
 706 665 l 2,9,10
 729 824 729 824 696 885 c 128,-1,11
 663 946 663 946 576 946 c 0,12,13
 511 946 511 946 456.5 910 c 128,-1,14
 402 874 402 874 361 811 c 1,15,-1
 239 0 l 1,16,-1
 35 0 l 1,17,-1
 197 1082 l 1,18,-1
 383 1082 l 1,19,-1
 372 932 l 1,0,1
EndSplineSet
EndChar

StartChar: theta
Encoding: 952 952 402
Width: 1036
GlyphClass: 1
Flags: W
LayerCount: 2
Fore
SplineSet
960 518 m 2,0,1
 920 258 920 258 784.5 118.5 c 128,-1,2
 649 -21 649 -21 452 -21 c 0,3,4
 264 -21 264 -21 165 125 c 128,-1,5
 66 271 66 271 104 518 c 2,6,-1
 167 937 l 2,7,8
 205 1195 205 1195 341.5 1336 c 128,-1,9
 478 1477 478 1477 675 1477 c 0,10,11
 862 1477 862 1477 960.5 1330 c 128,-1,12
 1059 1183 1059 1183 1023 937 c 2,13,-1
 960 518 l 2,0,1
351 803 m 1,14,-1
 796 803 l 1,15,-1
 821 966 l 2,16,17
 846 1137 846 1137 802 1229 c 128,-1,18
 758 1321 758 1321 651 1321 c 0,19,20
 549 1321 549 1321 474.5 1225 c 128,-1,21
 400 1129 400 1129 376 966 c 2,22,-1
 351 803 l 1,14,-1
774 651 m 1,23,-1
 329 651 l 1,24,-1
 305 490 l 2,25,26
 278 319 278 319 323 226 c 128,-1,27
 368 133 368 133 475 133 c 0,28,29
 577 133 577 133 651 229.5 c 128,-1,30
 725 326 725 326 750 490 c 2,31,-1
 774 651 l 1,23,-1
EndSplineSet
EndChar

StartChar: iota
Encoding: 953 953 403
Width: 589
GlyphClass: 1
Flags: W
LayerCount: 2
Fore
SplineSet
434 1081 m 1,0,-1
 315 286 l 2,1,2
 301 198 301 198 318 167 c 128,-1,3
 335 136 335 136 377 136 c 0,4,5
 399 136 399 136 418 141 c 128,-1,6
 437 146 437 146 463 156 c 1,7,-1
 473 18 l 1,8,9
 431 -4 431 -4 393 -12.5 c 128,-1,10
 355 -21 355 -21 309 -21 c 0,11,12
 194 -21 194 -21 140.5 55 c 128,-1,13
 87 131 87 131 112 293 c 2,14,-1
 230 1081 l 1,15,-1
 434 1081 l 1,0,-1
EndSplineSet
EndChar

StartChar: lambda
Encoding: 955 955 405
Width: 984
GlyphClass: 1
Flags: W
LayerCount: 2
Fore
SplineSet
177 0 m 1,0,-1
 -44 0 l 1,1,-1
 446 1051 l 1,2,-1
 417 1187 l 1,3,4
 406 1264 406 1264 376.5 1313 c 128,-1,5
 347 1362 347 1362 298 1362 c 0,6,7
 289 1362 289 1362 270.5 1360 c 128,-1,8
 252 1358 252 1358 240 1357 c 1,9,-1
 259 1501 l 1,10,11
 288 1508 288 1508 315 1513 c 128,-1,12
 342 1518 342 1518 368 1518 c 0,13,14
 485 1518 485 1518 541.5 1437 c 128,-1,15
 598 1356 598 1356 617 1249 c 2,16,-1
 789 310 l 1,17,18
 796 238 796 238 817.5 193.5 c 128,-1,19
 839 149 839 149 876 147 c 0,20,21
 886 146 886 146 893.5 147 c 128,-1,22
 901 148 901 148 919 151 c 1,23,-1
 888 0 l 1,24,25
 868 -6 868 -6 844.5 -9.5 c 128,-1,26
 821 -13 821 -13 802 -12 c 0,27,28
 699 -9 699 -9 648.5 67 c 128,-1,29
 598 143 598 143 577 271 c 2,30,-1
 496 767 l 1,31,-1
 490 768 l 1,32,-1
 466 702 l 1,33,-1
 177 0 l 1,0,-1
EndSplineSet
EndChar

StartChar: xi
Encoding: 958 958 408
Width: 934
GlyphClass: 1
Flags: W
LayerCount: 2
Fore
SplineSet
962 1456 m 1,0,-1
 939 1298 l 1,1,-1
 685 1298 l 1,2,3
 589 1289 589 1289 528.5 1228.5 c 128,-1,4
 468 1168 468 1168 455 1078 c 0,5,6
 440 980 440 980 487 929 c 128,-1,7
 534 878 534 878 654 878 c 2,8,-1
 779 878 l 1,9,-1
 761 761 l 1,10,-1
 755 721 l 1,11,-1
 633 721 l 2,12,13
 489 721 489 721 396 642.5 c 128,-1,14
 303 564 303 564 281 412 c 0,15,16
 261 284 261 284 313.5 212 c 128,-1,17
 366 140 366 140 480 140 c 2,18,-1
 559 140 l 2,19,20
 685 140 685 140 752 75.5 c 128,-1,21
 819 11 819 11 802 -108 c 0,22,23
 784 -224 784 -224 701 -307.5 c 128,-1,24
 618 -391 618 -391 501 -430 c 1,25,-1
 453 -306 l 1,26,27
 509 -278 509 -278 555.5 -235.5 c 128,-1,28
 602 -193 602 -193 612 -129 c 0,29,30
 619 -73 619 -73 595 -44 c 128,-1,31
 571 -15 571 -15 508 -15 c 2,32,-1
 451 -15 l 2,33,34
 261 -15 261 -15 154 100 c 128,-1,35
 47 215 47 215 77 416 c 0,36,37
 99 567 99 567 184.5 664 c 128,-1,38
 270 761 270 761 410 803 c 1,39,40
 322 841 322 841 278.5 909 c 128,-1,41
 235 977 235 977 248 1062 c 0,42,43
 260 1143 260 1143 297.5 1201.5 c 128,-1,44
 335 1260 335 1260 397 1298 c 1,45,-1
 213 1298 l 1,46,-1
 236 1456 l 1,47,-1
 962 1456 l 1,0,-1
EndSplineSet
EndChar

StartChar: pi
Encoding: 960 960 410
Width: 1109
GlyphClass: 1
Flags: W
LayerCount: 2
Fore
SplineSet
1074 930 m 1,0,-1
 1012 930 l 1,1,-1
 916 286 l 2,2,3
 902 198 902 198 919 167 c 128,-1,4
 936 136 936 136 978 136 c 0,5,6
 1000 136 1000 136 1019 141 c 128,-1,7
 1038 146 1038 146 1064 156 c 1,8,-1
 1074 18 l 1,9,10
 1032 -4 1032 -4 994 -12.5 c 128,-1,11
 956 -21 956 -21 910 -21 c 0,12,13
 795 -21 795 -21 741.5 55 c 128,-1,14
 688 131 688 131 713 293 c 2,15,-1
 808 930 l 1,16,-1
 473 930 l 1,17,-1
 334 0 l 1,18,-1
 131 0 l 1,19,-1
 270 930 l 1,20,-1
 135 930 l 1,21,-1
 157 1082 l 1,22,-1
 1096 1082 l 1,23,-1
 1074 930 l 1,0,-1
EndSplineSet
EndChar

StartChar: rho
Encoding: 961 961 411
Width: 1008
GlyphClass: 1
Flags: W
LayerCount: 2
Fore
SplineSet
923 507 m 2,0,1
 885 258 885 258 771 118.5 c 128,-1,2
 657 -21 657 -21 484 -21 c 0,3,4
 407 -21 407 -21 350 10 c 128,-1,5
 293 41 293 41 256 100 c 1,6,-1
 179 -416 l 1,7,-1
 -25 -416 l 1,8,-1
 125 585 l 1,9,-1
 127 585 l 1,10,-1
 125 589 l 1,11,12
 162 838 162 838 292.5 970 c 128,-1,13
 423 1102 423 1102 607 1102 c 0,14,15
 794 1102 794 1102 879 943.5 c 128,-1,16
 964 785 964 785 926 528 c 2,17,-1
 923 507 l 2,0,1
722 528 m 2,18,19
 751 721 751 721 718 833.5 c 128,-1,20
 685 946 685 946 578 946 c 0,21,22
 485 946 485 946 417 833.5 c 128,-1,23
 349 721 349 721 328 577 c 2,24,-1
 280 259 l 1,25,26
 299 198 299 198 341 165.5 c 128,-1,27
 383 133 383 133 452 133 c 0,28,29
 555 133 555 133 624 236.5 c 128,-1,30
 693 340 693 340 719 507 c 2,31,-1
 722 528 l 2,18,19
EndSplineSet
EndChar

StartChar: sigma1
Encoding: 962 962 412
Width: 939
GlyphClass: 1
Flags: W
LayerCount: 2
Fore
SplineSet
579 1102 m 0,0,1
 739 1102 739 1102 828.5 995 c 128,-1,2
 918 888 918 888 890 703 c 1,3,-1
 699 703 l 1,4,5
 716 818 716 818 680 882 c 128,-1,6
 644 946 644 946 556 946 c 0,7,8
 450 946 450 946 378 833 c 128,-1,9
 306 720 306 720 283 559 c 2,10,-1
 277 521 l 2,11,12
 253 360 253 360 303 263.5 c 128,-1,13
 353 167 353 167 486 146 c 0,14,15
 637 123 637 123 701.5 67.5 c 128,-1,16
 766 12 766 12 749 -105 c 0,17,18
 731 -216 731 -216 646 -300.5 c 128,-1,19
 561 -385 561 -385 447 -424 c 1,20,-1
 394 -293 l 1,21,22
 451 -267 451 -267 496 -223.5 c 128,-1,23
 541 -180 541 -180 551 -117 c 0,24,25
 558 -66 558 -66 527.5 -40.5 c 128,-1,26
 497 -15 497 -15 423 -2 c 0,27,28
 215 27 215 27 128 162.5 c 128,-1,29
 41 298 41 298 75 521 c 2,30,-1
 81 559 l 2,31,32
 117 802 117 802 249 952 c 128,-1,33
 381 1102 381 1102 579 1102 c 0,0,1
EndSplineSet
EndChar

StartChar: sigma
Encoding: 963 963 413
Width: 1015
GlyphClass: 1
Flags: W
LayerCount: 2
Fore
SplineSet
1052 925 m 1,0,-1
 808 925 l 1,1,2
 878 856 878 856 909 751 c 128,-1,3
 940 646 940 646 922 522 c 2,4,-1
 918 496 l 2,5,6
 884 268 884 268 750 123.5 c 128,-1,7
 616 -21 616 -21 421 -21 c 0,8,9
 229 -21 229 -21 134 133 c 128,-1,10
 39 287 39 287 75 526 c 2,11,-1
 79 553 l 2,12,13
 115 794 115 794 249.5 938 c 128,-1,14
 384 1082 384 1082 584 1082 c 2,15,-1
 1075 1082 l 1,16,-1
 1052 925 l 1,0,-1
278 526 m 2,17,18
 250 348 250 348 289.5 240.5 c 128,-1,19
 329 133 329 133 444 133 c 0,20,21
 547 133 547 133 620 245 c 128,-1,22
 693 357 693 357 719 526 c 2,23,-1
 723 553 l 2,24,25
 747 720 747 720 709 822.5 c 128,-1,26
 671 925 671 925 561 925 c 0,27,28
 454 925 454 925 379.5 818 c 128,-1,29
 305 711 305 711 282 553 c 2,30,-1
 278 526 l 2,17,18
EndSplineSet
EndChar

StartChar: tau
Encoding: 964 964 414
Width: 934
GlyphClass: 1
Flags: W
LayerCount: 2
Fore
SplineSet
932 927 m 1,0,-1
 626 927 l 1,1,-1
 487 0 l 1,2,-1
 283 0 l 1,3,-1
 422 927 l 1,4,-1
 121 927 l 1,5,-1
 144 1082 l 1,6,-1
 955 1082 l 1,7,-1
 932 927 l 1,0,-1
EndSplineSet
EndChar

StartChar: upsilon
Encoding: 965 965 415
Width: 1008
GlyphClass: 1
Flags: W
LayerCount: 2
Fore
SplineSet
402 1082 m 1,0,-1
 311 473 l 2,1,2
 283 289 283 289 323 211 c 128,-1,3
 363 133 363 133 453 133 c 0,4,5
 555 133 555 133 626 256 c 128,-1,6
 697 379 697 379 723 550 c 0,7,8
 740 684 740 684 735 816.5 c 128,-1,9
 730 949 730 949 706 1082 c 1,10,-1
 907 1082 l 1,11,12
 935 971 935 971 942.5 841.5 c 128,-1,13
 950 712 950 712 926 550 c 0,14,15
 885 284 885 284 767.5 131.5 c 128,-1,16
 650 -21 650 -21 437 -21 c 0,17,18
 252 -21 252 -21 161 102 c 128,-1,19
 70 225 70 225 108 475 c 2,20,-1
 199 1082 l 1,21,-1
 402 1082 l 1,0,-1
EndSplineSet
EndChar

StartChar: phi
Encoding: 966 966 416
Width: 1290
GlyphClass: 1
Flags: W
LayerCount: 2
Fore
SplineSet
822 1082 m 1,0,-1
 683 154 l 1,1,-1
 688 151 l 1,2,3
 824 175 824 175 907 281 c 128,-1,4
 990 387 990 387 1012 528 c 0,5,6
 1035 693 1035 693 980.5 809.5 c 128,-1,7
 926 926 926 926 799 926 c 1,8,-1
 821 1074 l 1,9,-1
 827 1075 l 1,10,11
 1028 1080 1028 1080 1139.5 919 c 128,-1,12
 1251 758 1251 758 1216 528 c 0,13,14
 1181 303 1181 303 1044.5 156 c 128,-1,15
 908 9 908 9 657 -16 c 1,16,-1
 588 -478 l 1,17,-1
 384 -478 l 1,18,-1
 453 -14 l 1,19,20
 223 17 223 17 130 177.5 c 128,-1,21
 37 338 37 338 72 568 c 0,22,23
 96 730 96 730 143 850 c 128,-1,24
 190 970 190 970 257 1082 c 1,25,-1
 455 1082 l 1,26,27
 389 951 389 951 342.5 823.5 c 128,-1,28
 296 696 296 696 275 568 c 0,29,30
 250 404 250 404 295.5 291.5 c 128,-1,31
 341 179 341 179 473 153 c 1,32,-1
 479 154 l 1,33,-1
 618 1082 l 1,34,-1
 822 1082 l 1,0,-1
EndSplineSet
EndChar

StartChar: chi
Encoding: 967 967 417
Width: 984
GlyphClass: 1
Flags: W
LayerCount: 2
Fore
SplineSet
244 1095 m 0,0,1
 360 1095 360 1095 417 1015.5 c 128,-1,2
 474 936 474 936 495 831 c 2,3,-1
 536 632 l 1,4,-1
 542 631 l 1,5,-1
 800 1082 l 1,6,-1
 1006 1082 l 1,7,-1
 593 362 l 1,8,-1
 692 -107 l 2,9,10
 705 -182 705 -182 724 -224 c 128,-1,11
 743 -266 743 -266 779 -269 c 0,12,13
 792 -269 792 -269 801 -269 c 128,-1,14
 810 -269 810 -269 823 -267 c 1,15,-1
 791 -419 l 1,16,17
 773 -424 773 -424 749 -427.5 c 128,-1,18
 725 -431 725 -431 705 -431 c 0,19,20
 609 -427 609 -427 562 -354.5 c 128,-1,21
 515 -282 515 -282 493 -146 c 1,22,-1
 444 89 l 1,23,-1
 438 90 l 1,24,-1
 149 -415 l 1,25,-1
 -57 -415 l 1,26,-1
 387 360 l 1,27,-1
 301 769 l 2,28,29
 287 846 287 846 256.5 893.5 c 128,-1,30
 226 941 226 941 175 941 c 0,31,32
 166 941 166 941 153 939.5 c 128,-1,33
 140 938 140 938 116 935 c 1,34,-1
 136 1080 l 1,35,36
 161 1086 161 1086 189 1090.5 c 128,-1,37
 217 1095 217 1095 244 1095 c 0,0,1
EndSplineSet
EndChar

StartChar: psi
Encoding: 968 968 418
Width: 1285
GlyphClass: 1
Flags: W
LayerCount: 2
Fore
SplineSet
817 1081 m 1,0,-1
 678 157 l 1,1,-1
 683 154 l 1,2,3
 820 182 820 182 905 301 c 128,-1,4
 990 420 990 420 1015 579 c 0,5,6
 1031 704 1031 704 1023 829 c 128,-1,7
 1015 954 1015 954 989 1082 c 1,8,-1
 1187 1082 l 1,9,10
 1220 978 1220 978 1230.5 855 c 128,-1,11
 1241 732 1241 732 1219 579 c 0,12,13
 1181 326 1181 326 1044 167.5 c 128,-1,14
 907 9 907 9 652 -16 c 1,15,-1
 586 -462 l 1,16,-1
 382 -462 l 1,17,-1
 449 -13 l 1,18,19
 242 16 242 16 143 167 c 128,-1,20
 44 318 44 318 86 592 c 2,21,-1
 159 1082 l 1,22,-1
 363 1082 l 1,23,-1
 290 590 l 2,24,25
 258 384 258 384 308 279 c 128,-1,26
 358 174 358 174 468 154 c 1,27,-1
 474 155 l 1,28,-1
 613 1081 l 1,29,-1
 817 1081 l 1,0,-1
EndSplineSet
EndChar

StartChar: omega
Encoding: 969 969 419
Width: 1520
GlyphClass: 1
Flags: W
LayerCount: 2
Fore
SplineSet
505 1082 m 1,0,1
 426 947 426 947 372 815 c 128,-1,2
 318 683 318 683 296 550 c 0,3,4
 267 361 267 361 292 248 c 128,-1,5
 317 135 317 135 411 140 c 1,6,-1
 417 139 l 1,7,8
 493 134 493 134 556 217.5 c 128,-1,9
 619 301 619 301 646 479 c 2,10,-1
 693 790 l 1,11,-1
 904 790 l 1,12,-1
 857 479 l 2,13,14
 828 292 828 292 865 213 c 128,-1,15
 902 134 902 134 985 140 c 1,16,-1
 991 139 l 1,17,18
 1077 134 1077 134 1139.5 251.5 c 128,-1,19
 1202 369 1202 369 1230 550 c 1,20,21
 1246 685 1246 685 1231.5 817.5 c 128,-1,22
 1217 950 1217 950 1178 1082 c 1,23,-1
 1380 1082 l 1,24,25
 1423 971 1423 971 1440 841.5 c 128,-1,26
 1457 712 1457 712 1433 550 c 0,27,28
 1392 284 1392 284 1280.5 131.5 c 128,-1,29
 1169 -21 1169 -21 972 -21 c 0,30,31
 872 -21 872 -21 804.5 35.5 c 128,-1,32
 737 92 737 92 712 202 c 1,33,34
 656 89 656 89 572 34 c 128,-1,35
 488 -21 488 -21 382 -21 c 0,36,37
 193 -21 193 -21 124 138.5 c 128,-1,38
 55 298 55 298 93 550 c 0,39,40
 118 719 118 719 171.5 843.5 c 128,-1,41
 225 968 225 968 303 1082 c 1,42,-1
 505 1082 l 1,0,1
EndSplineSet
EndChar

StartChar: uni03D1
Encoding: 977 977 425
Width: 1158
GlyphClass: 2
Flags: W
LayerCount: 2
Fore
SplineSet
539 1015 m 1,0,-1
 550 1089 l 2,1,2
 576 1263 576 1263 681.5 1370 c 128,-1,3
 787 1477 787 1477 919 1477 c 0,4,5
 1060 1477 1060 1477 1125 1377 c 128,-1,6
 1190 1277 1190 1277 1162 1089 c 2,7,-1
 1083 563 l 2,8,9
 1043 298 1043 298 882 138.5 c 128,-1,10
 721 -21 721 -21 510 -21 c 0,11,12
 291 -21 291 -21 182.5 138.5 c 128,-1,13
 74 298 74 298 114 563 c 2,14,-1
 218 1252 l 1,15,-1
 428 1254 l 1,16,-1
 324 563 l 2,17,18
 296 376 296 376 354.5 257.5 c 128,-1,19
 413 139 413 139 534 139 c 0,20,21
 665 139 665 139 753.5 247 c 128,-1,22
 842 355 842 355 874 563 c 1,23,-1
 875 572 l 1,24,25
 698 584 698 584 604 704 c 128,-1,26
 510 824 510 824 539 1015 c 1,27,-1
 539 1015 l 1,0,-1
955 1098 m 2,28,29
 970 1203 970 1203 952.5 1256 c 128,-1,30
 935 1309 935 1309 890 1304 c 1,31,-1
 884 1305 l 2,32,33
 837 1309 837 1309 801 1258 c 128,-1,34
 765 1207 765 1207 749 1098 c 2,35,-1
 736 1013 l 2,36,37
 718 898 718 898 761.5 819.5 c 128,-1,38
 805 741 805 741 893 733 c 1,39,-1
 899 734 l 1,40,-1
 955 1098 l 2,28,29
EndSplineSet
EndChar

StartChar: uni03D2
Encoding: 978 978 426
Width: 1000
GlyphClass: 1
Flags: W
LayerCount: 2
Fore
SplineSet
764 1227 m 2,0,1
 832 1361 832 1361 900 1416 c 128,-1,2
 968 1471 968 1471 1060 1471 c 0,3,4
 1084 1471 1084 1471 1106.5 1465 c 128,-1,5
 1129 1459 1129 1459 1147 1447 c 1,6,-1
 1104 1298 l 1,7,8
 1099 1301 1099 1301 1087 1304.5 c 128,-1,9
 1075 1308 1075 1308 1064 1308 c 0,10,11
 1032 1308 1032 1308 1003 1282.5 c 128,-1,12
 974 1257 974 1257 950 1199 c 1,13,-1
 602 554 l 1,14,-1
 519 0 l 1,15,-1
 317 0 l 1,16,-1
 401 561 l 1,17,-1
 248 1199 l 1,18,19
 240 1258 240 1258 219 1283 c 128,-1,20
 198 1308 198 1308 166 1308 c 0,21,22
 155 1308 155 1308 141 1304.5 c 128,-1,23
 127 1301 127 1301 124 1298 c 1,24,-1
 127 1447 l 1,25,26
 147 1459 147 1459 170.5 1465 c 128,-1,27
 194 1471 194 1471 221 1471 c 0,28,29
 309 1471 309 1471 361.5 1416 c 128,-1,30
 414 1361 414 1361 441 1229 c 2,31,-1
 523 822 l 1,32,-1
 528 750 l 1,33,-1
 534 749 l 1,34,-1
 562 822 l 1,35,-1
 764 1227 l 2,0,1
EndSplineSet
EndChar

StartChar: uni03D6
Encoding: 982 982 427
Width: 1435
GlyphClass: 1
Flags: W
LayerCount: 2
Fore
SplineSet
1467 940 m 1,0,-1
 1341 940 l 1,1,2
 1357 854 1357 854 1359.5 757.5 c 128,-1,3
 1362 661 1362 661 1346 550 c 0,4,5
 1305 284 1305 284 1202 131.5 c 128,-1,6
 1099 -21 1099 -21 922 -21 c 0,7,8
 825 -21 825 -21 760.5 34 c 128,-1,9
 696 89 696 89 671 197 c 1,10,11
 616 87 616 87 535 33 c 128,-1,12
 454 -21 454 -21 352 -21 c 0,13,14
 183 -21 183 -21 122 139 c 128,-1,15
 61 299 61 299 99 550 c 0,16,17
 115 664 115 664 146 759.5 c 128,-1,18
 177 855 177 855 219 940 c 1,19,-1
 106 940 l 1,20,-1
 127 1082 l 1,21,-1
 1488 1082 l 1,22,-1
 1467 940 l 1,0,-1
1142 550 m 0,23,24
 1154 647 1154 647 1151 744 c 128,-1,25
 1148 841 1148 841 1132 940 c 1,26,-1
 429 940 l 1,27,28
 383 843 383 843 350.5 745.5 c 128,-1,29
 318 648 318 648 302 550 c 0,30,31
 273 362 273 362 290 248.5 c 128,-1,32
 307 135 307 135 381 141 c 1,33,-1
 387 140 l 1,34,35
 458 134 458 134 518.5 217.5 c 128,-1,36
 579 301 579 301 606 479 c 2,37,-1
 642 723 l 1,38,-1
 853 723 l 1,39,-1
 817 479 l 2,40,41
 788 292 788 292 821.5 213 c 128,-1,42
 855 134 855 134 933 140 c 1,43,-1
 939 140 l 1,44,45
 1008 135 1008 135 1061 252 c 128,-1,46
 1114 369 1114 369 1142 550 c 0,23,24
EndSplineSet
EndChar

StartChar: uni0402
Encoding: 1026 1026 430
Width: 1339
GlyphClass: 1
Flags: W
LayerCount: 2
Fore
SplineSet
1145 1300 m 1,0,-1
 758 1300 l 1,1,-1
 564 0 l 1,2,-1
 360 0 l 1,3,-1
 554 1300 l 1,4,-1
 172 1300 l 1,5,-1
 195 1456 l 1,6,-1
 1168 1456 l 1,7,-1
 1145 1300 l 1,0,-1
701 883 m 1,8,-1
 948 883 l 2,9,10
 1157 883 1157 883 1273.5 759 c 128,-1,11
 1390 635 1390 635 1357 409 c 0,12,13
 1338 276 1338 276 1234.5 139.5 c 128,-1,14
 1131 3 1131 3 965 -37 c 1,15,-1
 914 99 l 1,16,17
 1017 135 1017 135 1077.5 218 c 128,-1,18
 1138 301 1138 301 1154 409 c 0,19,20
 1177 567 1177 567 1115 644.5 c 128,-1,21
 1053 722 1053 722 924 722 c 2,22,-1
 677 722 l 1,23,-1
 701 883 l 1,8,-1
EndSplineSet
EndChar

StartChar: uni0404
Encoding: 1028 1028 432
Width: 1160
GlyphClass: 1
Flags: W
LayerCount: 2
Fore
SplineSet
1052 439 m 1,0,-1
 1054 433 l 1,1,2
 1024 209 1024 209 884.5 94.5 c 128,-1,3
 745 -20 745 -20 525 -20 c 0,4,5
 309 -20 309 -20 193.5 125 c 128,-1,6
 78 270 78 270 117 526 c 2,7,-1
 178 930 l 2,8,9
 218 1198 218 1198 368.5 1338 c 128,-1,10
 519 1478 519 1478 743 1478 c 0,11,12
 958 1478 958 1478 1069.5 1361 c 128,-1,13
 1181 1244 1181 1244 1144 1024 c 1,14,-1
 1142 1019 l 1,15,-1
 946 1019 l 1,16,17
 970 1182 970 1182 913.5 1252 c 128,-1,18
 857 1322 857 1322 719 1322 c 0,19,20
 590 1322 590 1322 499 1220.5 c 128,-1,21
 408 1119 408 1119 381 933 c 2,22,-1
 363 813 l 1,23,-1
 787 813 l 1,24,-1
 764 658 l 1,25,-1
 340 658 l 1,26,-1
 320 526 l 2,27,28
 290 328 290 328 349.5 231 c 128,-1,29
 409 134 409 134 548 134 c 0,30,31
 675 134 675 134 754 207.5 c 128,-1,32
 833 281 833 281 858 439 c 1,33,-1
 1052 439 l 1,0,-1
EndSplineSet
EndChar

StartChar: uni0405
Encoding: 1029 1029 433
Width: 1094
GlyphClass: 1
Flags: W
LayerCount: 2
Fore
SplineSet
778 366 m 0,0,1
 793 470 793 470 746 532 c 128,-1,2
 699 594 699 594 562 648 c 1,3,4
 367 712 367 712 272 813 c 128,-1,5
 177 914 177 914 202 1082 c 0,6,7
 229 1261 229 1261 366 1369 c 128,-1,8
 503 1477 503 1477 695 1477 c 0,9,10
 889 1477 889 1477 996 1351.5 c 128,-1,11
 1103 1226 1103 1226 1071 1041 c 1,12,-1
 1069 1036 l 1,13,-1
 873 1036 l 1,14,15
 893 1169 893 1169 837.5 1245.5 c 128,-1,16
 782 1322 782 1322 669 1322 c 0,17,18
 565 1322 565 1322 493 1253.5 c 128,-1,19
 421 1185 421 1185 407 1084 c 0,20,21
 392 986 392 986 445 926 c 128,-1,22
 498 866 498 866 641 810 c 1,23,24
 830 745 830 745 918 640 c 128,-1,25
 1006 535 1006 535 981 368 c 0,26,27
 953 183 953 183 816.5 81 c 128,-1,28
 680 -21 680 -21 479 -21 c 0,29,30
 293 -21 293 -21 165 94 c 128,-1,31
 37 209 37 209 74 421 c 1,32,-1
 76 426 l 1,33,-1
 273 426 l 1,34,35
 250 271 250 271 317 201.5 c 128,-1,36
 384 132 384 132 502 132 c 0,37,38
 610 132 610 132 686 196.5 c 128,-1,39
 762 261 762 261 778 366 c 0,0,1
EndSplineSet
EndChar

StartChar: uni0409
Encoding: 1033 1033 437
Width: 1893
GlyphClass: 1
Flags: W
LayerCount: 2
Fore
SplineSet
1253 1456 m 1,0,-1
 1168 889 l 1,1,-1
 1430 889 l 2,2,3
 1628 889 1628 889 1732.5 764 c 128,-1,4
 1837 639 1837 639 1809 445 c 0,5,6
 1777 240 1777 240 1641.5 120 c 128,-1,7
 1506 0 1506 0 1297 0 c 2,8,-1
 831 0 l 1,9,-1
 1025 1300 l 1,10,-1
 638 1300 l 1,11,-1
 560 788 l 2,12,13
 495 373 495 373 363.5 186.5 c 128,-1,14
 232 0 232 0 6 0 c 2,15,-1
 -34 0 l 1,16,-1
 -11 154 l 1,17,-1
 23 154 l 2,18,19
 150 154 150 154 225.5 295 c 128,-1,20
 301 436 301 436 356 788 c 2,21,-1
 459 1456 l 1,22,-1
 1253 1456 l 1,0,-1
1145 735 m 1,23,-1
 1058 154 l 1,24,-1
 1320 154 l 2,25,26
 1434 154 1434 154 1510.5 239.5 c 128,-1,27
 1587 325 1587 325 1606 447 c 0,28,29
 1624 570 1624 570 1575 652.5 c 128,-1,30
 1526 735 1526 735 1407 735 c 2,31,-1
 1145 735 l 1,23,-1
EndSplineSet
EndChar

StartChar: uni040A
Encoding: 1034 1034 438
Width: 1892
GlyphClass: 1
Flags: W
LayerCount: 2
Fore
SplineSet
382 814 m 1,0,-1
 952 814 l 1,1,-1
 1049 1456 l 1,2,-1
 1252 1456 l 1,3,-1
 1162 861 l 1,4,-1
 1425 861 l 2,5,6
 1624 861 1624 861 1729 741 c 128,-1,7
 1834 621 1834 621 1807 433 c 0,8,9
 1777 234 1777 234 1641 117 c 128,-1,10
 1505 0 1505 0 1296 0 c 2,11,-1
 831 0 l 1,12,-1
 929 659 l 1,13,-1
 359 659 l 1,14,-1
 261 0 l 1,15,-1
 57 0 l 1,16,-1
 275 1456 l 1,17,-1
 479 1456 l 1,18,-1
 382 814 l 1,0,-1
1139 706 m 1,19,-1
 1058 160 l 1,20,-1
 1320 160 l 2,21,22
 1434 160 1434 160 1510.5 239.5 c 128,-1,23
 1587 319 1587 319 1604 435 c 0,24,25
 1622 553 1622 553 1572 629.5 c 128,-1,26
 1522 706 1522 706 1402 706 c 2,27,-1
 1139 706 l 1,19,-1
EndSplineSet
EndChar

StartChar: uni040B
Encoding: 1035 1035 439
Width: 1430
GlyphClass: 1
Flags: W
LayerCount: 2
Fore
SplineSet
1161 1300 m 1,0,-1
 774 1300 l 1,1,-1
 723 957 l 1,2,-1
 927 957 l 2,3,4
 1135 957 1135 957 1236 842 c 128,-1,5
 1337 727 1337 727 1301 485 c 2,6,-1
 1228 0 l 1,7,-1
 1024 0 l 1,8,-1
 1097 485 l 2,9,10
 1123 665 1123 665 1077.5 733.5 c 128,-1,11
 1032 802 1032 802 903 802 c 2,12,-1
 700 802 l 1,13,-1
 580 0 l 1,14,-1
 376 0 l 1,15,-1
 570 1300 l 1,16,-1
 188 1300 l 1,17,-1
 211 1456 l 1,18,-1
 1184 1456 l 1,19,-1
 1161 1300 l 1,0,-1
EndSplineSet
EndChar

StartChar: uni040F
Encoding: 1039 1039 443
Width: 1247
GlyphClass: 1
Flags: W
LayerCount: 2
Fore
SplineSet
269 1456 m 1,0,-1
 473 1456 l 1,1,-1
 278 154 l 1,2,-1
 848 154 l 1,3,-1
 1043 1456 l 1,4,-1
 1247 1456 l 1,5,-1
 1029 0 l 1,6,-1
 650 0 l 1,7,-1
 597 -356 l 1,8,-1
 393 -356 l 1,9,-1
 446 0 l 1,10,-1
 51 0 l 1,11,-1
 269 1456 l 1,0,-1
EndSplineSet
EndChar

StartChar: uni0411
Encoding: 1041 1041 445
Width: 1120
GlyphClass: 1
Flags: W
LayerCount: 2
Fore
SplineSet
1040 1300 m 1,0,-1
 453 1300 l 1,1,-1
 390 884 l 1,2,-1
 653 884 l 2,3,4
 852 884 852 884 956.5 761 c 128,-1,5
 1061 638 1061 638 1033 445 c 0,6,7
 1001 240 1001 240 865 120 c 128,-1,8
 729 0 729 0 520 0 c 2,9,-1
 54 0 l 1,10,-1
 272 1456 l 1,11,-1
 1063 1456 l 1,12,-1
 1040 1300 l 1,0,-1
367 729 m 1,13,-1
 281 154 l 1,14,-1
 543 154 l 2,15,16
 657 154 657 154 734 239.5 c 128,-1,17
 811 325 811 325 830 447 c 0,18,19
 848 569 848 569 798.5 649 c 128,-1,20
 749 729 749 729 629 729 c 2,21,-1
 367 729 l 1,13,-1
EndSplineSet
EndChar

StartChar: uni0414
Encoding: 1044 1044 448
Width: 1312
GlyphClass: 1
Flags: W
LayerCount: 2
Fore
SplineSet
1151 -355 m 1,0,-1
 947 -355 l 1,1,-1
 1000 0 l 1,2,-1
 158 0 l 1,3,-1
 105 -356 l 1,4,-1
 -98 -356 l 1,5,-1
 -22 154 l 1,6,-1
 55 154 l 2,7,8
 158 154 158 154 239.5 338.5 c 128,-1,9
 321 523 321 523 391 891 c 2,10,-1
 504 1456 l 1,11,-1
 1266 1456 l 1,12,-1
 1071 154 l 1,13,-1
 1227 154 l 1,14,-1
 1151 -355 l 1,0,-1
595 891 m 2,15,16
 545 635 545 635 477 449.5 c 128,-1,17
 409 264 409 264 321 154 c 1,18,-1
 867 154 l 1,19,-1
 1038 1300 l 1,20,-1
 676 1300 l 1,21,-1
 595 891 l 2,15,16
EndSplineSet
EndChar

StartChar: uni0416
Encoding: 1046 1046 450
Width: 1541
GlyphClass: 1
Flags: W
LayerCount: 2
Fore
SplineSet
957 661 m 1,0,-1
 895 661 l 1,1,-1
 796 0 l 1,2,-1
 593 0 l 1,3,-1
 692 661 l 1,4,-1
 624 661 l 1,5,-1
 194 0 l 1,6,-1
 -60 0 l 1,7,-1
 479 780 l 1,8,-1
 185 1456 l 1,9,-1
 432 1456 l 1,10,-1
 654 824 l 1,11,-1
 716 824 l 1,12,-1
 811 1456 l 1,13,-1
 1014 1456 l 1,14,-1
 919 824 l 1,15,-1
 978 824 l 1,16,-1
 1384 1456 l 1,17,-1
 1630 1456 l 1,18,-1
 1137 782 l 1,19,-1
 1440 0 l 1,20,-1
 1186 0 l 1,21,-1
 957 661 l 1,0,-1
EndSplineSet
EndChar

StartChar: uni0417
Encoding: 1047 1047 451
Width: 1184
GlyphClass: 1
Flags: W
LayerCount: 2
Fore
SplineSet
466 819 m 1,0,-1
 629 819 l 2,1,2
 761 819 761 819 839.5 885.5 c 128,-1,3
 918 952 918 952 936 1067 c 0,4,5
 953 1183 953 1183 892.5 1252 c 128,-1,6
 832 1321 832 1321 692 1321 c 0,7,8
 585 1321 585 1321 498.5 1250.5 c 128,-1,9
 412 1180 412 1180 396 1071 c 1,10,-1
 202 1071 l 1,11,-1
 200 1077 l 1,12,13
 223 1263 223 1263 370.5 1370 c 128,-1,14
 518 1477 518 1477 716 1477 c 0,15,16
 932 1477 932 1477 1049.5 1369 c 128,-1,17
 1167 1261 1167 1261 1138 1065 c 0,18,19
 1121 957 1121 957 1049.5 873 c 128,-1,20
 978 789 978 789 866 744 c 1,21,22
 975 701 975 701 1026 614 c 128,-1,23
 1077 527 1077 527 1058 402 c 0,24,25
 1027 196 1027 196 873 87.5 c 128,-1,26
 719 -21 719 -21 491 -21 c 0,27,28
 302 -21 302 -21 173.5 87 c 128,-1,29
 45 195 45 195 80 398 c 1,30,-1
 83 404 l 1,31,-1
 278 404 l 1,32,33
 259 283 259 283 325 208 c 128,-1,34
 391 133 391 133 514 133 c 0,35,36
 649 133 649 133 742.5 207 c 128,-1,37
 836 281 836 281 855 400 c 0,38,39
 876 541 876 541 813.5 603 c 128,-1,40
 751 665 751 665 606 665 c 2,41,-1
 443 665 l 1,42,-1
 448 701 l 1,43,-1
 458 769 l 1,44,-1
 460 780 l 1,45,-1
 466 819 l 1,0,-1
EndSplineSet
EndChar

StartChar: uni0418
Encoding: 1048 1048 452
Width: 1248
GlyphClass: 1
Flags: W
LayerCount: 2
Fore
SplineSet
1047 1456 m 1,0,-1
 1251 1456 l 1,1,-1
 1033 0 l 1,2,-1
 829 0 l 1,3,-1
 988 1066 l 1,4,-1
 982 1068 l 1,5,-1
 258 0 l 1,6,-1
 55 0 l 1,7,-1
 273 1456 l 1,8,-1
 476 1456 l 1,9,-1
 316 389 l 1,10,-1
 322 387 l 1,11,-1
 1047 1456 l 1,0,-1
EndSplineSet
EndChar

StartChar: uni041B
Encoding: 1051 1051 455
Width: 1252
GlyphClass: 1
Flags: W
LayerCount: 2
Fore
SplineSet
1253 1456 m 1,0,-1
 1035 0 l 1,1,-1
 831 0 l 1,2,-1
 1025 1300 l 1,3,-1
 613 1300 l 1,4,-1
 534 788 l 2,5,6
 471 373 471 373 345 186.5 c 128,-1,7
 219 0 219 0 4 0 c 2,8,-1
 -35 0 l 1,9,-1
 -12 154 l 1,10,-1
 22 154 l 2,11,12
 138 154 138 154 207 294 c 128,-1,13
 276 434 276 434 330 788 c 2,14,-1
 433 1456 l 1,15,-1
 1253 1456 l 1,0,-1
EndSplineSet
EndChar

StartChar: uni0423
Encoding: 1059 1059 463
Width: 1137
GlyphClass: 1
Flags: W
LayerCount: 2
Fore
SplineSet
558 737 m 1,0,-1
 577 628 l 1,1,-1
 583 627 l 1,2,-1
 1002 1456 l 1,3,-1
 1226 1456 l 1,4,-1
 585 254 l 1,5,6
 512 126 512 126 428.5 52.5 c 128,-1,7
 345 -21 345 -21 212 -21 c 0,8,9
 160 -21 160 -21 114.5 -9.5 c 128,-1,10
 69 2 69 2 35 20 c 1,11,-1
 82 164 l 1,12,13
 110 151 110 151 145.5 142 c 128,-1,14
 181 133 181 133 213 133 c 0,15,16
 282 133 282 133 331.5 178.5 c 128,-1,17
 381 224 381 224 417 299 c 2,18,-1
 458 380 l 1,19,-1
 181 1456 l 1,20,-1
 404 1456 l 1,21,-1
 558 737 l 1,0,-1
EndSplineSet
EndChar

StartChar: uni0426
Encoding: 1062 1062 466
Width: 1337
GlyphClass: 1
Flags: W
LayerCount: 2
Fore
SplineSet
455 1456 m 1,0,-1
 658 1456 l 1,1,-1
 463 156 l 1,2,-1
 1006 156 l 1,3,-1
 1007 164 l 1,4,-1
 1035 164 l 1,5,-1
 1229 1456 l 1,6,-1
 1433 1456 l 1,7,-1
 1215 0 l 1,8,-1
 1185 0 l 1,9,-1
 1131 -357 l 1,10,-1
 928 -357 l 1,11,-1
 982 0 l 1,12,-1
 237 0 l 1,13,-1
 455 1456 l 1,0,-1
EndSplineSet
EndChar

StartChar: uni0427
Encoding: 1063 1063 467
Width: 1221
GlyphClass: 1
Flags: W
LayerCount: 2
Fore
SplineSet
1221 1456 m 1,0,-1
 1003 0 l 1,1,-1
 800 0 l 1,2,-1
 891 612 l 1,3,4
 820 589 820 589 743 577 c 128,-1,5
 666 565 666 565 588 565 c 0,6,7
 377 565 377 565 273 675 c 128,-1,8
 169 785 169 785 205 1022 c 2,9,-1
 270 1456 l 1,10,-1
 473 1456 l 1,11,-1
 408 1022 l 2,12,13
 382 848 382 848 431 784 c 128,-1,14
 480 720 480 720 611 720 c 0,15,16
 678 720 678 720 760 732.5 c 128,-1,17
 842 745 842 745 915 767 c 1,18,-1
 1018 1456 l 1,19,-1
 1221 1456 l 1,0,-1
EndSplineSet
EndChar

StartChar: uni0428
Encoding: 1064 1064 468
Width: 1817
GlyphClass: 1
Flags: W
LayerCount: 2
Fore
SplineSet
475 1456 m 1,0,-1
 280 154 l 1,1,-1
 755 154 l 1,2,-1
 950 1456 l 1,3,-1
 1153 1456 l 1,4,-1
 958 154 l 1,5,-1
 1429 154 l 1,6,-1
 1624 1456 l 1,7,-1
 1828 1456 l 1,8,-1
 1610 0 l 1,9,-1
 53 0 l 1,10,-1
 271 1456 l 1,11,-1
 475 1456 l 1,0,-1
EndSplineSet
EndChar

StartChar: uni0429
Encoding: 1065 1065 469
Width: 1911
GlyphClass: 1
Flags: W
LayerCount: 2
Fore
SplineSet
475 1456 m 1,0,-1
 280 154 l 1,1,-1
 755 154 l 1,2,-1
 950 1456 l 1,3,-1
 1153 1456 l 1,4,-1
 958 154 l 1,5,-1
 1429 154 l 1,6,-1
 1624 1456 l 1,7,-1
 1828 1456 l 1,8,-1
 1633 157 l 1,9,-1
 1799 157 l 1,10,-1
 1722 -354 l 1,11,-1
 1519 -354 l 1,12,-1
 1572 0 l 1,13,-1
 53 0 l 1,14,-1
 271 1456 l 1,15,-1
 475 1456 l 1,0,-1
EndSplineSet
EndChar

StartChar: uni042A
Encoding: 1066 1066 470
Width: 1281
GlyphClass: 1
Flags: W
LayerCount: 2
Fore
SplineSet
146 1456 m 1,0,-1
 639 1456 l 1,1,-1
 553 884 l 1,2,-1
 816 884 l 2,3,4
 1015 884 1015 884 1119.5 761 c 128,-1,5
 1224 638 1224 638 1196 445 c 0,6,7
 1164 240 1164 240 1028 120 c 128,-1,8
 892 0 892 0 683 0 c 2,9,-1
 217 0 l 1,10,-1
 412 1301 l 1,11,-1
 123 1301 l 1,12,-1
 146 1456 l 1,0,-1
530 729 m 1,13,-1
 444 154 l 1,14,-1
 706 154 l 2,15,16
 820 154 820 154 897 239.5 c 128,-1,17
 974 325 974 325 993 447 c 0,18,19
 1011 569 1011 569 961.5 649 c 128,-1,20
 912 729 912 729 792 729 c 2,21,-1
 530 729 l 1,13,-1
EndSplineSet
EndChar

StartChar: uni042B
Encoding: 1067 1067 471
Width: 1525
GlyphClass: 1
Flags: W
LayerCount: 2
Fore
SplineSet
390 884 m 1,0,-1
 653 884 l 2,1,2
 852 884 852 884 956.5 761 c 128,-1,3
 1061 638 1061 638 1033 445 c 0,4,5
 1001 240 1001 240 865 120 c 128,-1,6
 729 0 729 0 520 0 c 2,7,-1
 54 0 l 1,8,-1
 272 1456 l 1,9,-1
 476 1456 l 1,10,-1
 390 884 l 1,0,-1
1478 0 m 1,11,-1
 1275 0 l 1,12,-1
 1493 1456 l 1,13,-1
 1696 1456 l 1,14,-1
 1478 0 l 1,11,-1
367 729 m 1,15,-1
 281 154 l 1,16,-1
 543 154 l 2,17,18
 657 154 657 154 734 239.5 c 128,-1,19
 811 325 811 325 830 447 c 0,20,21
 848 569 848 569 798.5 649 c 128,-1,22
 749 729 749 729 629 729 c 2,23,-1
 367 729 l 1,15,-1
EndSplineSet
EndChar

StartChar: uni042C
Encoding: 1068 1068 472
Width: 1115
GlyphClass: 1
Flags: W
LayerCount: 2
Fore
SplineSet
390 884 m 1,0,-1
 653 884 l 2,1,2
 852 884 852 884 956.5 761 c 128,-1,3
 1061 638 1061 638 1033 445 c 0,4,5
 1001 240 1001 240 865 120 c 128,-1,6
 729 0 729 0 520 0 c 2,7,-1
 54 0 l 1,8,-1
 272 1456 l 1,9,-1
 476 1456 l 1,10,-1
 390 884 l 1,0,-1
367 729 m 1,11,-1
 281 154 l 1,12,-1
 543 154 l 2,13,14
 657 154 657 154 734 239.5 c 128,-1,15
 811 325 811 325 830 447 c 0,16,17
 848 569 848 569 798.5 649 c 128,-1,18
 749 729 749 729 629 729 c 2,19,-1
 367 729 l 1,11,-1
EndSplineSet
EndChar

StartChar: uni042D
Encoding: 1069 1069 473
Width: 1158
GlyphClass: 1
Flags: W
LayerCount: 2
Fore
SplineSet
194 989 m 1,0,-1
 192 995 l 1,1,2
 222 1221 222 1221 364.5 1349.5 c 128,-1,3
 507 1478 507 1478 724 1478 c 0,4,5
 930 1478 930 1478 1040.5 1302 c 128,-1,6
 1151 1126 1151 1126 1111 858 c 2,7,-1
 1072 598 l 2,8,9
 1029 315 1029 315 872 147.5 c 128,-1,10
 715 -20 715 -20 499 -20 c 0,11,12
 290 -20 290 -20 182 108.5 c 128,-1,13
 74 237 74 237 111 461 c 1,14,-1
 114 466 l 1,15,-1
 311 466 l 1,16,17
 285 298 285 298 337.5 216 c 128,-1,18
 390 134 390 134 522 134 c 0,19,20
 645 134 645 134 741.5 265 c 128,-1,21
 838 396 838 396 868 596 c 2,22,-1
 880 673 l 1,23,-1
 441 673 l 1,24,-1
 464 827 l 1,25,-1
 903 827 l 1,26,-1
 908 858 l 2,27,28
 939 1069 939 1069 884.5 1195.5 c 128,-1,29
 830 1322 830 1322 700 1322 c 0,30,31
 575 1322 575 1322 494 1236 c 128,-1,32
 413 1150 413 1150 389 989 c 1,33,-1
 194 989 l 1,0,-1
EndSplineSet
EndChar

StartChar: uni042E
Encoding: 1070 1070 474
Width: 1635
GlyphClass: 1
Flags: W
LayerCount: 2
Fore
SplineSet
1598 527 m 2,0,1
 1557 258 1557 258 1398.5 118.5 c 128,-1,2
 1240 -21 1240 -21 1001 -21 c 0,3,4
 778 -21 778 -21 658 124.5 c 128,-1,5
 538 270 538 270 577 527 c 2,6,-1
 593 636 l 1,7,-1
 375 636 l 1,8,-1
 280 0 l 1,9,-1
 77 0 l 1,10,-1
 295 1456 l 1,11,-1
 498 1456 l 1,12,-1
 398 791 l 1,13,-1
 616 791 l 1,14,-1
 637 927 l 2,15,16
 677 1196 677 1196 834 1336.5 c 128,-1,17
 991 1477 991 1477 1225 1477 c 0,18,19
 1452 1477 1452 1477 1574 1330 c 128,-1,20
 1696 1183 1696 1183 1658 927 c 2,21,-1
 1598 527 l 2,0,1
1457 930 m 2,22,23
 1486 1128 1486 1128 1420 1222.5 c 128,-1,24
 1354 1317 1354 1317 1201 1317 c 0,25,26
 1060 1317 1060 1317 963.5 1217.5 c 128,-1,27
 867 1118 867 1118 840 930 c 2,28,-1
 779 527 l 2,29,30
 748 327 748 327 812.5 232 c 128,-1,31
 877 137 877 137 1025 137 c 0,32,33
 1170 137 1170 137 1268.5 236.5 c 128,-1,34
 1367 336 1367 336 1396 527 c 2,35,-1
 1457 930 l 2,22,23
EndSplineSet
EndChar

StartChar: uni042F
Encoding: 1071 1071 475
Width: 1051
GlyphClass: 1
Flags: W
LayerCount: 2
Fore
SplineSet
152 0 m 1,0,-1
 -66 0 l 1,1,-1
 319 667 l 1,2,3
 215 718 215 718 171.5 808.5 c 128,-1,4
 128 899 128 899 148 1033 c 0,5,6
 178 1232 178 1232 318 1344 c 128,-1,7
 458 1456 458 1456 661 1456 c 2,8,-1
 1076 1456 l 1,9,-1
 858 0 l 1,10,-1
 654 0 l 1,11,-1
 744 604 l 1,12,-1
 495 604 l 1,13,-1
 152 0 l 1,0,-1
849 1300 m 1,14,-1
 638 1300 l 2,15,16
 515 1300 515 1300 443 1231 c 128,-1,17
 371 1162 371 1162 352 1030 c 0,18,19
 333 909 333 909 386.5 832.5 c 128,-1,20
 440 756 440 756 552 756 c 2,21,-1
 767 756 l 1,22,-1
 849 1300 l 1,14,-1
EndSplineSet
EndChar

StartChar: uni0431
Encoding: 1073 1073 477
Width: 993
GlyphClass: 1
Flags: W
LayerCount: 2
Fore
SplineSet
613 1102 m 0,0,1
 793 1102 793 1102 881 946.5 c 128,-1,2
 969 791 969 791 934 553 c 2,3,-1
 930 526 l 2,4,5
 892 275 892 275 756.5 127 c 128,-1,6
 621 -21 621 -21 421 -21 c 0,7,8
 230 -21 230 -21 134.5 133 c 128,-1,9
 39 287 39 287 75 526 c 2,10,-1
 79 553 l 2,11,12
 79 559 79 559 81.5 572.5 c 128,-1,13
 84 586 84 586 85 588 c 2,14,-1
 121 826 l 2,15,16
 167 1131 167 1131 295.5 1273.5 c 128,-1,17
 424 1416 424 1416 641 1427 c 0,18,19
 758 1432 758 1432 821.5 1460 c 128,-1,20
 885 1488 885 1488 895 1554 c 1,21,-1
 1051 1554 l 1,22,-1
 1053 1548 l 1,23,24
 1034 1386 1034 1386 932 1327.5 c 128,-1,25
 830 1269 830 1269 635 1265 c 0,26,27
 497 1261 497 1261 412 1185.5 c 128,-1,28
 327 1110 327 1110 311 968 c 1,29,-1
 314 963 l 1,30,31
 371 1025 371 1025 450 1063.5 c 128,-1,32
 529 1102 529 1102 613 1102 c 0,0,1
564 946 m 0,33,34
 457 946 457 946 381.5 832.5 c 128,-1,35
 306 719 306 719 282 553 c 2,36,-1
 278 526 l 2,37,38
 250 348 250 348 290 240.5 c 128,-1,39
 330 133 330 133 444 133 c 0,40,41
 550 133 550 133 625.5 245 c 128,-1,42
 701 357 701 357 727 526 c 2,43,-1
 731 553 l 2,44,45
 757 728 757 728 717.5 837 c 128,-1,46
 678 946 678 946 564 946 c 0,33,34
EndSplineSet
EndChar

StartChar: uni0432
Encoding: 1074 1074 478
Width: 1008
GlyphClass: 1
Flags: W
LayerCount: 2
Fore
SplineSet
45 0 m 1,0,-1
 207 1082 l 1,1,-1
 582 1082 l 2,2,3
 759 1082 759 1082 853 1006.5 c 128,-1,4
 947 931 947 931 926 786 c 0,5,6
 913 705 913 705 860.5 644.5 c 128,-1,7
 808 584 808 584 723 555 c 1,8,9
 820 532 820 532 864 463.5 c 128,-1,10
 908 395 908 395 895 305 c 0,11,12
 871 149 871 149 764.5 74.5 c 128,-1,13
 658 0 658 0 480 0 c 2,14,-1
 45 0 l 1,0,-1
319 476 m 1,15,-1
 271 152 l 1,16,-1
 503 152 l 2,17,18
 582 152 582 152 631 194 c 128,-1,19
 680 236 680 236 692 315 c 256,20,21
 704 394 704 394 669.5 435 c 128,-1,22
 635 476 635 476 551 476 c 2,23,-1
 319 476 l 1,15,-1
341 619 m 1,24,-1
 525 619 l 2,25,26
 608 620 608 620 658 658.5 c 128,-1,27
 708 697 708 697 720 771 c 0,28,29
 731 853 731 853 691.5 890 c 128,-1,30
 652 927 652 927 559 927 c 2,31,-1
 387 927 l 1,32,-1
 341 619 l 1,24,-1
EndSplineSet
EndChar

StartChar: uni0433
Encoding: 1075 1075 479
Width: 747
GlyphClass: 1
Flags: W
LayerCount: 2
Fore
SplineSet
787 925 m 1,0,-1
 377 925 l 1,1,-1
 239 0 l 1,2,-1
 35 0 l 1,3,-1
 197 1082 l 1,4,-1
 810 1082 l 1,5,-1
 787 925 l 1,0,-1
EndSplineSet
EndChar

StartChar: uni0434
Encoding: 1076 1076 480
Width: 1149
GlyphClass: 1
Flags: W
LayerCount: 2
Fore
SplineSet
97 154 m 2,0,1
 161 154 161 154 212.5 282 c 128,-1,2
 264 410 264 410 315 670 c 2,3,-1
 396 1082 l 1,4,-1
 1043 1082 l 1,5,-1
 904 154 l 1,6,-1
 1025 154 l 1,7,-1
 949 -355 l 1,8,-1
 746 -355 l 1,9,-1
 799 0 l 1,10,-1
 190 0 l 1,11,-1
 137 -355 l 1,12,-1
 -67 -355 l 1,13,-1
 9 154 l 1,14,-1
 97 154 l 2,0,1
518 670 m 2,15,16
 482 491 482 491 441.5 363.5 c 128,-1,17
 401 236 401 236 347 154 c 1,18,-1
 700 154 l 1,19,-1
 814 915 l 1,20,-1
 566 915 l 1,21,-1
 518 670 l 2,15,16
EndSplineSet
EndChar

StartChar: uni0436
Encoding: 1078 1078 482
Width: 1365
GlyphClass: 1
Flags: W
LayerCount: 2
Fore
SplineSet
832 462 m 1,0,-1
 771 462 l 1,1,-1
 702 0 l 1,2,-1
 500 0 l 1,3,-1
 569 462 l 1,4,-1
 509 462 l 1,5,-1
 205 0 l 1,6,-1
 -54 0 l 1,7,-1
 369 584 l 1,8,-1
 131 1082 l 1,9,-1
 385 1082 l 1,10,-1
 543 635 l 1,11,-1
 595 635 l 1,12,-1
 662 1082 l 1,13,-1
 864 1082 l 1,14,-1
 797 635 l 1,15,-1
 851 635 l 1,16,-1
 1144 1082 l 1,17,-1
 1396 1082 l 1,18,-1
 1009 584 l 1,19,-1
 1257 0 l 1,20,-1
 998 0 l 1,21,-1
 832 462 l 1,0,-1
EndSplineSet
EndChar

StartChar: uni0437
Encoding: 1079 1079 483
Width: 979
GlyphClass: 1
Flags: W
LayerCount: 2
Fore
SplineSet
344 624 m 1,0,-1
 507 624 l 2,1,2
 593 624 593 624 644.5 666.5 c 128,-1,3
 696 709 696 709 707 783 c 256,4,5
 718 857 718 857 680.5 903.5 c 128,-1,6
 643 950 643 950 551 950 c 0,7,8
 474 950 474 950 412 902 c 128,-1,9
 350 854 350 854 339 781 c 1,10,-1
 146 781 l 1,11,-1
 144 787 l 1,12,13
 160 932 160 932 281 1016 c 128,-1,14
 402 1100 402 1100 567 1100 c 0,15,16
 740 1100 740 1100 837 1018 c 128,-1,17
 934 936 934 936 912 789 c 0,18,19
 900 711 900 711 847 649.5 c 128,-1,20
 794 588 794 588 712 554 c 1,21,22
 793 521 793 521 831 457 c 128,-1,23
 869 393 869 393 856 302 c 0,24,25
 832 147 832 147 707 64 c 128,-1,26
 582 -19 582 -19 399 -19 c 0,27,28
 242 -19 242 -19 136 66.5 c 128,-1,29
 30 152 30 152 58 310 c 1,30,-1
 60 316 l 1,31,-1
 255 316 l 1,32,33
 243 234 243 234 289 181.5 c 128,-1,34
 335 129 335 129 428 129 c 0,35,36
 518 129 518 129 579.5 179.5 c 128,-1,37
 641 230 641 230 653 307 c 0,38,39
 666 399 666 399 623.5 439 c 128,-1,40
 581 479 581 479 485 479 c 2,41,-1
 322 479 l 1,42,-1
 328 519 l 1,43,-1
 338 584 l 1,44,-1
 344 624 l 1,0,-1
EndSplineSet
EndChar

StartChar: uni0438
Encoding: 1080 1080 484
Width: 1008
GlyphClass: 1
Flags: W
LayerCount: 2
Fore
SplineSet
771 1082 m 1,0,-1
 975 1082 l 1,1,-1
 813 0 l 1,2,-1
 609 0 l 1,3,-1
 719 734 l 1,4,-1
 713 736 l 1,5,-1
 238 0 l 1,6,-1
 35 0 l 1,7,-1
 197 1082 l 1,8,-1
 400 1082 l 1,9,-1
 289 346 l 1,10,-1
 295 344 l 1,11,-1
 771 1082 l 1,0,-1
EndSplineSet
EndChar

StartChar: uni043A
Encoding: 1082 1082 486
Width: 993
GlyphClass: 1
Flags: W
LayerCount: 2
Fore
SplineSet
412 457 m 1,0,-1
 320 457 l 1,1,-1
 252 0 l 1,2,-1
 49 0 l 1,3,-1
 211 1082 l 1,4,-1
 414 1082 l 1,5,-1
 346 629 l 1,6,-1
 425 629 l 1,7,-1
 768 1082 l 1,8,-1
 1015 1082 l 1,9,-1
 1017 1077 l 1,10,-1
 591 576 l 1,11,-1
 890 0 l 1,12,-1
 623 0 l 1,13,-1
 412 457 l 1,0,-1
EndSplineSet
EndChar

StartChar: uni043B
Encoding: 1083 1083 487
Width: 994
GlyphClass: 1
Flags: W
LayerCount: 2
Fore
SplineSet
975 1082 m 1,0,-1
 813 0 l 1,1,-1
 609 0 l 1,2,-1
 747 925 l 1,3,-1
 470 925 l 1,4,-1
 424 613 l 2,5,6
 374 282 374 282 276.5 141 c 128,-1,7
 179 0 179 0 -11 0 c 2,8,-1
 -54 0 l 1,9,-1
 -30 162 l 1,10,-1
 1 163 l 2,11,12
 87 163 87 163 135 262.5 c 128,-1,13
 183 362 183 362 221 613 c 2,14,-1
 291 1082 l 1,15,-1
 975 1082 l 1,0,-1
EndSplineSet
EndChar

StartChar: uni043C
Encoding: 1084 1084 488
Width: 1337
GlyphClass: 1
Flags: W
LayerCount: 2
Fore
SplineSet
618 249 m 1,0,-1
 624 248 l 1,1,-1
 1027 1082 l 1,2,-1
 1282 1082 l 1,3,-1
 1120 0 l 1,4,-1
 916 0 l 1,5,-1
 1022 711 l 1,6,-1
 1017 713 l 1,7,-1
 654 0 l 1,8,-1
 516 0 l 1,9,-1
 365 719 l 1,10,-1
 359 719 l 1,11,-1
 252 0 l 1,12,-1
 49 0 l 1,13,-1
 211 1082 l 1,14,-1
 467 1082 l 1,15,-1
 618 249 l 1,0,-1
EndSplineSet
EndChar

StartChar: uni043D
Encoding: 1085 1085 489
Width: 1008
GlyphClass: 1
Flags: W
LayerCount: 2
Fore
SplineSet
811 0 m 1,0,-1
 607 0 l 1,1,-1
 676 462 l 1,2,-1
 308 462 l 1,3,-1
 239 0 l 1,4,-1
 35 0 l 1,5,-1
 197 1082 l 1,6,-1
 401 1082 l 1,7,-1
 331 616 l 1,8,-1
 699 616 l 1,9,-1
 769 1082 l 1,10,-1
 973 1082 l 1,11,-1
 811 0 l 1,0,-1
EndSplineSet
EndChar

StartChar: uni043F
Encoding: 1087 1087 491
Width: 1008
GlyphClass: 1
Flags: W
LayerCount: 2
Fore
SplineSet
813 0 m 1,0,-1
 609 0 l 1,1,-1
 747 925 l 1,2,-1
 377 925 l 1,3,-1
 239 0 l 1,4,-1
 35 0 l 1,5,-1
 197 1082 l 1,6,-1
 975 1082 l 1,7,-1
 813 0 l 1,0,-1
EndSplineSet
EndChar

StartChar: uni0441
Encoding: 1089 1089 493
Width: 927
GlyphClass: 1
Flags: W
LayerCount: 2
Fore
SplineSet
433 133 m 0,0,1
 505 133 505 133 565.5 191.5 c 128,-1,2
 626 250 626 250 641 348 c 1,3,-1
 823 348 l 1,4,-1
 826 342 l 1,5,6
 806 183 806 183 684.5 81 c 128,-1,7
 563 -21 563 -21 410 -21 c 0,8,9
 218 -21 218 -21 128 133.5 c 128,-1,10
 38 288 38 288 73 521 c 2,11,-1
 79 559 l 2,12,13
 115 803 115 803 245.5 952.5 c 128,-1,14
 376 1102 376 1102 578 1102 c 0,15,16
 734 1102 734 1102 822.5 991 c 128,-1,17
 911 880 911 880 885 703 c 1,18,-1
 694 703 l 1,19,20
 711 815 711 815 673 880.5 c 128,-1,21
 635 946 635 946 555 946 c 0,22,23
 446 946 446 946 376 834 c 128,-1,24
 306 722 306 722 282 559 c 2,25,-1
 276 521 l 2,26,27
 250 345 250 345 283.5 239 c 128,-1,28
 317 133 317 133 433 133 c 0,0,1
EndSplineSet
EndChar

StartChar: uni0442
Encoding: 1090 1090 494
Width: 923
GlyphClass: 1
Flags: W
LayerCount: 2
Fore
SplineSet
927 927 m 1,0,-1
 621 927 l 1,1,-1
 482 0 l 1,2,-1
 278 0 l 1,3,-1
 417 927 l 1,4,-1
 116 927 l 1,5,-1
 139 1082 l 1,6,-1
 950 1082 l 1,7,-1
 927 927 l 1,0,-1
EndSplineSet
EndChar

StartChar: uni0444
Encoding: 1092 1092 496
Width: 1569
GlyphClass: 1
Flags: W
LayerCount: 2
Fore
SplineSet
76 528 m 2,0,1
 116 797 116 797 233 949.5 c 128,-1,2
 350 1102 350 1102 524 1102 c 0,3,4
 597 1102 597 1102 652 1070.5 c 128,-1,5
 707 1039 707 1039 743 981 c 1,6,-1
 830 1560 l 1,7,-1
 1033 1560 l 1,8,-1
 946 980 l 1,9,10
 999 1039 999 1039 1065 1070.5 c 128,-1,11
 1131 1102 1131 1102 1209 1102 c 0,12,13
 1375 1102 1375 1102 1450 943 c 128,-1,14
 1525 784 1525 784 1487 528 c 2,15,-1
 1484 507 l 2,16,17
 1446 258 1446 258 1331 118.5 c 128,-1,18
 1216 -21 1216 -21 1043 -21 c 0,19,20
 965 -21 965 -21 908 10 c 128,-1,21
 851 41 851 41 814 101 c 1,22,-1
 737 -416 l 1,23,-1
 534 -416 l 1,24,-1
 610 90 l 1,25,26
 557 35 557 35 493.5 7 c 128,-1,27
 430 -21 430 -21 354 -21 c 0,28,29
 190 -21 190 -21 113.5 125 c 128,-1,30
 37 271 37 271 73 507 c 2,31,-1
 76 528 l 2,0,1
1283 528 m 2,32,33
 1312 719 1312 719 1275.5 832.5 c 128,-1,34
 1239 946 1239 946 1131 946 c 0,35,36
 1066 946 1066 946 1012.5 906.5 c 128,-1,37
 959 867 959 867 919 801 c 1,38,-1
 838 261 l 1,39,40
 857 200 857 200 899.5 166.5 c 128,-1,41
 942 133 942 133 1011 133 c 0,42,43
 1114 133 1114 133 1184 236.5 c 128,-1,44
 1254 340 1254 340 1280 507 c 2,45,-1
 1283 528 l 2,32,33
275 507 m 2,46,47
 248 330 248 330 284 231.5 c 128,-1,48
 320 133 320 133 429 133 c 0,49,50
 493 133 493 133 544.5 167 c 128,-1,51
 596 201 596 201 635 262 c 1,52,-1
 718 814 l 1,53,54
 698 875 698 875 657.5 910.5 c 128,-1,55
 617 946 617 946 552 946 c 0,56,57
 449 946 449 946 377 828 c 128,-1,58
 305 710 305 710 278 528 c 2,59,-1
 275 507 l 2,46,47
EndSplineSet
EndChar

StartChar: uni0446
Encoding: 1094 1094 498
Width: 1069
GlyphClass: 1
Flags: W
LayerCount: 2
Fore
SplineSet
197 1082 m 1,0,-1
 401 1082 l 1,1,-1
 262 154 l 1,2,-1
 632 154 l 1,3,-1
 771 1082 l 1,4,-1
 975 1082 l 1,5,-1
 836 154 l 1,6,-1
 956 154 l 1,7,-1
 880 -353 l 1,8,-1
 677 -353 l 1,9,-1
 730 0 l 1,10,-1
 35 0 l 1,11,-1
 197 1082 l 1,0,-1
EndSplineSet
EndChar

StartChar: uni0447
Encoding: 1095 1095 499
Width: 992
GlyphClass: 1
Flags: W
LayerCount: 2
Fore
SplineSet
798 0 m 1,0,-1
 593 0 l 1,1,-1
 652 392 l 1,2,3
 607 379 607 379 563 372.5 c 128,-1,4
 519 366 519 366 477 366 c 0,5,6
 294 366 294 366 203.5 466 c 128,-1,7
 113 566 113 566 144 776 c 2,8,-1
 190 1082 l 1,9,-1
 393 1082 l 1,10,-1
 347 776 l 2,11,12
 325 631 325 631 362 576 c 128,-1,13
 399 521 399 521 500 521 c 0,14,15
 544 521 544 521 587.5 528.5 c 128,-1,16
 631 536 631 536 675 550 c 1,17,-1
 755 1082 l 1,18,-1
 960 1082 l 1,19,-1
 798 0 l 1,0,-1
EndSplineSet
EndChar

StartChar: uni0448
Encoding: 1096 1096 500
Width: 1445
GlyphClass: 1
Flags: W
LayerCount: 2
Fore
SplineSet
401 1082 m 1,0,-1
 262 154 l 1,1,-1
 561 154 l 1,2,-1
 700 1082 l 1,3,-1
 904 1082 l 1,4,-1
 765 154 l 1,5,-1
 1064 154 l 1,6,-1
 1203 1082 l 1,7,-1
 1406 1082 l 1,8,-1
 1244 0 l 1,9,-1
 35 0 l 1,10,-1
 197 1082 l 1,11,-1
 401 1082 l 1,0,-1
EndSplineSet
EndChar

StartChar: uni0449
Encoding: 1097 1097 501
Width: 1550
GlyphClass: 1
Flags: W
LayerCount: 2
Fore
SplineSet
401 1082 m 1,0,-1
 262 154 l 1,1,-1
 561 154 l 1,2,-1
 700 1082 l 1,3,-1
 904 1082 l 1,4,-1
 765 154 l 1,5,-1
 1064 154 l 1,6,-1
 1203 1082 l 1,7,-1
 1406 1082 l 1,8,-1
 1253 64 l 1,9,-1
 1417 64 l 1,10,-1
 1368 -257 l 1,11,-1
 1172 -257 l 1,12,-1
 1211 0 l 1,13,-1
 35 0 l 1,14,-1
 197 1082 l 1,15,-1
 401 1082 l 1,0,-1
EndSplineSet
EndChar

StartChar: uni044A
Encoding: 1098 1098 502
Width: 1124
GlyphClass: 1
Flags: W
LayerCount: 2
Fore
SplineSet
553 681 m 1,0,-1
 759 681 l 2,1,2
 928 681 928 681 1017 585.5 c 128,-1,3
 1106 490 1106 490 1084 343 c 0,4,5
 1061 186 1061 186 947.5 93 c 128,-1,6
 834 0 834 0 657 0 c 2,7,-1
 247 0 l 1,8,-1
 386 927 l 1,9,-1
 90 927 l 1,10,-1
 113 1082 l 1,11,-1
 613 1082 l 1,12,-1
 553 681 l 1,0,-1
529 525 m 1,13,-1
 474 154 l 1,14,-1
 680 154 l 2,15,16
 764 154 764 154 815.5 207 c 128,-1,17
 867 260 867 260 880 339 c 0,18,19
 891 419 891 419 857 472 c 128,-1,20
 823 525 823 525 736 525 c 2,21,-1
 529 525 l 1,13,-1
EndSplineSet
EndChar

StartChar: uni044B
Encoding: 1099 1099 503
Width: 1435
GlyphClass: 1
Flags: W
LayerCount: 2
Fore
SplineSet
375 681 m 1,0,-1
 581 681 l 2,1,2
 750 681 750 681 839 585.5 c 128,-1,3
 928 490 928 490 906 343 c 0,4,5
 883 186 883 186 769.5 93 c 128,-1,6
 656 0 656 0 479 0 c 2,7,-1
 69 0 l 1,8,-1
 231 1082 l 1,9,-1
 435 1082 l 1,10,-1
 375 681 l 1,0,-1
1336 0 m 1,11,-1
 1133 0 l 1,12,-1
 1295 1082 l 1,13,-1
 1498 1082 l 1,14,-1
 1336 0 l 1,11,-1
351 525 m 1,15,-1
 296 154 l 1,16,-1
 502 154 l 2,17,18
 586 154 586 154 637.5 207 c 128,-1,19
 689 260 689 260 702 339 c 0,20,21
 713 419 713 419 679 472 c 128,-1,22
 645 525 645 525 558 525 c 2,23,-1
 351 525 l 1,15,-1
EndSplineSet
EndChar

StartChar: uni044C
Encoding: 1100 1100 504
Width: 982
GlyphClass: 1
Flags: W
LayerCount: 2
Fore
SplineSet
355 681 m 1,0,-1
 561 681 l 2,1,2
 730 681 730 681 819 585.5 c 128,-1,3
 908 490 908 490 886 343 c 0,4,5
 863 186 863 186 749.5 93 c 128,-1,6
 636 0 636 0 459 0 c 2,7,-1
 49 0 l 1,8,-1
 211 1082 l 1,9,-1
 415 1082 l 1,10,-1
 355 681 l 1,0,-1
331 525 m 1,11,-1
 276 154 l 1,12,-1
 482 154 l 2,13,14
 566 154 566 154 617.5 207 c 128,-1,15
 669 260 669 260 682 339 c 0,16,17
 693 419 693 419 659 472 c 128,-1,18
 625 525 625 525 538 525 c 2,19,-1
 331 525 l 1,11,-1
EndSplineSet
EndChar

StartChar: uni044D
Encoding: 1101 1101 505
Width: 944
GlyphClass: 1
Flags: W
LayerCount: 2
Fore
SplineSet
508 946 m 0,0,1
 435 946 435 946 373.5 887 c 128,-1,2
 312 828 312 828 298 732 c 1,3,-1
 116 732 l 1,4,-1
 113 738 l 1,5,6
 132 896 132 896 254.5 999 c 128,-1,7
 377 1102 377 1102 531 1102 c 0,8,9
 719 1102 719 1102 811 946 c 128,-1,10
 903 790 903 790 869 559 c 2,11,-1
 863 521 l 2,12,13
 826 278 826 278 694 128.5 c 128,-1,14
 562 -21 562 -21 365 -21 c 0,15,16
 206 -21 206 -21 116.5 89.5 c 128,-1,17
 27 200 27 200 54 377 c 1,18,-1
 245 377 l 1,19,20
 227 263 227 263 266.5 198 c 128,-1,21
 306 133 306 133 388 133 c 0,22,23
 484 133 484 133 553 231.5 c 128,-1,24
 622 330 622 330 652 478 c 1,25,-1
 351 478 l 1,26,-1
 372 617 l 1,27,-1
 673 617 l 1,28,29
 686 765 686 765 647.5 855.5 c 128,-1,30
 609 946 609 946 508 946 c 0,0,1
EndSplineSet
EndChar

StartChar: uni044E
Encoding: 1102 1102 506
Width: 1446
GlyphClass: 1
Flags: W
LayerCount: 2
Fore
SplineSet
347 622 m 1,0,-1
 598 622 l 1,1,2
 646 843 646 843 776.5 972.5 c 128,-1,3
 907 1102 907 1102 1094 1102 c 0,4,5
 1285 1102 1285 1102 1380 946.5 c 128,-1,6
 1475 791 1475 791 1440 553 c 2,7,-1
 1436 526 l 2,8,9
 1398 275 1398 275 1263 127 c 128,-1,10
 1128 -21 1128 -21 928 -21 c 0,11,12
 748 -21 748 -21 652 115 c 128,-1,13
 556 251 556 251 574 468 c 1,14,-1
 324 468 l 1,15,-1
 254 0 l 1,16,-1
 51 0 l 1,17,-1
 213 1082 l 1,18,-1
 416 1082 l 1,19,-1
 347 622 l 1,0,-1
785 526 m 2,20,21
 757 348 757 348 796.5 240.5 c 128,-1,22
 836 133 836 133 951 133 c 0,23,24
 1057 133 1057 133 1131.5 245 c 128,-1,25
 1206 357 1206 357 1232 526 c 2,26,-1
 1236 553 l 2,27,28
 1262 728 1262 728 1223 837 c 128,-1,29
 1184 946 1184 946 1071 946 c 0,30,31
 963 946 963 946 888 833 c 128,-1,32
 813 720 813 720 789 553 c 2,33,-1
 785 526 l 2,20,21
EndSplineSet
EndChar

StartChar: uni044F
Encoding: 1103 1103 507
Width: 1007
GlyphClass: 1
Flags: W
LayerCount: 2
Fore
SplineSet
959 1082 m 1,0,-1
 797 0 l 1,1,-1
 594 0 l 1,2,-1
 656 413 l 1,3,-1
 468 413 l 1,4,-1
 196 0 l 1,5,-1
 -15 0 l 1,6,-1
 281 447 l 1,7,8
 197 487 197 487 157.5 565.5 c 128,-1,9
 118 644 118 644 134 745 c 0,10,11
 156 898 156 898 270 990 c 128,-1,12
 384 1082 384 1082 560 1082 c 2,13,-1
 959 1082 l 1,0,-1
337 741 m 0,14,15
 325 664 325 664 358 611.5 c 128,-1,16
 391 559 391 559 470 559 c 2,17,-1
 678 559 l 1,18,-1
 733 927 l 1,19,-1
 537 927 l 2,20,21
 456 927 456 927 402 871.5 c 128,-1,22
 348 816 348 816 337 741 c 0,14,15
EndSplineSet
EndChar

StartChar: uni0452
Encoding: 1106 1106 510
Width: 1009
GlyphClass: 1
Flags: W
LayerCount: 2
Fore
SplineSet
568 1232 m 1,0,-1
 423 1232 l 1,1,-1
 379 943 l 1,2,3
 436 1019 436 1019 509.5 1060.5 c 128,-1,4
 583 1102 583 1102 666 1102 c 0,5,6
 808 1102 808 1102 877 993 c 128,-1,7
 946 884 946 884 913 662 c 2,8,-1
 881 451 l 1,9,-1
 883 451 l 1,10,-1
 804 -74 l 2,11,12
 776 -255 776 -255 683.5 -346 c 128,-1,13
 591 -437 591 -437 446 -437 c 0,14,15
 416 -437 416 -437 390.5 -432.5 c 128,-1,16
 365 -428 365 -428 337 -419 c 1,17,-1
 373 -268 l 1,18,19
 387 -273 387 -273 412 -277.5 c 128,-1,20
 437 -282 437 -282 457 -282 c 0,21,22
 507 -282 507 -282 546 -226.5 c 128,-1,23
 585 -171 585 -171 600 -74 c 2,24,-1
 611 0 l 1,25,-1
 610 0 l 1,26,-1
 710 664 l 2,27,28
 732 819 732 819 699.5 881.5 c 128,-1,29
 667 944 667 944 582 944 c 0,30,31
 514 944 514 944 457.5 908.5 c 128,-1,32
 401 873 401 873 359 810 c 1,33,-1
 238 0 l 1,34,-1
 34 0 l 1,35,-1
 219 1232 l 1,36,-1
 61 1232 l 1,37,-1
 79 1356 l 1,38,-1
 237 1356 l 1,39,-1
 268 1560 l 1,40,-1
 472 1560 l 1,41,-1
 441 1356 l 1,42,-1
 586 1356 l 1,43,-1
 568 1232 l 1,0,-1
EndSplineSet
EndChar

StartChar: uni0454
Encoding: 1108 1108 512
Width: 944
GlyphClass: 1
Flags: W
LayerCount: 2
Fore
SplineSet
433 133 m 0,0,1
 505 133 505 133 565.5 191.5 c 128,-1,2
 626 250 626 250 641 348 c 1,3,-1
 823 348 l 1,4,-1
 826 342 l 1,5,6
 806 183 806 183 684.5 81 c 128,-1,7
 563 -21 563 -21 410 -21 c 0,8,9
 218 -21 218 -21 128 133.5 c 128,-1,10
 38 288 38 288 73 521 c 2,11,-1
 79 559 l 2,12,13
 115 803 115 803 245.5 952.5 c 128,-1,14
 376 1102 376 1102 578 1102 c 0,15,16
 734 1102 734 1102 822.5 991 c 128,-1,17
 911 880 911 880 885 703 c 1,18,-1
 694 703 l 1,19,20
 711 815 711 815 673 880.5 c 128,-1,21
 635 946 635 946 555 946 c 0,22,23
 454 946 454 946 386.5 850 c 128,-1,24
 319 754 319 754 290 607 c 1,25,-1
 601 607 l 1,26,-1
 580 468 l 1,27,-1
 269 468 l 1,28,29
 253 314 253 314 289.5 223.5 c 128,-1,30
 326 133 326 133 433 133 c 0,0,1
EndSplineSet
EndChar

StartChar: uni0459
Encoding: 1113 1113 517
Width: 1540
GlyphClass: 1
Flags: W
LayerCount: 2
Fore
SplineSet
975 1082 m 1,0,-1
 915 681 l 1,1,-1
 1121 681 l 2,2,3
 1290 681 1290 681 1379 586 c 128,-1,4
 1468 491 1468 491 1446 343 c 0,5,6
 1423 186 1423 186 1310 93 c 128,-1,7
 1197 0 1197 0 1019 0 c 2,8,-1
 609 0 l 1,9,-1
 747 925 l 1,10,-1
 499 925 l 1,11,-1
 453 613 l 2,12,13
 403 285 403 285 300.5 142.5 c 128,-1,14
 198 0 198 0 7 0 c 2,15,-1
 -36 0 l 1,16,-1
 -13 156 l 1,17,-1
 19 157 l 2,18,19
 101 157 101 157 157 265 c 128,-1,20
 213 373 213 373 250 613 c 2,21,-1
 320 1082 l 1,22,-1
 975 1082 l 1,0,-1
892 526 m 1,23,-1
 836 152 l 1,24,-1
 1042 152 l 2,25,26
 1125 152 1125 152 1177.5 208.5 c 128,-1,27
 1230 265 1230 265 1243 345 c 0,28,29
 1254 424 1254 424 1220 475 c 128,-1,30
 1186 526 1186 526 1098 526 c 2,31,-1
 892 526 l 1,23,-1
EndSplineSet
EndChar

StartChar: uni045A
Encoding: 1114 1114 518
Width: 1538
GlyphClass: 1
Flags: W
LayerCount: 2
Fore
SplineSet
338 662 m 1,0,-1
 706 662 l 1,1,-1
 769 1082 l 1,2,-1
 973 1082 l 1,3,-1
 913 681 l 1,4,-1
 1119 681 l 2,5,6
 1288 681 1288 681 1377 586 c 128,-1,7
 1466 491 1466 491 1444 343 c 0,8,9
 1421 186 1421 186 1308 93 c 128,-1,10
 1195 0 1195 0 1017 0 c 2,11,-1
 607 0 l 1,12,-1
 683 508 l 1,13,-1
 315 508 l 1,14,-1
 239 0 l 1,15,-1
 35 0 l 1,16,-1
 197 1082 l 1,17,-1
 401 1082 l 1,18,-1
 338 662 l 1,0,-1
890 526 m 1,19,-1
 834 152 l 1,20,-1
 1040 152 l 2,21,22
 1124 152 1124 152 1176 208.5 c 128,-1,23
 1228 265 1228 265 1241 345 c 0,24,25
 1252 424 1252 424 1218 475 c 128,-1,26
 1184 526 1184 526 1096 526 c 2,27,-1
 890 526 l 1,19,-1
EndSplineSet
EndChar

StartChar: uni045B
Encoding: 1115 1115 519
Width: 1009
GlyphClass: 1
Flags: W
LayerCount: 2
Fore
SplineSet
673 1226 m 1,0,-1
 422 1226 l 1,1,-1
 379 943 l 1,2,3
 436 1019 436 1019 509.5 1060.5 c 128,-1,4
 583 1102 583 1102 666 1102 c 0,5,6
 808 1102 808 1102 877 993 c 128,-1,7
 946 884 946 884 913 662 c 2,8,-1
 814 0 l 1,9,-1
 610 0 l 1,10,-1
 710 664 l 2,11,12
 732 819 732 819 699.5 881.5 c 128,-1,13
 667 944 667 944 582 944 c 0,14,15
 514 944 514 944 457.5 908.5 c 128,-1,16
 401 873 401 873 359 810 c 1,17,-1
 238 0 l 1,18,-1
 34 0 l 1,19,-1
 218 1226 l 1,20,-1
 110 1226 l 1,21,-1
 131 1367 l 1,22,-1
 239 1367 l 1,23,-1
 268 1560 l 1,24,-1
 472 1560 l 1,25,-1
 443 1367 l 1,26,-1
 694 1367 l 1,27,-1
 673 1226 l 1,0,-1
EndSplineSet
EndChar

StartChar: uni045F
Encoding: 1119 1119 523
Width: 1008
GlyphClass: 1
Flags: W
LayerCount: 2
Fore
SplineSet
401 1082 m 1,0,-1
 262 154 l 1,1,-1
 632 154 l 1,2,-1
 771 1082 l 1,3,-1
 975 1082 l 1,4,-1
 813 0 l 1,5,-1
 527 0 l 1,6,-1
 474 -355 l 1,7,-1
 270 -355 l 1,8,-1
 323 0 l 1,9,-1
 35 0 l 1,10,-1
 197 1082 l 1,11,-1
 401 1082 l 1,0,-1
EndSplineSet
EndChar

StartChar: uni0460
Encoding: 1120 1120 524
Width: 1690
GlyphClass: 1
Flags: W
LayerCount: 2
Fore
SplineSet
1085 1431 m 1,0,1
 1136 1453 1136 1453 1193.5 1465 c 128,-1,2
 1251 1477 1251 1477 1312 1477 c 0,3,4
 1493 1477 1493 1477 1592 1306.5 c 128,-1,5
 1691 1136 1691 1136 1652 874 c 2,6,-1
 1609 586 l 2,7,8
 1566 307 1566 307 1417.5 143 c 128,-1,9
 1269 -21 1269 -21 1073 -21 c 0,10,11
 978 -21 978 -21 906 4.5 c 128,-1,12
 834 30 834 30 783 74 c 1,13,14
 720 30 720 30 640 4.5 c 128,-1,15
 560 -21 560 -21 462 -21 c 0,16,17
 274 -21 274 -21 170.5 149.5 c 128,-1,18
 67 320 67 320 107 586 c 2,19,-1
 150 874 l 2,20,21
 191 1150 191 1150 336 1313.5 c 128,-1,22
 481 1477 481 1477 673 1477 c 0,23,24
 730 1477 730 1477 785 1465 c 128,-1,25
 840 1453 840 1453 886 1431 c 1,26,-1
 813 1279 l 1,27,28
 783 1299 783 1299 742 1310 c 128,-1,29
 701 1321 701 1321 652 1321 c 0,30,31
 552 1321 552 1321 467.5 1194.5 c 128,-1,32
 383 1068 383 1068 354 876 c 2,33,-1
 311 586 l 2,34,35
 280 379 280 379 327.5 256 c 128,-1,36
 375 133 375 133 485 133 c 0,37,38
 564 133 564 133 618 164 c 128,-1,39
 672 195 672 195 704 238 c 1,40,-1
 755 580 l 1,41,-1
 584 580 l 1,42,-1
 606 728 l 1,43,-1
 1153 728 l 1,44,-1
 1131 580 l 1,45,-1
 960 580 l 1,46,-1
 909 238 l 1,47,48
 926 194 926 194 969 163.5 c 128,-1,49
 1012 133 1012 133 1096 133 c 0,50,51
 1198 133 1198 133 1286.5 261 c 128,-1,52
 1375 389 1375 389 1405 586 c 2,53,-1
 1448 876 l 2,54,55
 1478 1078 1478 1078 1433.5 1199.5 c 128,-1,56
 1389 1321 1389 1321 1285 1321 c 0,57,58
 1236 1321 1236 1321 1191.5 1310 c 128,-1,59
 1147 1299 1147 1299 1111 1279 c 1,60,-1
 1085 1431 l 1,0,1
EndSplineSet
EndChar

StartChar: uni0461
Encoding: 1121 1121 525
Width: 1246
GlyphClass: 1
Flags: W
LayerCount: 2
Fore
SplineSet
404 325 m 1,0,-1
 409 217 l 1,1,-1
 415 216 l 1,2,-1
 459 325 l 1,3,-1
 608 691 l 1,4,-1
 564 1082 l 1,5,-1
 770 1082 l 1,6,-1
 807 325 l 1,7,-1
 811 229 l 1,8,-1
 817 228 l 1,9,-1
 826 249 l 1,10,11
 920 404 920 404 981.5 623.5 c 128,-1,12
 1043 843 1043 843 1074 1082 c 1,13,-1
 1284 1082 l 1,14,15
 1230 787 1230 787 1123 517 c 128,-1,16
 1016 247 1016 247 864 0 c 1,17,-1
 687 0 l 1,18,-1
 642 393 l 1,19,-1
 636 394 l 1,20,-1
 458 0 l 1,21,-1
 284 0 l 1,22,-1
 114 1082 l 1,23,-1
 326 1082 l 1,24,-1
 404 325 l 1,0,-1
EndSplineSet
EndChar

StartChar: uni0462
Encoding: 1122 1122 526
Width: 1115
GlyphClass: 1
Flags: W
LayerCount: 2
Fore
SplineSet
640 1108 m 1,0,-1
 424 1108 l 1,1,-1
 390 884 l 1,2,-1
 653 884 l 2,3,4
 852 884 852 884 956.5 761 c 128,-1,5
 1061 638 1061 638 1033 445 c 0,6,7
 1001 240 1001 240 865 120 c 128,-1,8
 729 0 729 0 520 0 c 2,9,-1
 54 0 l 1,10,-1
 220 1108 l 1,11,-1
 77 1108 l 1,12,-1
 98 1249 l 1,13,-1
 241 1249 l 1,14,-1
 272 1456 l 1,15,-1
 476 1456 l 1,16,-1
 445 1249 l 1,17,-1
 661 1249 l 1,18,-1
 640 1108 l 1,0,-1
367 729 m 1,19,-1
 281 154 l 1,20,-1
 543 154 l 2,21,22
 657 154 657 154 734 239.5 c 128,-1,23
 811 325 811 325 830 447 c 0,24,25
 848 569 848 569 798.5 649 c 128,-1,26
 749 729 749 729 629 729 c 2,27,-1
 367 729 l 1,19,-1
EndSplineSet
EndChar

StartChar: uni0463
Encoding: 1123 1123 527
Width: 982
GlyphClass: 1
Flags: W
LayerCount: 2
Fore
SplineSet
664 1096 m 1,0,-1
 417 1096 l 1,1,-1
 355 681 l 1,2,-1
 561 681 l 2,3,4
 730 681 730 681 819 585.5 c 128,-1,5
 908 490 908 490 886 343 c 0,6,7
 863 186 863 186 749.5 93 c 128,-1,8
 636 0 636 0 459 0 c 2,9,-1
 49 0 l 1,10,-1
 213 1096 l 1,11,-1
 71 1096 l 1,12,-1
 93 1237 l 1,13,-1
 234 1237 l 1,14,-1
 283 1562 l 1,15,-1
 487 1562 l 1,16,-1
 438 1237 l 1,17,-1
 686 1237 l 1,18,-1
 664 1096 l 1,0,-1
331 525 m 1,19,-1
 276 154 l 1,20,-1
 482 154 l 2,21,22
 566 154 566 154 617.5 207 c 128,-1,23
 669 260 669 260 682 339 c 0,24,25
 693 419 693 419 659 472 c 128,-1,26
 625 525 625 525 538 525 c 2,27,-1
 331 525 l 1,19,-1
EndSplineSet
EndChar

StartChar: uni0464
Encoding: 1124 1124 528
Width: 1589
GlyphClass: 1
Flags: W
LayerCount: 2
Fore
SplineSet
1096 643 m 1,0,-1
 787 643 l 1,1,-1
 770 526 l 2,2,3
 740 328 740 328 799.5 231 c 128,-1,4
 859 134 859 134 998 134 c 0,5,6
 1125 134 1125 134 1204 207.5 c 128,-1,7
 1283 281 1283 281 1308 439 c 1,8,-1
 1502 439 l 1,9,-1
 1504 433 l 1,10,11
 1474 209 1474 209 1334.5 94.5 c 128,-1,12
 1195 -20 1195 -20 975 -20 c 0,13,14
 759 -20 759 -20 643.5 125 c 128,-1,15
 528 270 528 270 567 526 c 2,16,-1
 584 643 l 1,17,-1
 377 643 l 1,18,-1
 281 0 l 1,19,-1
 78 0 l 1,20,-1
 296 1456 l 1,21,-1
 499 1456 l 1,22,-1
 400 798 l 1,23,-1
 608 798 l 1,24,-1
 628 930 l 2,25,26
 668 1198 668 1198 818.5 1338 c 128,-1,27
 969 1478 969 1478 1193 1478 c 0,28,29
 1408 1478 1408 1478 1519.5 1361 c 128,-1,30
 1631 1244 1631 1244 1594 1024 c 1,31,-1
 1592 1019 l 1,32,-1
 1396 1019 l 1,33,34
 1420 1182 1420 1182 1363.5 1252 c 128,-1,35
 1307 1322 1307 1322 1169 1322 c 0,36,37
 1040 1322 1040 1322 949 1220.5 c 128,-1,38
 858 1119 858 1119 831 933 c 2,39,-1
 810 798 l 1,40,-1
 1120 798 l 1,41,-1
 1096 643 l 1,0,-1
EndSplineSet
EndChar

StartChar: uni0465
Encoding: 1125 1125 529
Width: 1336
GlyphClass: 1
Flags: W
LayerCount: 2
Fore
SplineSet
931 476 m 1,0,-1
 696 476 l 1,1,2
 678 319 678 319 714.5 226 c 128,-1,3
 751 133 751 133 859 133 c 0,4,5
 931 133 931 133 991.5 191.5 c 128,-1,6
 1052 250 1052 250 1067 348 c 1,7,-1
 1249 348 l 1,8,-1
 1252 342 l 1,9,10
 1232 183 1232 183 1110.5 81 c 128,-1,11
 989 -21 989 -21 836 -21 c 0,12,13
 653 -21 653 -21 562.5 119 c 128,-1,14
 472 259 472 259 493 476 c 1,15,-1
 323 476 l 1,16,-1
 252 0 l 1,17,-1
 49 0 l 1,18,-1
 211 1082 l 1,19,-1
 414 1082 l 1,20,-1
 344 617 l 1,21,-1
 515 617 l 1,22,23
 560 837 560 837 687 969.5 c 128,-1,24
 814 1102 814 1102 1004 1102 c 0,25,26
 1160 1102 1160 1102 1248.5 991 c 128,-1,27
 1337 880 1337 880 1311 703 c 1,28,-1
 1120 703 l 1,29,30
 1137 815 1137 815 1099 880.5 c 128,-1,31
 1061 946 1061 946 981 946 c 0,32,33
 882 946 882 946 815.5 853 c 128,-1,34
 749 760 749 760 722 622 c 1,35,-1
 725 617 l 1,36,-1
 953 617 l 1,37,-1
 931 476 l 1,0,-1
EndSplineSet
EndChar

StartChar: uni0466
Encoding: 1126 1126 530
Width: 1123
GlyphClass: 1
Flags: W
LayerCount: 2
Fore
SplineSet
767 437 m 1,0,-1
 647 437 l 1,1,-1
 582 0 l 1,2,-1
 400 0 l 1,3,-1
 465 437 l 1,4,-1
 356 437 l 1,5,-1
 163 0 l 1,6,-1
 -48 0 l 1,7,-1
 617 1456 l 1,8,-1
 815 1456 l 1,9,-1
 1039 0 l 1,10,-1
 828 0 l 1,11,-1
 767 437 l 1,0,-1
424 590 m 1,12,-1
 745 590 l 1,13,-1
 670 1128 l 1,14,-1
 664 1129 l 1,15,-1
 424 590 l 1,12,-1
EndSplineSet
EndChar

StartChar: uni0467
Encoding: 1127 1127 531
Width: 976
GlyphClass: 1
Flags: W
LayerCount: 2
Fore
SplineSet
608 308 m 1,0,-1
 525 308 l 1,1,-1
 479 0 l 1,2,-1
 320 0 l 1,3,-1
 366 308 l 1,4,-1
 284 308 l 1,5,-1
 144 0 l 1,6,-1
 -63 0 l 1,7,-1
 464 1082 l 1,8,-1
 660 1082 l 1,9,-1
 865 0 l 1,10,-1
 658 0 l 1,11,-1
 608 308 l 1,0,-1
349 451 m 1,12,-1
 585 451 l 1,13,-1
 536 754 l 1,14,-1
 528 842 l 1,15,-1
 522 843 l 1,16,-1
 487 754 l 1,17,-1
 349 451 l 1,12,-1
EndSplineSet
EndChar

StartChar: uni0468
Encoding: 1128 1128 532
Width: 1615
GlyphClass: 1
Flags: W
LayerCount: 2
Fore
SplineSet
387 590 m 1,0,-1
 750 590 l 1,1,-1
 1146 1456 l 1,2,-1
 1344 1456 l 1,3,-1
 1568 0 l 1,4,-1
 1357 0 l 1,5,-1
 1296 437 l 1,6,-1
 1176 437 l 1,7,-1
 1111 0 l 1,8,-1
 929 0 l 1,9,-1
 994 437 l 1,10,-1
 885 437 l 1,11,-1
 692 0 l 1,12,-1
 481 0 l 1,13,-1
 681 438 l 1,14,-1
 364 438 l 1,15,-1
 299 0 l 1,16,-1
 96 0 l 1,17,-1
 314 1456 l 1,18,-1
 517 1456 l 1,19,-1
 387 590 l 1,0,-1
953 590 m 1,20,-1
 1274 590 l 1,21,-1
 1199 1128 l 1,22,-1
 1193 1129 l 1,23,-1
 953 590 l 1,20,-1
EndSplineSet
EndChar

StartChar: uni0469
Encoding: 1129 1129 533
Width: 1384
GlyphClass: 1
Flags: W
LayerCount: 2
Fore
SplineSet
354 451 m 1,0,-1
 603 451 l 1,1,-1
 911 1082 l 1,2,-1
 1107 1082 l 1,3,-1
 1312 0 l 1,4,-1
 1105 0 l 1,5,-1
 1055 308 l 1,6,-1
 972 308 l 1,7,-1
 926 0 l 1,8,-1
 767 0 l 1,9,-1
 813 308 l 1,10,-1
 731 308 l 1,11,-1
 591 0 l 1,12,-1
 384 0 l 1,13,-1
 534 309 l 1,14,-1
 333 309 l 1,15,-1
 287 0 l 1,16,-1
 84 0 l 1,17,-1
 246 1082 l 1,18,-1
 449 1082 l 1,19,-1
 354 451 l 1,0,-1
796 451 m 1,20,-1
 1032 451 l 1,21,-1
 983 754 l 1,22,-1
 975 842 l 1,23,-1
 969 843 l 1,24,-1
 934 754 l 1,25,-1
 796 451 l 1,20,-1
EndSplineSet
EndChar

StartChar: uni046A
Encoding: 1130 1130 534
Width: 1528
GlyphClass: 1
Flags: W
LayerCount: 2
Fore
SplineSet
999 797 m 1,0,-1
 1012 797 l 2,1,2
 1218 797 1218 797 1317 694 c 128,-1,3
 1416 591 1416 591 1383 366 c 2,4,-1
 1328 0 l 1,5,-1
 1125 0 l 1,6,-1
 1180 366 l 2,7,8
 1203 526 1203 526 1157.5 583.5 c 128,-1,9
 1112 641 1112 641 988 641 c 2,10,-1
 894 641 l 1,11,-1
 888 631 l 1,12,-1
 793 0 l 1,13,-1
 589 0 l 1,14,-1
 685 641 l 1,15,-1
 572 641 l 2,16,17
 454 641 454 641 387.5 579.5 c 128,-1,18
 321 518 321 518 299 366 c 2,19,-1
 244 0 l 1,20,-1
 40 0 l 1,21,-1
 95 366 l 2,22,23
 130 602 130 602 254 699.5 c 128,-1,24
 378 797 378 797 596 797 c 2,25,-1
 627 797 l 1,26,-1
 380 1456 l 1,27,-1
 1443 1456 l 1,28,-1
 999 797 l 1,0,-1
815 833 m 1,29,-1
 821 832 l 1,30,-1
 1118 1300 l 1,31,-1
 659 1300 l 1,32,-1
 815 833 l 1,29,-1
EndSplineSet
EndChar

StartChar: uni046B
Encoding: 1131 1131 535
Width: 1304
GlyphClass: 1
Flags: W
LayerCount: 2
Fore
SplineSet
38 0 m 1,0,-1
 65 180 l 2,1,2
 98 400 98 400 203 496.5 c 128,-1,3
 308 593 308 593 488 601 c 1,4,-1
 305 1082 l 1,5,-1
 1175 1082 l 1,6,-1
 848 600 l 1,7,8
 1010 587 1010 587 1086 485.5 c 128,-1,9
 1162 384 1162 384 1132 180 c 2,10,-1
 1105 0 l 1,11,-1
 901 0 l 1,12,-1
 928 180 l 2,13,14
 951 337 951 337 915 394 c 128,-1,15
 879 451 879 451 776 451 c 2,16,-1
 747 451 l 1,17,-1
 742 444 l 1,18,-1
 676 0 l 1,19,-1
 473 0 l 1,20,-1
 540 451 l 1,21,-1
 503 451 l 2,22,23
 405 451 405 451 348 390 c 128,-1,24
 291 329 291 329 269 180 c 2,25,-1
 242 0 l 1,26,-1
 38 0 l 1,0,-1
669 631 m 1,27,-1
 675 630 l 1,28,-1
 862 938 l 1,29,-1
 573 938 l 1,30,-1
 669 631 l 1,27,-1
EndSplineSet
EndChar

StartChar: uni046C
Encoding: 1132 1132 536
Width: 2028
GlyphClass: 1
Flags: W
LayerCount: 2
Fore
SplineSet
1124 642 m 1,0,-1
 314 642 l 1,1,-1
 338 797 l 1,2,-1
 1148 797 l 1,3,-1
 1124 642 l 1,0,-1
280 0 m 1,4,-1
 77 0 l 1,5,-1
 295 1456 l 1,6,-1
 498 1456 l 1,7,-1
 280 0 l 1,4,-1
1566 797 m 1,8,-1
 1579 797 l 2,9,10
 1785 797 1785 797 1884 694 c 128,-1,11
 1983 591 1983 591 1950 366 c 2,12,-1
 1895 0 l 1,13,-1
 1692 0 l 1,14,-1
 1747 366 l 2,15,16
 1770 526 1770 526 1724.5 583.5 c 128,-1,17
 1679 641 1679 641 1555 641 c 2,18,-1
 1461 641 l 1,19,-1
 1455 631 l 1,20,-1
 1360 0 l 1,21,-1
 1156 0 l 1,22,-1
 1252 641 l 1,23,-1
 1139 641 l 2,24,25
 1021 641 1021 641 954.5 579.5 c 128,-1,26
 888 518 888 518 866 366 c 2,27,-1
 811 0 l 1,28,-1
 607 0 l 1,29,-1
 662 366 l 2,30,31
 697 602 697 602 821 699.5 c 128,-1,32
 945 797 945 797 1163 797 c 2,33,-1
 1194 797 l 1,34,-1
 947 1456 l 1,35,-1
 2010 1456 l 1,36,-1
 1566 797 l 1,8,-1
1382 833 m 1,37,-1
 1388 832 l 1,38,-1
 1685 1300 l 1,39,-1
 1226 1300 l 1,40,-1
 1382 833 l 1,37,-1
EndSplineSet
EndChar

StartChar: uni046D
Encoding: 1133 1133 537
Width: 1757
GlyphClass: 1
Flags: W
LayerCount: 2
Fore
SplineSet
1054 454 m 1,0,-1
 202 454 l 1,1,-1
 224 603 l 1,2,-1
 1076 603 l 1,3,-1
 1054 454 l 1,0,-1
254 0 m 1,4,-1
 51 0 l 1,5,-1
 213 1082 l 1,6,-1
 416 1082 l 1,7,-1
 254 0 l 1,4,-1
544 0 m 1,8,-1
 571 180 l 2,9,10
 604 400 604 400 709 496.5 c 128,-1,11
 814 593 814 593 994 601 c 1,12,-1
 811 1082 l 1,13,-1
 1681 1082 l 1,14,-1
 1354 600 l 1,15,16
 1516 587 1516 587 1592 485.5 c 128,-1,17
 1668 384 1668 384 1638 180 c 2,18,-1
 1611 0 l 1,19,-1
 1407 0 l 1,20,-1
 1434 180 l 2,21,22
 1457 337 1457 337 1421 394 c 128,-1,23
 1385 451 1385 451 1282 451 c 2,24,-1
 1253 451 l 1,25,-1
 1248 444 l 1,26,-1
 1182 0 l 1,27,-1
 979 0 l 1,28,-1
 1046 451 l 1,29,-1
 1009 451 l 2,30,31
 911 451 911 451 854 390 c 128,-1,32
 797 329 797 329 775 180 c 2,33,-1
 748 0 l 1,34,-1
 544 0 l 1,8,-1
1175 631 m 1,35,-1
 1181 630 l 1,36,-1
 1368 938 l 1,37,-1
 1079 938 l 1,38,-1
 1175 631 l 1,35,-1
EndSplineSet
EndChar

StartChar: uni046E
Encoding: 1134 1134 538
Width: 922
GlyphClass: 1
Flags: W
LayerCount: 2
Fore
SplineSet
274 825 m 1,0,-1
 399 825 l 2,1,2
 513 825 513 825 581 889.5 c 128,-1,3
 649 954 649 954 667 1066 c 0,4,5
 683 1174 683 1174 635.5 1236.5 c 128,-1,6
 588 1299 588 1299 475 1299 c 2,7,-1
 231 1299 l 1,8,-1
 254 1456 l 1,9,-1
 498 1456 l 2,10,11
 686 1456 686 1456 791.5 1353.5 c 128,-1,12
 897 1251 897 1251 871 1070 c 0,13,14
 853 955 853 955 783.5 872 c 128,-1,15
 714 789 714 789 606 747 c 1,16,17
 716 704 716 704 767 616.5 c 128,-1,18
 818 529 818 529 799 403 c 0,19,20
 768 198 768 198 636.5 91 c 128,-1,21
 505 -16 505 -16 312 -16 c 2,22,-1
 264 -16 l 2,23,24
 207 -16 207 -16 174 -46 c 128,-1,25
 141 -76 141 -76 134 -129 c 0,26,27
 123 -197 123 -197 155.5 -238.5 c 128,-1,28
 188 -280 188 -280 238 -307 c 1,29,-1
 153 -431 l 1,30,31
 46 -395 46 -395 -11 -312 c 128,-1,32
 -68 -229 -68 -229 -53 -113 c 0,33,34
 -33 16 -33 16 53 78.5 c 128,-1,35
 139 141 139 141 280 141 c 2,36,-1
 328 141 l 2,37,38
 429 141 429 141 503.5 212.5 c 128,-1,39
 578 284 578 284 596 399 c 0,40,41
 617 538 617 538 560 602.5 c 128,-1,42
 503 667 503 667 372 667 c 2,43,-1
 250 667 l 1,44,-1
 256 708 l 1,45,-1
 259 732 l 1,46,-1
 267 781 l 1,47,-1
 274 825 l 1,0,-1
669 1750 m 1,48,-1
 806 1900 l 1,49,-1
 988 1900 l 1,50,-1
 986 1883 l 1,51,-1
 721 1643 l 1,52,-1
 586 1643 l 1,53,-1
 394 1882 l 1,54,-1
 396 1900 l 1,55,-1
 576 1900 l 1,56,-1
 669 1750 l 1,48,-1
EndSplineSet
EndChar

StartChar: uni046F
Encoding: 1135 1135 539
Width: 883
GlyphClass: 1
Flags: W
LayerCount: 2
Fore
SplineSet
438 1082 m 2,0,1
 612 1082 612 1082 713 1003 c 128,-1,2
 814 924 814 924 793 784 c 0,3,4
 780 702 780 702 726 640.5 c 128,-1,5
 672 579 672 579 586 545 c 1,6,7
 676 512 676 512 719 450.5 c 128,-1,8
 762 389 762 389 750 304 c 0,9,10
 726 149 726 149 608 66.5 c 128,-1,11
 490 -16 490 -16 314 -16 c 2,12,-1
 272 -16 l 2,13,14
 211 -16 211 -16 176.5 -46 c 128,-1,15
 142 -76 142 -76 135 -129 c 0,16,17
 124 -197 124 -197 155 -238.5 c 128,-1,18
 186 -280 186 -280 233 -307 c 1,19,-1
 149 -427 l 1,20,21
 53 -388 53 -388 -3.5 -305.5 c 128,-1,22
 -60 -223 -60 -223 -45 -113 c 0,23,24
 -26 11 -26 11 56.5 71.5 c 128,-1,25
 139 132 139 132 273 132 c 2,26,-1
 315 132 l 2,27,28
 406 132 406 132 470 179.5 c 128,-1,29
 534 227 534 227 547 304 c 0,30,31
 560 393 560 393 509 433 c 128,-1,32
 458 473 458 473 345 473 c 2,33,-1
 216 473 l 1,34,-1
 224 527 l 1,35,-1
 237 614 l 1,36,-1
 369 614 l 2,37,38
 465 614 465 614 520.5 658 c 128,-1,39
 576 702 576 702 588 780 c 0,40,41
 598 850 598 850 555.5 891.5 c 128,-1,42
 513 933 513 933 416 933 c 2,43,-1
 175 933 l 1,44,-1
 197 1082 l 1,45,-1
 438 1082 l 2,0,1
545 1406 m 1,46,-1
 682 1556 l 1,47,-1
 864 1556 l 1,48,-1
 862 1539 l 1,49,-1
 597 1299 l 1,50,-1
 462 1299 l 1,51,-1
 270 1538 l 1,52,-1
 272 1556 l 1,53,-1
 452 1556 l 1,54,-1
 545 1406 l 1,46,-1
EndSplineSet
EndChar

StartChar: uni0472
Encoding: 1138 1138 542
Width: 1219
GlyphClass: 1
Flags: W
LayerCount: 2
Fore
SplineSet
1118 527 m 2,0,1
 1077 258 1077 258 918.5 118.5 c 128,-1,2
 760 -21 760 -21 521 -21 c 0,3,4
 298 -21 298 -21 178 124.5 c 128,-1,5
 58 270 58 270 97 527 c 2,6,-1
 157 927 l 2,7,8
 197 1196 197 1196 354 1336.5 c 128,-1,9
 511 1477 511 1477 745 1477 c 0,10,11
 972 1477 972 1477 1094 1330 c 128,-1,12
 1216 1183 1216 1183 1178 927 c 2,13,-1
 1118 527 l 2,0,1
808 707 m 0,14,15
 846 707 846 707 887 730 c 128,-1,16
 928 753 928 753 956 790 c 1,17,-1
 977 930 l 2,18,19
 1006 1128 1006 1128 940 1222.5 c 128,-1,20
 874 1317 874 1317 721 1317 c 0,21,22
 580 1317 580 1317 483.5 1217.5 c 128,-1,23
 387 1118 387 1118 360 930 c 2,24,-1
 337 778 l 1,25,26
 371 810 371 810 412 828.5 c 128,-1,27
 453 847 453 847 500 847 c 0,28,29
 564 847 564 847 654.5 777 c 128,-1,30
 745 707 745 707 808 707 c 0,14,15
930 619 m 1,31,32
 896 591 896 591 856 576 c 128,-1,33
 816 561 816 561 773 561 c 0,34,35
 693 561 693 561 610 631 c 128,-1,36
 527 701 527 701 464 701 c 0,37,38
 420 701 420 701 375.5 668.5 c 128,-1,39
 331 636 331 636 308 590 c 1,40,-1
 299 527 l 2,41,42
 268 327 268 327 332.5 232 c 128,-1,43
 397 137 397 137 545 137 c 0,44,45
 690 137 690 137 788.5 236.5 c 128,-1,46
 887 336 887 336 916 527 c 2,47,-1
 930 619 l 1,31,32
EndSplineSet
EndChar

StartChar: uni0473
Encoding: 1139 1139 543
Width: 1011
GlyphClass: 1
Flags: W
LayerCount: 2
Fore
SplineSet
79 553 m 2,0,1
 116 803 116 803 251.5 952.5 c 128,-1,2
 387 1102 387 1102 588 1102 c 0,3,4
 779 1102 779 1102 874 946.5 c 128,-1,5
 969 791 969 791 934 553 c 2,6,-1
 930 526 l 2,7,8
 892 275 892 275 757 127 c 128,-1,9
 622 -21 622 -21 422 -21 c 0,10,11
 229 -21 229 -21 134 133 c 128,-1,12
 39 287 39 287 75 526 c 2,13,-1
 79 553 l 2,0,1
632 541 m 0,14,15
 662 541 662 541 693 564.5 c 128,-1,16
 724 588 724 588 738 626 c 1,17,18
 749 772 749 772 707 859 c 128,-1,19
 665 946 665 946 565 946 c 0,20,21
 463 946 463 946 391 844 c 128,-1,22
 319 742 319 742 296 595 c 1,23,-1
 300 590 l 1,24,25
 317 613 317 613 347.5 628 c 128,-1,26
 378 643 378 643 411 643 c 0,27,28
 457 643 457 643 522 592 c 128,-1,29
 587 541 587 541 632 541 c 0,14,15
376 520 m 0,30,31
 343 520 343 520 312.5 494.5 c 128,-1,32
 282 469 282 469 269 430 c 1,33,34
 261 292 261 292 304 212.5 c 128,-1,35
 347 133 347 133 445 133 c 0,36,37
 541 133 541 133 611 225.5 c 128,-1,38
 681 318 681 318 707 458 c 1,39,-1
 704 463 l 1,40,41
 686 442 686 442 657 429.5 c 128,-1,42
 628 417 628 417 597 417 c 0,43,44
 540 417 540 417 480.5 468.5 c 128,-1,45
 421 520 421 520 376 520 c 0,30,31
EndSplineSet
EndChar

StartChar: uni0474
Encoding: 1140 1140 544
Width: 1132
GlyphClass: 1
Flags: W
LayerCount: 2
Fore
SplineSet
503 334 m 1,0,-1
 510 246 l 1,1,-1
 516 246 l 1,2,-1
 550 333 l 1,3,-1
 868 1179 l 1,4,5
 932 1331 932 1331 1011.5 1403 c 128,-1,6
 1091 1475 1091 1475 1190 1475 c 0,7,8
 1215 1475 1215 1475 1237 1469 c 128,-1,9
 1259 1463 1259 1463 1278 1451 c 1,10,-1
 1235 1301 l 1,11,12
 1231 1304 1231 1304 1219 1307.5 c 128,-1,13
 1207 1311 1207 1311 1196 1311 c 0,14,15
 1154 1311 1154 1311 1118 1276.5 c 128,-1,16
 1082 1242 1082 1242 1052 1157 c 1,17,-1
 575 0 l 1,18,-1
 378 0 l 1,19,-1
 160 1456 l 1,20,-1
 377 1456 l 1,21,-1
 503 334 l 1,0,-1
EndSplineSet
EndChar

StartChar: uni0475
Encoding: 1141 1141 545
Width: 904
GlyphClass: 1
Flags: W
LayerCount: 2
Fore
SplineSet
385 325 m 1,0,-1
 389 244 l 1,1,-1
 395 243 l 1,2,-1
 424 325 l 1,3,-1
 607 834 l 1,4,5
 666 971 666 971 739.5 1036 c 128,-1,6
 813 1101 813 1101 906 1101 c 0,7,8
 930 1101 930 1101 952 1095 c 128,-1,9
 974 1089 974 1089 993 1077 c 1,10,-1
 950 928 l 1,11,12
 946 931 946 931 934 934.5 c 128,-1,13
 922 938 922 938 911 938 c 0,14,15
 878 938 878 938 847 908.5 c 128,-1,16
 816 879 816 879 795 818 c 1,17,-1
 445 0 l 1,18,-1
 266 0 l 1,19,-1
 114 1082 l 1,20,-1
 326 1082 l 1,21,-1
 385 325 l 1,0,-1
EndSplineSet
EndChar

StartChar: uni047A
Encoding: 1146 1146 550
Width: 1219
GlyphClass: 1
Flags: W
LayerCount: 2
Fore
SplineSet
789 1196 m 1,0,-1
 628 1196 l 1,1,-1
 687 1587 l 1,2,-1
 848 1587 l 1,3,-1
 789 1196 l 1,0,-1
590 -140 m 1,4,-1
 429 -140 l 1,5,-1
 489 259 l 1,6,-1
 650 259 l 1,7,-1
 590 -140 l 1,4,-1
1118 527 m 2,8,9
 1077 258 1077 258 918.5 118.5 c 128,-1,10
 760 -21 760 -21 521 -21 c 0,11,12
 298 -21 298 -21 178 124.5 c 128,-1,13
 58 270 58 270 97 527 c 2,14,-1
 157 927 l 2,15,16
 197 1196 197 1196 354 1336.5 c 128,-1,17
 511 1477 511 1477 745 1477 c 0,18,19
 972 1477 972 1477 1094 1330 c 128,-1,20
 1216 1183 1216 1183 1178 927 c 2,21,-1
 1118 527 l 2,8,9
977 930 m 2,22,23
 1006 1128 1006 1128 940 1222.5 c 128,-1,24
 874 1317 874 1317 721 1317 c 0,25,26
 580 1317 580 1317 483.5 1217.5 c 128,-1,27
 387 1118 387 1118 360 930 c 2,28,-1
 299 527 l 2,29,30
 268 327 268 327 332.5 232 c 128,-1,31
 397 137 397 137 545 137 c 0,32,33
 690 137 690 137 788.5 236.5 c 128,-1,34
 887 336 887 336 916 527 c 2,35,-1
 977 930 l 2,22,23
EndSplineSet
EndChar

